<?xml version="1.0" standalone="no"?>
 <!DOCTYPE svg PUBLIC "-//W3C//DTD SVG 1.1//EN" 
 "http://www.w3.org/Graphics/SVG/1.1/DTD/svg11.dtd"> 
<svg xmlns="http://www.w3.org/2000/svg" version="1.1" 
    width="34.4526cm" height="13.0378cm" viewBox="0 0 135640 51330 ">
<title>SVG Picture created as END67vOutFirst-B_CrtYd.svg date 2019/11/11 19:27:45 </title>
  <desc>Picture generated by PCBNEW </desc>
<g style="fill:#000000; fill-opacity:1;stroke:#000000; stroke-opacity:1;
stroke-linecap:round; stroke-linejoin:round; "
 transform="translate(0 0) scale(1 1)">
</g>
<g style="fill:#000000; fill-opacity:0.0; 
stroke:#000000; stroke-width:-0.000393701; stroke-opacity:1; 
stroke-linecap:round; stroke-linejoin:round;">
</g>
<g style="fill:#848484; fill-opacity:0.0; 
stroke:#848484; stroke-width:-0.000393701; stroke-opacity:1; 
stroke-linecap:round; stroke-linejoin:round;">
</g>
<g style="fill:#848484; fill-opacity:0.0; 
stroke:#848484; stroke-width:19.685; stroke-opacity:1; 
stroke-linecap:round; stroke-linejoin:round;">
<path d="M128386 21070
L130591 21070
" />
<path d="M128386 22881
L128386 21070
" />
<path d="M130591 22881
L128386 22881
" />
<path d="M130591 21070
L130591 22881
" />
</g>
<g style="fill:#848484; fill-opacity:0.0; 
stroke:#848484; stroke-width:59.0551; stroke-opacity:1; 
stroke-linecap:round; stroke-linejoin:round;">
<path d="M123267 3577
L123267 4463
" />
<path d="M123562 4463
L123562 3577
" />
<path d="M123956 3577
L123956 4463
" />
<path d="M124251 4463
L124251 3577
" />
<path d="M124547 3577
L124547 4463
" />
<path d="M122972 3577
L124547 3577
" />
<path d="M122972 4463
L122972 3577
" />
<path d="M125236 821
L122283 821
" />
<path d="M125236 4463
L125236 821
" />
<path d="M122283 4463
L125236 4463
" />
<path d="M122283 821
L122283 4463
" />
</g>
<g style="fill:#848484; fill-opacity:0.0; 
stroke:#848484; stroke-width:19.685; stroke-opacity:1; 
stroke-linecap:round; stroke-linejoin:round;">
<path d="M126927 24091
L132202 24091
" />
<path d="M126927 29366
L132202 29366
" />
<path d="M132202 29366
L132202 24091
" />
<path d="M126927 29366
L126927 24091
" />
<path d="M132735 28044
L132735 29501
" />
<path d="M133483 28044
L132735 28044
" />
<path d="M133483 29501
L133483 28044
" />
<path d="M132735 29501
L133483 29501
" />
<path d="M122635 5844
L122635 7301
" />
<path d="M123383 5844
L122635 5844
" />
<path d="M123383 7301
L123383 5844
" />
<path d="M122635 7301
L123383 7301
" />
<path d="M123835 5848
L123835 7305
" />
<path d="M124583 5848
L123835 5848
" />
<path d="M124583 7305
L124583 5848
" />
<path d="M123835 7305
L124583 7305
" />
<path d="M125333 24651
L125333 23194
" />
<path d="M124585 24651
L125333 24651
" />
<path d="M124585 23194
L124585 24651
" />
<path d="M125333 23194
L124585 23194
" />
<path d="M121388 7560
L121388 5631
" />
<path d="M120506 7560
L121388 7560
" />
<path d="M120506 5631
L120506 7560
" />
<path d="M121388 5631
L120506 5631
" />
<path d="M100807 5685
L101712 5685
" />
<path d="M101712 7536
L101712 5685
" />
<path d="M100807 7536
L101712 7536
" />
<path d="M100807 5685
L100807 7536
" />
<path d="M96119 5710
L97025 5710
" />
<path d="M97025 7560
L97025 5710
" />
<path d="M96119 7560
L97025 7560
" />
<path d="M96119 5710
L96119 7560
" />
<path d="M91432 5685
L92337 5685
" />
<path d="M92337 7536
L92337 5685
" />
<path d="M91432 7536
L92337 7536
" />
<path d="M91432 5685
L91432 7536
" />
<path d="M86744 5685
L87650 5685
" />
<path d="M87650 7536
L87650 5685
" />
<path d="M86744 7536
L87650 7536
" />
<path d="M86744 5685
L86744 7536
" />
<path d="M82057 5685
L82962 5685
" />
<path d="M82962 7536
L82962 5685
" />
<path d="M82057 7536
L82962 7536
" />
<path d="M82057 5685
L82057 7536
" />
<path d="M95182 4797
L96087 4797
" />
<path d="M96087 6648
L96087 4797
" />
<path d="M95182 6648
L96087 6648
" />
<path d="M95182 4797
L95182 6648
" />
<path d="M90494 4797
L91400 4797
" />
<path d="M91400 6648
L91400 4797
" />
<path d="M90494 6648
L91400 6648
" />
<path d="M90494 4797
L90494 6648
" />
<path d="M85807 4773
L86712 4773
" />
<path d="M86712 6623
L86712 4773
" />
<path d="M85807 6623
L86712 6623
" />
<path d="M85807 4773
L85807 6623
" />
<path d="M81119 4797
L82025 4797
" />
<path d="M82025 6648
L82025 4797
" />
<path d="M81119 6648
L82025 6648
" />
<path d="M81119 4797
L81119 6648
" />
<path d="M98932 3860
L99837 3860
" />
<path d="M99837 5710
L99837 3860
" />
<path d="M98932 5710
L99837 5710
" />
<path d="M98932 3860
L98932 5710
" />
<path d="M94244 3860
L95150 3860
" />
<path d="M95150 5710
L95150 3860
" />
<path d="M94244 5710
L95150 5710
" />
<path d="M94244 3860
L94244 5710
" />
<path d="M89557 3835
L90462 3835
" />
<path d="M90462 5685
L90462 3835
" />
<path d="M89557 5685
L90462 5685
" />
<path d="M89557 3835
L89557 5685
" />
<path d="M84869 3860
L85775 3860
" />
<path d="M85775 5710
L85775 3860
" />
<path d="M84869 5710
L85775 5710
" />
<path d="M84869 3860
L84869 5710
" />
<path d="M80182 3860
L81087 3860
" />
<path d="M81087 5710
L81087 3860
" />
<path d="M80182 5710
L81087 5710
" />
<path d="M80182 3860
L80182 5710
" />
<path d="M97994 2922
L98900 2922
" />
<path d="M98900 4773
L98900 2922
" />
<path d="M97994 4773
L98900 4773
" />
<path d="M97994 2922
L97994 4773
" />
<path d="M93307 2922
L94212 2922
" />
<path d="M94212 4773
L94212 2922
" />
<path d="M93307 4773
L94212 4773
" />
<path d="M93307 2922
L93307 4773
" />
<path d="M88619 2898
L89525 2898
" />
<path d="M89525 4748
L89525 2898
" />
<path d="M88619 4748
L89525 4748
" />
<path d="M88619 2898
L88619 4748
" />
<path d="M83932 2898
L84837 2898
" />
<path d="M84837 4748
L84837 2898
" />
<path d="M83932 4748
L84837 4748
" />
<path d="M83932 2898
L83932 4748
" />
<path d="M79244 2898
L80150 2898
" />
<path d="M80150 4748
L80150 2898
" />
<path d="M79244 4748
L80150 4748
" />
<path d="M79244 2898
L79244 4748
" />
<path d="M97057 1960
L97962 1960
" />
<path d="M97962 3810
L97962 1960
" />
<path d="M97057 3810
L97962 3810
" />
<path d="M97057 1960
L97057 3810
" />
<path d="M92369 1985
L93275 1985
" />
<path d="M93275 3835
L93275 1985
" />
<path d="M92369 3835
L93275 3835
" />
<path d="M92369 1985
L92369 3835
" />
<path d="M87682 1985
L88587 1985
" />
<path d="M88587 3835
L88587 1985
" />
<path d="M87682 3835
L88587 3835
" />
<path d="M87682 1985
L87682 3835
" />
<path d="M82994 1997
L83900 1997
" />
<path d="M83900 3848
L83900 1997
" />
<path d="M82994 3848
L83900 3848
" />
<path d="M82994 1997
L82994 3848
" />
<path d="M78307 1985
L79212 1985
" />
<path d="M79212 3835
L79212 1985
" />
<path d="M78307 3835
L79212 3835
" />
<path d="M78307 1985
L78307 3835
" />
<path d="M63307 5710
L64212 5710
" />
<path d="M64212 7560
L64212 5710
" />
<path d="M63307 7560
L64212 7560
" />
<path d="M63307 5710
L63307 7560
" />
<path d="M44557 5710
L45462 5710
" />
<path d="M45462 7560
L45462 5710
" />
<path d="M44557 7560
L45462 7560
" />
<path d="M44557 5710
L44557 7560
" />
<path d="M39869 5685
L40775 5685
" />
<path d="M40775 7536
L40775 5685
" />
<path d="M39869 7536
L40775 7536
" />
<path d="M39869 5685
L39869 7536
" />
<path d="M76432 4773
L77337 4773
" />
<path d="M77337 6623
L77337 4773
" />
<path d="M76432 6623
L77337 6623
" />
<path d="M76432 4773
L76432 6623
" />
<path d="M71744 4797
L72650 4797
" />
<path d="M72650 6648
L72650 4797
" />
<path d="M71744 6648
L72650 6648
" />
<path d="M71744 4797
L71744 6648
" />
<path d="M67057 4797
L67962 4797
" />
<path d="M67962 6648
L67962 4797
" />
<path d="M67057 6648
L67962 6648
" />
<path d="M67057 4797
L67057 6648
" />
<path d="M62369 4773
L63275 4773
" />
<path d="M63275 6623
L63275 4773
" />
<path d="M62369 6623
L63275 6623
" />
<path d="M62369 4773
L62369 6623
" />
<path d="M57682 4797
L58587 4797
" />
<path d="M58587 6648
L58587 4797
" />
<path d="M57682 6648
L58587 6648
" />
<path d="M57682 4797
L57682 6648
" />
<path d="M52994 4797
L53900 4797
" />
<path d="M53900 6648
L53900 4797
" />
<path d="M52994 6648
L53900 6648
" />
<path d="M52994 4797
L52994 6648
" />
<path d="M48307 4797
L49212 4797
" />
<path d="M49212 6648
L49212 4797
" />
<path d="M48307 6648
L49212 6648
" />
<path d="M48307 4797
L48307 6648
" />
<path d="M43619 4797
L44525 4797
" />
<path d="M44525 6648
L44525 4797
" />
<path d="M43619 6648
L44525 6648
" />
<path d="M43619 4797
L43619 6648
" />
<path d="M38932 4773
L39837 4773
" />
<path d="M39837 6623
L39837 4773
" />
<path d="M38932 6623
L39837 6623
" />
<path d="M38932 4773
L38932 6623
" />
<path d="M34244 4797
L35150 4797
" />
<path d="M35150 6648
L35150 4797
" />
<path d="M34244 6648
L35150 6648
" />
<path d="M34244 4797
L34244 6648
" />
<path d="M75494 3860
L76400 3860
" />
<path d="M76400 5710
L76400 3860
" />
<path d="M75494 5710
L76400 5710
" />
<path d="M75494 3860
L75494 5710
" />
<path d="M70807 3860
L71712 3860
" />
<path d="M71712 5710
L71712 3860
" />
<path d="M70807 5710
L71712 5710
" />
<path d="M70807 3860
L70807 5710
" />
<path d="M66119 3860
L67025 3860
" />
<path d="M67025 5710
L67025 3860
" />
<path d="M66119 5710
L67025 5710
" />
<path d="M66119 3860
L66119 5710
" />
<path d="M61432 3835
L62337 3835
" />
<path d="M62337 5685
L62337 3835
" />
<path d="M61432 5685
L62337 5685
" />
<path d="M61432 3835
L61432 5685
" />
<path d="M56744 3860
L57650 3860
" />
<path d="M57650 5710
L57650 3860
" />
<path d="M56744 5710
L57650 5710
" />
<path d="M56744 3860
L56744 5710
" />
<path d="M52057 3860
L52962 3860
" />
<path d="M52962 5710
L52962 3860
" />
<path d="M52057 5710
L52962 5710
" />
<path d="M52057 3860
L52057 5710
" />
<path d="M47369 3835
L48275 3835
" />
<path d="M48275 5685
L48275 3835
" />
<path d="M47369 5685
L48275 5685
" />
<path d="M47369 3835
L47369 5685
" />
<path d="M42682 3860
L43587 3860
" />
<path d="M43587 5710
L43587 3860
" />
<path d="M42682 5710
L43587 5710
" />
<path d="M42682 3860
L42682 5710
" />
<path d="M37994 3860
L38900 3860
" />
<path d="M38900 5710
L38900 3860
" />
<path d="M37994 5710
L38900 5710
" />
<path d="M37994 3860
L37994 5710
" />
<path d="M33307 3860
L34212 3860
" />
<path d="M34212 5710
L34212 3860
" />
<path d="M33307 5710
L34212 5710
" />
<path d="M33307 3860
L33307 5710
" />
<path d="M74557 2922
L75462 2922
" />
<path d="M75462 4773
L75462 2922
" />
<path d="M74557 4773
L75462 4773
" />
<path d="M74557 2922
L74557 4773
" />
<path d="M69869 2922
L70775 2922
" />
<path d="M70775 4773
L70775 2922
" />
<path d="M69869 4773
L70775 4773
" />
<path d="M69869 2922
L69869 4773
" />
<path d="M65182 2922
L66087 2922
" />
<path d="M66087 4773
L66087 2922
" />
<path d="M65182 4773
L66087 4773
" />
<path d="M65182 2922
L65182 4773
" />
<path d="M60494 2898
L61400 2898
" />
<path d="M61400 4748
L61400 2898
" />
<path d="M60494 4748
L61400 4748
" />
<path d="M60494 2898
L60494 4748
" />
<path d="M55807 2922
L56712 2922
" />
<path d="M56712 4773
L56712 2922
" />
<path d="M55807 4773
L56712 4773
" />
<path d="M55807 2922
L55807 4773
" />
<path d="M51119 2922
L52025 2922
" />
<path d="M52025 4773
L52025 2922
" />
<path d="M51119 4773
L52025 4773
" />
<path d="M51119 2922
L51119 4773
" />
<path d="M46432 2922
L47337 2922
" />
<path d="M47337 4773
L47337 2922
" />
<path d="M46432 4773
L47337 4773
" />
<path d="M46432 2922
L46432 4773
" />
<path d="M41744 2922
L42650 2922
" />
<path d="M42650 4773
L42650 2922
" />
<path d="M41744 4773
L42650 4773
" />
<path d="M41744 2922
L41744 4773
" />
<path d="M37057 2922
L37962 2922
" />
<path d="M37962 4773
L37962 2922
" />
<path d="M37057 4773
L37962 4773
" />
<path d="M37057 2922
L37057 4773
" />
<path d="M32369 2922
L33275 2922
" />
<path d="M33275 4773
L33275 2922
" />
<path d="M32369 4773
L33275 4773
" />
<path d="M32369 2922
L32369 4773
" />
<path d="M73619 1985
L74525 1985
" />
<path d="M74525 3835
L74525 1985
" />
<path d="M73619 3835
L74525 3835
" />
<path d="M73619 1985
L73619 3835
" />
<path d="M68932 1985
L69837 1985
" />
<path d="M69837 3835
L69837 1985
" />
<path d="M68932 3835
L69837 3835
" />
<path d="M68932 1985
L68932 3835
" />
<path d="M64244 1985
L65150 1985
" />
<path d="M65150 3835
L65150 1985
" />
<path d="M64244 3835
L65150 3835
" />
<path d="M64244 1985
L64244 3835
" />
<path d="M59557 1985
L60462 1985
" />
<path d="M60462 3835
L60462 1985
" />
<path d="M59557 3835
L60462 3835
" />
<path d="M59557 1985
L59557 3835
" />
<path d="M54869 1985
L55775 1985
" />
<path d="M55775 3835
L55775 1985
" />
<path d="M54869 3835
L55775 3835
" />
<path d="M54869 1985
L54869 3835
" />
<path d="M50182 1985
L51087 1985
" />
<path d="M51087 3835
L51087 1985
" />
<path d="M50182 3835
L51087 3835
" />
<path d="M50182 1985
L50182 3835
" />
<path d="M45494 1985
L46400 1985
" />
<path d="M46400 3835
L46400 1985
" />
<path d="M45494 3835
L46400 3835
" />
<path d="M45494 1985
L45494 3835
" />
<path d="M40807 1985
L41712 1985
" />
<path d="M41712 3835
L41712 1985
" />
<path d="M40807 3835
L41712 3835
" />
<path d="M40807 1985
L40807 3835
" />
<path d="M36119 1985
L37025 1985
" />
<path d="M37025 3835
L37025 1985
" />
<path d="M36119 3835
L37025 3835
" />
<path d="M36119 1985
L36119 3835
" />
<path d="M31432 1960
L32337 1960
" />
<path d="M32337 3810
L32337 1960
" />
<path d="M31432 3810
L32337 3810
" />
<path d="M31432 1960
L31432 3810
" />
<path d="M128434 29899
L126977 29899
" />
<path d="M128434 30647
L128434 29899
" />
<path d="M126977 30647
L128434 30647
" />
<path d="M126977 29899
L126977 30647
" />
<path d="M130685 30647
L132141 30647
" />
<path d="M130685 29899
L130685 30647
" />
<path d="M132141 29899
L130685 29899
" />
<path d="M132141 30647
L132141 29899
" />
<path d="M132835 24198
L132835 25655
" />
<path d="M133583 24198
L132835 24198
" />
<path d="M133583 25655
L133583 24198
" />
<path d="M132835 25655
L133583 25655
" />
<path d="M125985 23048
L125985 24505
" />
<path d="M126733 23048
L125985 23048
" />
<path d="M126733 24505
L126733 23048
" />
<path d="M125985 24505
L126733 24505
" />
<path d="M124735 27047
L126191 27047
" />
<path d="M124735 26299
L124735 27047
" />
<path d="M126191 26299
L124735 26299
" />
<path d="M126191 27047
L126191 26299
" />
<path d="M127933 22751
L127933 21294
" />
<path d="M127185 22751
L127933 22751
" />
<path d="M127185 21294
L127185 22751
" />
<path d="M127933 21294
L127185 21294
" />
<path d="M131035 21294
L131035 22751
" />
<path d="M131783 21294
L131035 21294
" />
<path d="M131783 22751
L131783 21294
" />
<path d="M131035 22751
L131783 22751
" />
<g >
</g>
<g >
</g>
<g >
</g>
<g >
</g>
<g >
</g>
<g >
</g>
<g >
</g>
<g >
</g>
<g >
</g>
<g >
</g>
<g >
</g>
<g >
</g>
<g >
</g>
<g >
</g>
<g >
</g>
<g >
</g>
<g >
</g>
<g >
</g>
<g >
</g>
<g >
</g>
<g >
</g>
<g >
</g>
<g >
</g>
<g >
</g>
<g >
</g>
<g >
</g>
<g >
</g>
<g >
</g>
<g >
</g>
<g >
</g>
<g >
</g>
<g >
</g>
<g >
</g>
<g >
</g>
<g >
</g>
<g >
</g>
<g >
</g>
<g >
</g>
<g >
</g>
<g >
</g>
<g >
</g>
<g >
</g>
<g >
</g>
<g >
</g>
<g >
</g>
<g >
</g>
<g >
</g>
<g >
</g>
<g >
</g>
<g >
</g>
<g >
</g>
<g >
</g>
<g >
</g>
<g >
</g>
<g >
</g>
<g >
</g>
<g >
</g>
<g >
</g>
<g >
</g>
<g >
</g>
<g >
</g>
<g >
</g>
<g >
</g>
<g >
</g>
<g >
</g>
<g >
</g>
<g >
</g>
<g >
</g>
<g >
</g>
<g >
</g>
<g >
</g>
<g >
</g>
<g >
</g>
<g >
</g>
<g >
</g>
<g >
</g>
<g >
</g>
<g >
</g>
<g >
</g>
<g >
</g>
<g >
</g>
<g >
</g>
<g >
</g>
<g >
</g>
<g >
</g>
<g >
</g>
<g >
</g>
<g >
</g>
<g >
</g>
<g >
</g>
<g >
</g>
<g >
</g>
<g >
</g>
<g >
</g>
<g >
</g>
<g >
</g>
<g >
</g>
<g >
</g>
<g >
</g>
<g >
</g>
<g >
</g>
<g >
</g>
<g >
</g>
<g >
</g>
<g >
</g>
<g >
</g>
<g >
</g>
<g >
</g>
<g >
</g>
<g >
</g>
<g >
</g>
<g >
</g>
<g >
</g>
<g >
</g>
<g >
</g>
<g >
</g>
<g >
</g>
<g >
</g>
<g >
</g>
<g >
</g>
<g >
</g>
<g >
</g>
<g >
</g>
<g >
</g>
<g >
</g>
<g >
</g>
<g >
</g>
<g >
</g>
<g >
</g>
<g >
</g>
<g >
</g>
<g >
</g>
<g >
</g>
<g >
</g>
<g >
</g>
<g >
</g>
<g >
</g>
<g >
</g>
<g >
</g>
<g >
</g>
<g >
</g>
<g >
</g>
<g >
</g>
<g >
</g>
<g >
</g>
<g >
</g>
<g >
</g>
<g >
</g>
<g >
</g>
<g >
</g>
<g >
</g>
<g >
</g>
<g >
</g>
<g >
</g>
<g >
</g>
<g >
</g>
<g >
</g>
<g >
</g>
<g >
</g>
<g >
</g>
<g >
</g>
<g >
</g>
<g >
</g>
<g >
</g>
<g >
</g>
<g >
</g>
<g >
</g>
</g>
<g style="fill:#848484; fill-opacity:0.0; 
stroke:#848484; stroke-width:19.685; stroke-opacity:1; 
stroke-linecap:round; stroke-linejoin:round;">
</g>
<g style="fill:#848484; fill-opacity:0.0; 
stroke:#848484; stroke-width:59.0551; stroke-opacity:1; 
stroke-linecap:round; stroke-linejoin:round;">
<path d="M124444 2870
L124444 3188
L124425 3226
L124406 3244
L124369 3263
L124294 3263
L124256 3244
L124237 3226
L124219 3188
L124219 2870
" />
<path d="M124050 3244
L123994 3263
L123900 3263
L123862 3244
L123844 3226
L123825 3188
L123825 3151
L123844 3113
L123862 3095
L123900 3076
L123975 3057
L124012 3038
L124031 3020
L124050 2982
L124050 2945
L124031 2907
L124012 2888
L123975 2870
L123881 2870
L123825 2888
" />
<path d="M123525 3057
L123469 3076
L123450 3095
L123431 3132
L123431 3188
L123450 3226
L123469 3244
L123506 3263
L123656 3263
L123656 2870
L123525 2870
L123488 2888
L123469 2907
L123450 2945
L123450 2982
L123469 3020
L123488 3038
L123525 3057
L123656 3057
" />
<path d="M123056 3263
L123281 3263
" />
<path d="M123169 3263
L123169 2870
L123206 2926
L123244 2963
L123281 2982
" />
<g >
</g>
</g>
<g style="fill:#000000; fill-opacity:0.0; 
stroke:#000000; stroke-width:59.0551; stroke-opacity:1; 
stroke-linecap:round; stroke-linejoin:round;">
</g>
<g style="fill:#C2C200; fill-opacity:0.0; 
stroke:#C2C200; stroke-width:59.0551; stroke-opacity:1; 
stroke-linecap:round; stroke-linejoin:round;">
</g>
<g style="fill:#C2C200; fill-opacity:0.0; 
stroke:#C2C200; stroke-width:19.685; stroke-opacity:1; 
stroke-linecap:round; stroke-linejoin:round;">
<path d="M134384 1635
L134697 1635
" />
<path d="M134384 51323
L134697 51323
" />
<path d="M135634 50385
L135634 49135
" />
<path d="M947 51323
L134384 51323
" />
<path d="M9 49135
L9 50385
" />
<path d="M9 2573
L9 49135
" />
<path d="M134384 1635
L947 1635
" />
<path d="M135634 49135
L135634 2573
" />
<path d="M9.84291 50385.7 A937.5 937.5 0.0 0 0 947.343 51323.2 " />
<path d="M947.343 1635.73 A937.5 937.5 0.0 0 0 9.84291 2573.23 " />
<path d="M134697 51323.2 A937.5 937.5 0.0 0 0 135635 50385.7 " />
<path d="M135635 2573.23 A937.5 937.5 0.0 0 0 134697 1635.73 " />
<g >
</g>
<g >
</g>
<g >
</g>
<g >
</g>
<g >
</g>
<g >
</g>
<g >
</g>
<g >
</g>
<g >
</g>
<g >
</g>
<g >
</g>
<g >
</g>
<g >
</g>
<g >
</g>
<g >
</g>
<g >
</g>
<g >
</g>
<g >
</g>
<g >
</g>
<g >
</g>
<g >
</g>
<g >
</g>
<g >
</g>
<g >
</g>
<g >
</g>
<g >
</g>
<g >
</g>
<g >
</g>
<g >
</g>
<g >
</g>
<g >
</g>
<g >
</g>
<g >
</g>
<g >
</g>
<g >
</g>
<g >
</g>
<g >
</g>
<g >
</g>
<g >
</g>
<g >
</g>
<g >
</g>
<g >
</g>
<g >
</g>
<g >
</g>
<g >
</g>
<g >
</g>
<g >
</g>
<g >
</g>
<g >
</g>
<g >
</g>
<g >
</g>
<g >
</g>
<g >
</g>
<g >
</g>
<g >
</g>
<g >
</g>
<g >
</g>
<g >
</g>
<g >
</g>
<g >
</g>
<g >
</g>
<g >
</g>
<g >
</g>
<g >
</g>
<g >
</g>
<g >
</g>
<g >
</g>
<g >
</g>
<g >
</g>
<g >
</g>
<g >
</g>
<g >
</g>
<g >
</g>
<g >
</g>
<g >
</g>
<g >
</g>
<g >
</g>
<g >
</g>
<g >
</g>
<g >
</g>
<g >
</g>
<g >
</g>
<g >
</g>
<g >
</g>
<g >
</g>
<g >
</g>
<g >
</g>
<g >
</g>
<g >
</g>
<g >
</g>
<g >
</g>
<g >
</g>
<g >
</g>
<g >
</g>
<g >
</g>
<g >
</g>
<g >
</g>
<g >
</g>
<g >
</g>
<g >
</g>
<g >
</g>
<g >
</g>
<g >
</g>
<g >
</g>
<g >
</g>
<g >
</g>
<g >
</g>
<g >
</g>
<g >
</g>
<g >
</g>
<g >
</g>
<g >
</g>
<g >
</g>
<g >
</g>
<g >
</g>
<g >
</g>
<g >
</g>
<g >
</g>
<g >
</g>
<g >
</g>
<g >
</g>
<g >
</g>
<g >
</g>
<g >
</g>
<g >
</g>
<g >
</g>
<g >
</g>
<g >
</g>
<g >
</g>
<g >
</g>
<g >
</g>
<g >
</g>
<g >
</g>
<g >
</g>
<g >
</g>
<g >
</g>
<g >
</g>
<g >
</g>
<g >
</g>
<g >
</g>
<g >
</g>
<g >
</g>
<g >
</g>
<g >
</g>
<g >
</g>
<g >
</g>
<g >
</g>
<g >
</g>
<g >
</g>
<g >
</g>
<g >
</g>
<g >
</g>
<g >
</g>
<g >
</g>
<g >
</g>
<g >
</g>
<g >
</g>
<g >
</g>
<g >
</g>
<g >
</g>
<g >
</g>
<g >
</g>
<g >
</g>
<g >
</g>
<g >
</g>
<g >
</g>
<g >
</g>
<g >
</g>
</g> 
</svg>
