<?xml version="1.0" standalone="no"?>
 <!DOCTYPE svg PUBLIC "-//W3C//DTD SVG 1.1//EN" 
 "http://www.w3.org/Graphics/SVG/1.1/DTD/svg11.dtd"> 
<svg xmlns="http://www.w3.org/2000/svg" version="1.1" 
    width="34.4526cm" height="13.0378cm" viewBox="0 0 135640 51330 ">
<title>SVG Picture created as END67vOutFirst-F_SilkS.svg date 2019/11/11 19:27:45 </title>
  <desc>Picture generated by PCBNEW </desc>
<g style="fill:#000000; fill-opacity:1;stroke:#000000; stroke-opacity:1;
stroke-linecap:round; stroke-linejoin:round; "
 transform="translate(0 0) scale(1 1)">
</g>
<g style="fill:#000000; fill-opacity:0.0; 
stroke:#000000; stroke-width:-0.000393701; stroke-opacity:1; 
stroke-linecap:round; stroke-linejoin:round;">
</g>
<g style="fill:#008484; fill-opacity:0.0; 
stroke:#008484; stroke-width:-0.000393701; stroke-opacity:1; 
stroke-linecap:round; stroke-linejoin:round;">
</g>
<g style="fill:#008484; fill-opacity:1.0; 
stroke:#008484; stroke-width:3.93701; stroke-opacity:1; 
stroke-linecap:round; stroke-linejoin:round;">
<path style="fill:#008484; fill-opacity:1.0; 
stroke:#008484; stroke-width:3.93701; stroke-opacity:1; 
stroke-linecap:round; stroke-linejoin:round;fill-rule:evenodd;"
d="M 16285,44775
16285,45135
15545,47641
14805,50148
14377,50148
13949,50148
13955,50125
13958,50115
13965,50090
13977,50050
13993,49996
14013,49929
14037,49848
14064,49756
14095,49652
14130,49536
14167,49411
14208,49275
14251,49130
14296,48977
14344,48816
14395,48647
14447,48472
14501,48291
14557,48104
14614,47912
14672,47717
14693,47646
14752,47449
14810,47256
14866,47068
14920,46885
14973,46708
15024,46538
15072,46375
15119,46220
15162,46073
15203,45935
15242,45807
15277,45689
15309,45582
15337,45486
15362,45402
15383,45331
15400,45274
15413,45230
15422,45201
15426,45187
15426,45186
15418,45185
15394,45184
15356,45184
15305,45183
15243,45183
15169,45182
15086,45182
14995,45181
14896,45181
14792,45181
14701,45181
13976,45181
13976,46006
13168,46006
13168,44414
16284,44414
16285,44775
Z" /> 
<path style="fill:#008484; fill-opacity:1.0; 
stroke:#008484; stroke-width:3.93701; stroke-opacity:1; 
stroke-linecap:round; stroke-linejoin:round;fill-rule:evenodd;"
d="M 8016,44445
8181,44477
8337,44520
8485,44575
8629,44643
8773,44726
8817,44754
8927,44833
9038,44924
9151,45030
9172,45051
9309,45201
9436,45364
9552,45538
9657,45722
9750,45917
9830,46120
9898,46330
9952,46548
9980,46688
9993,46768
10004,46841
10013,46909
10019,46975
10024,47044
10027,47118
10029,47201
10030,47295
10030,47331
10029,47428
10028,47511
10026,47585
10022,47652
10017,47716
10009,47781
10000,47849
9988,47923
9984,47952
9937,48180
9877,48402
9802,48617
9714,48824
9612,49022
9497,49210
9369,49388
9346,49419
9301,49471
9249,49530
9190,49591
9130,49651
9072,49708
9018,49756
8984,49784
8845,49886
8700,49977
8550,50056
8398,50120
8247,50169
8231,50173
8139,50198
7703,50198
7268,50198
7268,47315
7876,47315
7876,47549
7876,47767
7876,47969
7876,48157
7876,48330
7876,48489
7876,48635
7876,48769
7877,48890
7877,49000
7877,49098
7877,49187
7878,49265
7878,49335
7879,49395
7879,49448
7880,49493
7880,49531
7881,49562
7882,49588
7883,49609
7884,49624
7885,49636
7886,49644
7887,49649
7888,49652
7890,49653
7891,49653
7905,49649
7930,49642
7964,49632
7984,49626
8141,49573
8295,49504
8444,49420
8588,49321
8725,49210
8819,49121
8951,48977
9069,48822
9175,48657
9268,48483
9348,48299
9414,48106
9466,47904
9505,47694
9519,47589
9523,47534
9526,47467
9528,47390
9528,47309
9527,47227
9525,47148
9521,47076
9515,47014
9514,47002
9482,46797
9436,46599
9377,46408
9305,46225
9220,46051
9123,45886
9015,45730
8895,45586
8764,45453
8623,45333
8493,45239
8377,45167
8252,45103
8123,45048
7997,45005
7957,44993
7924,44985
7897,44978
7881,44973
7878,44973
7878,44981
7878,45005
7878,45045
7877,45099
7877,45167
7877,45249
7877,45343
7877,45449
7877,45567
7877,45695
7876,45833
7876,45981
7876,46137
7876,46302
7876,46473
7876,46652
7876,46836
7876,47026
7876,47220
7876,47315
7268,47315
7268,47146
7618,45836
7657,45692
7695,45551
7731,45415
7766,45285
7799,45162
7830,45045
7859,44938
7885,44839
7909,44751
7930,44674
7947,44609
7962,44556
7972,44517
7979,44493
7981,44484
7989,44460
7996,44448
8006,44444
8016,44445
Z" /> 
<path style="fill:#008484; fill-opacity:1.0; 
stroke:#008484; stroke-width:3.93701; stroke-opacity:1; 
stroke-linecap:round; stroke-linejoin:round;fill-rule:evenodd;"
d="M 7633,44440
7706,44440
7764,44441
7807,44442
7837,44444
7854,44446
7859,44449
7857,44458
7851,44482
7841,44521
7828,44572
7811,44634
7792,44707
7770,44789
7746,44880
7720,44977
7693,45080
7664,45188
7634,45300
7603,45414
7572,45530
7541,45645
7510,45760
7480,45873
7450,45982
7422,46088
7395,46187
7370,46281
7347,46366
7326,46443
7308,46510
7292,46565
7280,46608
7272,46638
7267,46654
7267,46656
7264,46664
7257,46688
7247,46727
7233,46779
7215,46843
7195,46919
7171,47006
7145,47102
7117,47208
7086,47321
7054,47442
7020,47569
6984,47702
6947,47839
6909,47979
6871,48123
6832,48268
6793,48414
6753,48560
6714,48706
6676,48850
6638,48991
6601,49128
6566,49261
6531,49389
6499,49511
6468,49626
6440,49733
6414,49830
6390,49919
6369,49996
6352,50062
6338,50116
6327,50156
6320,50182
6318,50193
6318,50193
6310,50194
6287,50195
6251,50196
6203,50197
6146,50197
6081,50198
6010,50198
5981,50198
5645,50198
5632,50150
5628,50138
5621,50110
5610,50068
5594,50012
5576,49942
5554,49859
5528,49765
5500,49659
5468,49542
5435,49416
5398,49279
5359,49135
5318,48982
5275,48821
5230,48655
5184,48482
5136,48303
5087,48120
5037,47933
5030,47906
4980,47719
4931,47536
4883,47359
4837,47186
4792,47020
4750,46861
4709,46709
4670,46565
4634,46431
4600,46305
4569,46190
4541,46085
4516,45992
4494,45911
4476,45842
4461,45787
4450,45746
4443,45720
4440,45709
4440,45709
4437,45716
4431,45739
4421,45775
4408,45824
4392,45884
4373,45954
4352,46034
4328,46121
4303,46215
4277,46314
4249,46417
4221,46524
4192,46632
4163,46742
4134,46850
4106,46957
4078,47061
4052,47161
4027,47256
4013,47310
3995,47380
3977,47444
3962,47502
3948,47551
3937,47591
3929,47618
3925,47630
3925,47631
3922,47640
3915,47665
3905,47703
3890,47755
3873,47819
3853,47893
3830,47978
3805,48072
3778,48174
3748,48283
3718,48398
3686,48518
3653,48642
3619,48769
3584,48898
3550,49029
3515,49159
3481,49288
3447,49415
3415,49539
3383,49659
3352,49774
3325,49877
3308,49944
3291,50007
3276,50063
3264,50111
3254,50148
3247,50173
3245,50183
3243,50187
3238,50190
3229,50192
3214,50194
3192,50196
3161,50197
3119,50197
3065,50198
2998,50198
2924,50198
2843,50198
2778,50198
2725,50197
2685,50197
2656,50196
2635,50194
2622,50192
2615,50190
2612,50187
2612,50183
2612,50183
2616,50172
2622,50147
2633,50109
2645,50061
2661,50004
2678,49941
2696,49872
2697,49869
2711,49814
2730,49746
2751,49665
2776,49573
2803,49473
2832,49365
2862,49252
2893,49136
2925,49019
2956,48901
2976,48827
3009,48702
3045,48571
3081,48434
3118,48295
3156,48157
3192,48021
3227,47891
3260,47768
3290,47656
3316,47557
3321,47539
3346,47447
3374,47340
3406,47223
3439,47096
3475,46963
3512,46825
3550,46685
3587,46546
3624,46409
3659,46278
3679,46202
3712,46078
3747,45950
3781,45820
3816,45690
3850,45562
3884,45439
3915,45321
3944,45212
3971,45113
3994,45026
4009,44969
4032,44884
4053,44804
4073,44728
4092,44660
4108,44600
4121,44551
4131,44513
4138,44490
4140,44483
4152,44439
4441,44439
4730,44440
5342,46725
5394,46916
5444,47104
5493,47286
5540,47464
5586,47635
5631,47800
5673,47958
5713,48108
5751,48250
5787,48382
5819,48504
5849,48616
5876,48717
5900,48806
5921,48883
5938,48946
5951,48996
5961,49031
5966,49051
5968,49055
5981,49100
6605,46770
7229,44439
7544,44439
7633,44440
Z" /> 
<path style="fill:#008484; fill-opacity:1.0; 
stroke:#008484; stroke-width:3.93701; stroke-opacity:1; 
stroke-linecap:round; stroke-linejoin:round;fill-rule:evenodd;"
d="M 2891,44439
3064,44440
3222,44440
3364,44440
3491,44440
3603,44441
3701,44441
3785,44442
3855,44443
3912,44444
3957,44445
3989,44446
4009,44447
4017,44448
4018,44448
4016,44458
4010,44481
4001,44517
3989,44561
3976,44612
3961,44669
3945,44728
3930,44787
3914,44845
3900,44898
3887,44945
3876,44984
3871,45004
3858,45048
1993,45048
1993,47014
3331,47019
3251,47319
3171,47619
2582,47621
1993,47623
1993,49589
2319,49589
2404,49589
2474,49590
2530,49590
2573,49591
2604,49593
2625,49594
2637,49596
2641,49599
2641,49600
2638,49610
2631,49634
2621,49671
2608,49719
2593,49774
2576,49837
2559,49904
2480,50198
1932,50198
1384,50198
1384,44439
2701,44439
2891,44439
Z" /> 
<path style="fill:#008484; fill-opacity:1.0; 
stroke:#008484; stroke-width:3.93701; stroke-opacity:1; 
stroke-linecap:round; stroke-linejoin:round;fill-rule:evenodd;"
d="M 12444,44423
12522,44423
12593,44424
12656,44424
12708,44425
12750,44426
12778,44427
12792,44428
12793,44428
12789,44436
12778,44458
12760,44493
12736,44541
12706,44601
12670,44671
12629,44752
12583,44842
12533,44940
12478,45047
12420,45160
12359,45280
12295,45406
12228,45536
12161,45667
12093,45801
12026,45931
11962,46057
11901,46177
11843,46290
11788,46397
11738,46495
11692,46585
11651,46666
11615,46736
11584,46795
11560,46843
11542,46878
11531,46900
11527,46907
11532,46906
11548,46898
11571,46883
11576,46880
11668,46828
11770,46790
11883,46763
12007,46750
12141,46749
12276,46760
12391,46777
12494,46800
12591,46831
12686,46871
12749,46902
12839,46953
12919,47009
12995,47073
13054,47131
13145,47236
13225,47352
13294,47479
13352,47617
13399,47767
13436,47928
13462,48102
13478,48289
13481,48373
13481,48569
13469,48756
13444,48934
13407,49103
13357,49261
13296,49408
13223,49544
13186,49602
13096,49720
12996,49826
12884,49919
12762,50000
12630,50067
12487,50122
12333,50164
12169,50194
12168,50194
12113,50200
12046,50205
11973,50208
11897,50210
11825,50210
11759,50209
11705,50206
11705,50206
11534,50185
11374,50150
11224,50103
11084,50043
10956,49971
10838,49886
10731,49788
10634,49677
10549,49554
10475,49419
10472,49413
10411,49269
10363,49115
10326,48951
10302,48779
10289,48600
10289,48525
11093,48525
11098,48666
11114,48795
11142,48911
11181,49017
11230,49111
11292,49194
11320,49225
11399,49295
11487,49351
11585,49393
11692,49422
11745,49431
11787,49435
11842,49436
11902,49435
11964,49433
12021,49428
12070,49422
12089,49419
12195,49389
12291,49345
12378,49288
12455,49218
12521,49136
12576,49042
12619,48937
12634,48888
12651,48812
12664,48724
12673,48629
12677,48531
12676,48435
12671,48344
12667,48314
12644,48179
12609,48055
12562,47944
12504,47843
12434,47755
12414,47735
12335,47666
12250,47611
12157,47570
12055,47542
11944,47527
11823,47525
11818,47525
11722,47532
11638,47547
11563,47571
11493,47604
11426,47649
11407,47663
11332,47733
11268,47816
11213,47912
11168,48020
11133,48140
11109,48271
11096,48413
11093,48525
10289,48525
10288,48415
10299,48225
10322,48032
10356,47835
10402,47637
10460,47438
10529,47240
10584,47102
10592,47085
10606,47055
10628,47011
10655,46955
10689,46888
10728,46809
10772,46721
10820,46624
10873,46518
10930,46405
10990,46285
11054,46159
11119,46028
11187,45893
11257,45754
11274,45721
11929,44423
12361,44423
12444,44423
Z" /> 
<g >
</g>
</g>
<g style="fill:#000000; fill-opacity:1.0; 
stroke:#000000; stroke-width:3.93701; stroke-opacity:1; 
stroke-linecap:round; stroke-linejoin:round;">
</g>
<g style="fill:#C2C200; fill-opacity:1.0; 
stroke:#C2C200; stroke-width:3.93701; stroke-opacity:1; 
stroke-linecap:round; stroke-linejoin:round;">
</g>
<g style="fill:#C2C200; fill-opacity:1.0; 
stroke:#C2C200; stroke-width:19.685; stroke-opacity:1; 
stroke-linecap:round; stroke-linejoin:round;">
</g>
<g style="fill:#C2C200; fill-opacity:0.0; 
stroke:#C2C200; stroke-width:19.685; stroke-opacity:1; 
stroke-linecap:round; stroke-linejoin:round;">
<path d="M134384 1635
L134697 1635
" />
<path d="M134384 51323
L134697 51323
" />
<path d="M135634 50385
L135634 49135
" />
<path d="M947 51323
L134384 51323
" />
<path d="M9 49135
L9 50385
" />
<path d="M9 2573
L9 49135
" />
<path d="M134384 1635
L947 1635
" />
<path d="M135634 49135
L135634 2573
" />
<path d="M9.84291 50385.7 A937.5 937.5 0.0 0 0 947.343 51323.2 " />
<path d="M947.343 1635.73 A937.5 937.5 0.0 0 0 9.84291 2573.23 " />
<path d="M134697 51323.2 A937.5 937.5 0.0 0 0 135635 50385.7 " />
<path d="M135635 2573.23 A937.5 937.5 0.0 0 0 134697 1635.73 " />
<g >
</g>
<g >
</g>
<g >
</g>
<g >
</g>
<g >
</g>
<g >
</g>
<g >
</g>
<g >
</g>
<g >
</g>
<g >
</g>
<g >
</g>
<g >
</g>
<g >
</g>
<g >
</g>
<g >
</g>
<g >
</g>
<g >
</g>
<g >
</g>
<g >
</g>
<g >
</g>
<g >
</g>
<g >
</g>
<g >
</g>
<g >
</g>
<g >
</g>
<g >
</g>
<g >
</g>
<g >
</g>
<g >
</g>
<g >
</g>
<g >
</g>
<g >
</g>
<g >
</g>
<g >
</g>
<g >
</g>
<g >
</g>
<g >
</g>
<g >
</g>
<g >
</g>
<g >
</g>
<g >
</g>
<g >
</g>
<g >
</g>
<g >
</g>
<g >
</g>
<g >
</g>
<g >
</g>
<g >
</g>
<g >
</g>
<g >
</g>
<g >
</g>
<g >
</g>
<g >
</g>
<g >
</g>
<g >
</g>
<g >
</g>
<g >
</g>
<g >
</g>
<g >
</g>
<g >
</g>
<g >
</g>
<g >
</g>
<g >
</g>
<g >
</g>
<g >
</g>
<g >
</g>
<g >
</g>
<g >
</g>
<g >
</g>
<g >
</g>
<g >
</g>
<g >
</g>
<g >
</g>
<g >
</g>
<g >
</g>
<g >
</g>
<g >
</g>
<g >
</g>
<g >
</g>
<g >
</g>
<g >
</g>
<g >
</g>
<g >
</g>
<g >
</g>
<g >
</g>
<g >
</g>
<g >
</g>
<g >
</g>
<g >
</g>
<g >
</g>
<g >
</g>
<g >
</g>
<g >
</g>
<g >
</g>
<g >
</g>
<g >
</g>
<g >
</g>
<g >
</g>
<g >
</g>
<g >
</g>
<g >
</g>
<g >
</g>
<g >
</g>
<g >
</g>
<g >
</g>
<g >
</g>
<g >
</g>
<g >
</g>
<g >
</g>
<g >
</g>
<g >
</g>
<g >
</g>
<g >
</g>
<g >
</g>
<g >
</g>
<g >
</g>
<g >
</g>
<g >
</g>
<g >
</g>
<g >
</g>
<g >
</g>
<g >
</g>
<g >
</g>
<g >
</g>
<g >
</g>
<g >
</g>
<g >
</g>
<g >
</g>
<g >
</g>
<g >
</g>
<g >
</g>
<g >
</g>
<g >
</g>
<g >
</g>
<g >
</g>
<g >
</g>
<g >
</g>
<g >
</g>
<g >
</g>
<g >
</g>
<g >
</g>
<g >
</g>
<g >
</g>
<g >
</g>
<g >
</g>
<g >
</g>
<g >
</g>
<g >
</g>
<g >
</g>
<g >
</g>
<g >
</g>
<g >
</g>
<g >
</g>
<g >
</g>
<g >
</g>
<g >
</g>
<g >
</g>
<g >
</g>
<g >
</g>
<g >
</g>
<g >
</g>
<g >
</g>
<g >
</g>
<g >
</g>
<g >
</g>
<g >
</g>
<g >
</g>
<g >
</g>
</g> 
</svg>
