<?xml version="1.0" standalone="no"?>
 <!DOCTYPE svg PUBLIC "-//W3C//DTD SVG 1.1//EN" 
 "http://www.w3.org/Graphics/SVG/1.1/DTD/svg11.dtd"> 
<svg xmlns="http://www.w3.org/2000/svg" version="1.1" 
    width="34.4526cm" height="13.0378cm" viewBox="0 0 135640 51330 ">
<title>SVG Picture created as END67vOutFirst-B_SilkS.svg date 2019/11/11 19:27:45 </title>
  <desc>Picture generated by PCBNEW </desc>
<g style="fill:#000000; fill-opacity:1;stroke:#000000; stroke-opacity:1;
stroke-linecap:round; stroke-linejoin:round; "
 transform="translate(0 0) scale(1 1)">
</g>
<g style="fill:#000000; fill-opacity:0.0; 
stroke:#000000; stroke-width:-0.000393701; stroke-opacity:1; 
stroke-linecap:round; stroke-linejoin:round;">
</g>
<g style="fill:#840084; fill-opacity:0.0; 
stroke:#840084; stroke-width:-0.000393701; stroke-opacity:1; 
stroke-linecap:round; stroke-linejoin:round;">
</g>
<g style="fill:#840084; fill-opacity:1.0; 
stroke:#840084; stroke-width:3.93701; stroke-opacity:1; 
stroke-linecap:round; stroke-linejoin:round;">
<path style="fill:#840084; fill-opacity:1.0; 
stroke:#840084; stroke-width:3.93701; stroke-opacity:1; 
stroke-linecap:round; stroke-linejoin:round;fill-rule:evenodd;"
d="M 5225,44423
5147,44423
5076,44424
5013,44424
4960,44425
4919,44426
4891,44427
4877,44428
4876,44428
4880,44436
4891,44458
4908,44493
4933,44541
4963,44601
4999,44671
5040,44752
5086,44842
5136,44940
5190,45047
5248,45160
5310,45280
5374,45406
5440,45536
5507,45667
5576,45801
5643,45931
5707,46057
5768,46177
5826,46290
5881,46397
5931,46495
5977,46585
6018,46666
6054,46736
6084,46795
6109,46843
6126,46878
6137,46900
6141,46907
6136,46906
6121,46898
6098,46883
6093,46880
6001,46828
5898,46790
5785,46763
5662,46750
5528,46749
5393,46760
5278,46777
5175,46800
5078,46831
4982,46871
4920,46902
4830,46953
4750,47009
4674,47073
4615,47131
4524,47236
4444,47352
4375,47479
4317,47617
4269,47767
4233,47928
4207,48102
4191,48289
4187,48373
4187,48569
4200,48756
4225,48934
4262,49103
4311,49261
4373,49408
4446,49544
4483,49602
4572,49720
4673,49826
4784,49919
4906,50000
5039,50067
5182,50122
5336,50164
5499,50194
5501,50194
5556,50200
5623,50205
5696,50208
5771,50210
5844,50210
5910,50209
5963,50206
5964,50206
6135,50185
6295,50150
6445,50103
6584,50043
6713,49971
6831,49886
6938,49788
7034,49677
7120,49554
7194,49419
7197,49413
7257,49269
7306,49115
7342,48951
7367,48779
7379,48600
7380,48525
6576,48525
6571,48666
6554,48795
6527,48911
6488,49017
6438,49111
6377,49194
6349,49225
6270,49295
6182,49351
6084,49393
5977,49422
5924,49431
5881,49435
5827,49436
5767,49435
5705,49433
5647,49428
5598,49422
5580,49419
5474,49389
5377,49345
5290,49288
5213,49218
5147,49136
5093,49042
5050,48937
5035,48888
5018,48812
5005,48724
4996,48629
4992,48531
4993,48435
4998,48344
5001,48314
5024,48179
5059,48055
5106,47944
5165,47843
5235,47755
5255,47735
5333,47666
5419,47611
5512,47570
5614,47542
5725,47527
5846,47525
5851,47525
5947,47532
6031,47547
6106,47571
6176,47604
6243,47649
6261,47663
6336,47733
6401,47816
6456,47912
6501,48020
6536,48140
6560,48271
6573,48413
6576,48525
7380,48525
7380,48415
7369,48225
7347,48032
7312,47835
7267,47637
7209,47438
7140,47240
7084,47102
7077,47085
7062,47055
7041,47011
7013,46955
6980,46888
6941,46809
6897,46721
6848,46624
6795,46518
6739,46405
6678,46285
6615,46159
6549,46028
6481,45893
6411,45754
6394,45721
5739,44423
5308,44423
5225,44423
Z" /> 
<path style="fill:#840084; fill-opacity:1.0; 
stroke:#840084; stroke-width:3.93701; stroke-opacity:1; 
stroke-linecap:round; stroke-linejoin:round;fill-rule:evenodd;"
d="M 14778,44439
14604,44440
14447,44440
14305,44440
14178,44440
14066,44441
13968,44441
13884,44442
13813,44443
13756,44444
13712,44445
13680,44446
13660,44447
13651,44448
13651,44448
13653,44458
13659,44481
13668,44517
13679,44561
13693,44612
13708,44669
13723,44728
13739,44787
13755,44845
13769,44898
13782,44945
13792,44984
13798,45004
13811,45048
15676,45048
15676,47014
14337,47019
14418,47319
14498,47619
15087,47621
15676,47623
15676,49589
15350,49589
15265,49589
15195,49590
15139,49590
15096,49591
15065,49593
15044,49594
15032,49596
15028,49599
15028,49600
15031,49610
15038,49634
15048,49671
15060,49719
15076,49774
15092,49837
15110,49904
15189,50198
15736,50198
16284,50198
16284,44439
14968,44439
14778,44439
Z" /> 
<path style="fill:#840084; fill-opacity:1.0; 
stroke:#840084; stroke-width:3.93701; stroke-opacity:1; 
stroke-linecap:round; stroke-linejoin:round;fill-rule:evenodd;"
d="M 10036,44440
9963,44440
9905,44441
9862,44442
9832,44444
9814,44446
9809,44449
9811,44458
9818,44482
9828,44521
9841,44572
9857,44634
9877,44707
9899,44789
9923,44880
9949,44977
9976,45080
10005,45188
10035,45300
10065,45414
10096,45530
10128,45645
10158,45760
10189,45873
10218,45982
10247,46088
10274,46187
10299,46281
10322,46366
10343,46443
10361,46510
10376,46565
10388,46608
10397,46638
10401,46654
10402,46656
10405,46664
10411,46688
10422,46727
10436,46779
10453,46843
10474,46919
10497,47006
10523,47102
10552,47208
10582,47321
10615,47442
10649,47569
10685,47702
10722,47839
10759,47979
10798,48123
10837,48268
10876,48414
10915,48560
10954,48706
10993,48850
11031,48991
11067,49128
11103,49261
11137,49389
11170,49511
11201,49626
11229,49733
11255,49830
11279,49919
11299,49996
11317,50062
11331,50116
11342,50156
11348,50182
11351,50193
11351,50193
11359,50194
11382,50195
11418,50196
11466,50197
11523,50197
11588,50198
11659,50198
11687,50198
12024,50198
12037,50150
12040,50138
12048,50110
12059,50068
12074,50012
12093,49942
12115,49859
12140,49765
12169,49659
12200,49542
12234,49416
12271,49279
12310,49135
12351,48982
12393,48821
12438,48655
12485,48482
12532,48303
12581,48120
12632,47933
12639,47906
12689,47719
12738,47536
12786,47359
12832,47186
12876,47020
12919,46861
12960,46709
12998,46565
13035,46431
13068,46305
13099,46190
13127,46085
13153,45992
13174,45911
13193,45842
13208,45787
13219,45746
13226,45720
13229,45709
13229,45709
13231,45716
13238,45739
13248,45775
13261,45824
13277,45884
13296,45954
13317,46034
13340,46121
13366,46215
13392,46314
13420,46417
13448,46524
13477,46632
13506,46742
13534,46850
13563,46957
13590,47061
13617,47161
13642,47256
13656,47310
13674,47380
13691,47444
13707,47502
13721,47551
13731,47591
13739,47618
13743,47630
13744,47631
13747,47640
13754,47665
13764,47703
13778,47755
13795,47819
13816,47893
13838,47978
13864,48072
13891,48174
13920,48283
13951,48398
13983,48518
14016,48642
14050,48769
14084,48898
14119,49029
14153,49159
14188,49288
14221,49415
14254,49539
14286,49659
14316,49774
14343,49877
14361,49944
14378,50007
14392,50063
14405,50111
14415,50148
14421,50173
14424,50183
14426,50187
14431,50190
14440,50192
14454,50194
14477,50196
14508,50197
14550,50197
14604,50198
14671,50198
14744,50198
14825,50198
14891,50198
14943,50197
14983,50197
15013,50196
15034,50194
15047,50192
15054,50190
15056,50187
15056,50183
15056,50183
15053,50172
15046,50147
15036,50109
15023,50061
15008,50004
14991,49941
14973,49872
14972,49869
14957,49814
14939,49746
14917,49665
14893,49573
14866,49473
14837,49365
14807,49252
14776,49136
14744,49019
14713,48901
14693,48827
14659,48702
14624,48571
14587,48434
14550,48295
14513,48157
14477,48021
14442,47891
14409,47768
14379,47656
14353,47557
14348,47539
14323,47447
14295,47340
14263,47223
14229,47096
14193,46963
14157,46825
14119,46685
14082,46546
14045,46409
14010,46278
13990,46202
13956,46078
13922,45950
13887,45820
13852,45690
13818,45562
13785,45439
13754,45321
13724,45212
13698,45113
13675,45026
13659,44969
13637,44884
13615,44804
13595,44728
13577,44660
13561,44600
13548,44551
13537,44513
13531,44490
13529,44483
13516,44439
13228,44439
12939,44440
12326,46725
12275,46916
12225,47104
12176,47286
12128,47464
12082,47635
12038,47800
11996,47958
11956,48108
11918,48250
11882,48382
11849,48504
11819,48616
11792,48717
11768,48806
11748,48883
11731,48946
11717,48996
11708,49031
11702,49051
11701,49055
11688,49100
11064,46770
10440,44439
10125,44439
10036,44440
Z" /> 
<path style="fill:#840084; fill-opacity:1.0; 
stroke:#840084; stroke-width:3.93701; stroke-opacity:1; 
stroke-linecap:round; stroke-linejoin:round;fill-rule:evenodd;"
d="M 9653,44445
9487,44477
9332,44520
9184,44575
9039,44643
8896,44726
8852,44754
8741,44833
8631,44924
8518,45030
8497,45051
8359,45201
8233,45364
8117,45538
8012,45722
7919,45917
7839,46120
7771,46330
7716,46548
7689,46688
7675,46768
7664,46841
7656,46909
7649,46975
7645,47044
7642,47118
7640,47201
7639,47295
7639,47331
7639,47428
7641,47511
7643,47585
7647,47652
7652,47716
7659,47781
7669,47849
7680,47923
7685,47952
7731,48180
7792,48402
7867,48617
7955,48824
8057,49022
8172,49210
8299,49388
8323,49419
8367,49471
8420,49530
8478,49591
8538,49651
8597,49708
8651,49756
8684,49784
8823,49886
8969,49977
9119,50056
9270,50120
9422,50169
9438,50173
9530,50198
9966,50198
10401,50198
10401,47315
9793,47315
9793,47549
9793,47767
9793,47969
9793,48157
9793,48330
9792,48489
9792,48635
9792,48769
9792,48890
9792,49000
9792,49098
9791,49187
9791,49265
9790,49335
9790,49395
9790,49448
9789,49493
9788,49531
9788,49562
9787,49588
9786,49609
9785,49624
9784,49636
9783,49644
9782,49649
9780,49652
9779,49653
9778,49653
9764,49649
9738,49642
9705,49632
9684,49626
9528,49573
9374,49504
9224,49420
9081,49321
8944,49210
8850,49121
8718,48977
8599,48822
8493,48657
8401,48483
8321,48299
8255,48106
8203,47904
8164,47694
8150,47589
8146,47534
8142,47467
8141,47390
8140,47309
8142,47227
8144,47148
8148,47076
8153,47014
8155,47002
8187,46797
8233,46599
8292,46408
8364,46225
8449,46051
8545,45886
8654,45730
8774,45586
8904,45453
9045,45333
9175,45239
9292,45167
9417,45103
9545,45048
9672,45005
9712,44993
9745,44985
9771,44978
9787,44973
9791,44973
9791,44981
9791,45005
9791,45045
9791,45099
9791,45167
9792,45249
9792,45343
9792,45449
9792,45567
9792,45695
9792,45833
9792,45981
9792,46137
9792,46302
9793,46473
9793,46652
9793,46836
9793,47026
9793,47220
9793,47315
10401,47315
10401,47146
10050,45836
10012,45692
9974,45551
9938,45415
9903,45285
9870,45162
9838,45045
9810,44938
9783,44839
9760,44751
9739,44674
9721,44609
9707,44556
9697,44517
9690,44493
9688,44484
9680,44460
9673,44448
9663,44444
9653,44445
Z" /> 
<path style="fill:#840084; fill-opacity:1.0; 
stroke:#840084; stroke-width:3.93701; stroke-opacity:1; 
stroke-linecap:round; stroke-linejoin:round;fill-rule:evenodd;"
d="M 1384,44775
1384,45135
2124,47641
2864,50148
3291,50148
3719,50148
3714,50125
3711,50115
3704,50090
3692,50050
3676,49996
3656,49929
3632,49848
3604,49756
3573,49652
3539,49536
3502,49411
3461,49275
3418,49130
3372,48977
3324,48816
3274,48647
3222,48472
3168,48291
3112,48104
3055,47912
2996,47717
2975,47646
2917,47449
2859,47256
2803,47068
2748,46885
2696,46708
2645,46538
2596,46375
2550,46220
2506,46073
2465,45935
2427,45807
2392,45689
2360,45582
2332,45486
2307,45402
2286,45331
2269,45274
2256,45230
2247,45201
2243,45187
2243,45186
2251,45185
2274,45184
2312,45184
2363,45183
2426,45183
2500,45182
2583,45182
2674,45181
2772,45181
2877,45181
2968,45181
3693,45181
3693,46006
4501,46006
4501,44414
1384,44414
1384,44775
Z" /> 
</g>
<g style="fill:#840084; fill-opacity:1.0; 
stroke:#840084; stroke-width:47.2441; stroke-opacity:1; 
stroke-linecap:round; stroke-linejoin:round;">
</g>
<g style="fill:#840084; fill-opacity:0.0; 
stroke:#840084; stroke-width:47.2441; stroke-opacity:1; 
stroke-linecap:round; stroke-linejoin:round;">
<path d="M130551 22861
L128425 22861
" />
<path d="M130551 21090
L130551 22861
" />
</g>
<g style="fill:#840084; fill-opacity:0.0; 
stroke:#840084; stroke-width:59.0551; stroke-opacity:1; 
stroke-linecap:round; stroke-linejoin:round;">
<path d="M122244 2298
L122244 4443
" />
<path d="M125275 2298
L125275 4443
" />
<path d="M122244 4443
L125275 4443
" />
<path d="M127527 28540
L127025 28540
" />
<path d="M131602 28766
L131336 28766
" />
<path d="M131602 24691
L131336 24691
" />
<path d="M127527 24691
L127793 24691
" />
<path d="M127527 28766
L127793 28766
" />
<path d="M127527 24691
L127527 24957
" />
<path d="M131602 24691
L131602 24957
" />
<path d="M131602 28766
L131602 28500
" />
<path d="M127527 28766
L127527 28540
" />
<path d="M130712 34521
L128665 34521
" />
<path d="M128665 34521
L128665 36568
" />
<path d="M128665 36568
L130712 36568
" />
<path d="M130712 36568
L130712 34521
" />
<circle cx="129689" cy="35544.9" r="393.701" /> 
</g>
<g style="fill:#840084; fill-opacity:0.0; 
stroke:#840084; stroke-width:47.2441; stroke-opacity:1; 
stroke-linecap:round; stroke-linejoin:round;">
<path d="M132830 28876
L132830 28670
" />
<path d="M133389 28876
L133389 28670
" />
<path d="M122730 6676
L122730 6470
" />
<path d="M123289 6676
L123289 6470
" />
<path d="M123930 6679
L123930 6473
" />
<path d="M124489 6679
L124489 6473
" />
<path d="M125239 23820
L125239 24026
" />
<path d="M124680 23820
L124680 24026
" />
<path d="M121305 6359
L121305 6833
" />
<path d="M120589 6359
L120589 6833
" />
<path d="M100866 5725
L100866 7260
" />
<path d="M101653 5725
L101653 7260
" />
<path d="M100866 5725
L101653 5725
" />
<path d="M96178 5749
L96178 7285
" />
<path d="M96966 5749
L96966 7285
" />
<path d="M96178 5749
L96966 5749
" />
<path d="M91491 5725
L91491 7260
" />
<path d="M92278 5725
L92278 7260
" />
<path d="M91491 5725
L92278 5725
" />
<path d="M86803 5725
L86803 7260
" />
<path d="M87591 5725
L87591 7260
" />
<path d="M86803 5725
L87591 5725
" />
<path d="M82116 5725
L82116 7260
" />
<path d="M82903 5725
L82903 7260
" />
<path d="M82116 5725
L82903 5725
" />
<path d="M95241 4837
L95241 6372
" />
<path d="M96028 4837
L96028 6372
" />
<path d="M95241 4837
L96028 4837
" />
<path d="M90553 4837
L90553 6372
" />
<path d="M91341 4837
L91341 6372
" />
<path d="M90553 4837
L91341 4837
" />
<path d="M85866 4812
L85866 6347
" />
<path d="M86653 4812
L86653 6347
" />
<path d="M85866 4812
L86653 4812
" />
<path d="M81178 4837
L81178 6372
" />
<path d="M81966 4837
L81966 6372
" />
<path d="M81178 4837
L81966 4837
" />
<path d="M98991 3899
L98991 5434
" />
<path d="M99778 3899
L99778 5434
" />
<path d="M98991 3899
L99778 3899
" />
<path d="M94303 3899
L94303 5434
" />
<path d="M95091 3899
L95091 5434
" />
<path d="M94303 3899
L95091 3899
" />
<path d="M89616 3874
L89616 5410
" />
<path d="M90403 3874
L90403 5410
" />
<path d="M89616 3874
L90403 3874
" />
<path d="M84928 3899
L84928 5434
" />
<path d="M85716 3899
L85716 5434
" />
<path d="M84928 3899
L85716 3899
" />
<path d="M80241 3899
L80241 5434
" />
<path d="M81028 3899
L81028 5434
" />
<path d="M80241 3899
L81028 3899
" />
<path d="M98053 2962
L98053 4497
" />
<path d="M98841 2962
L98841 4497
" />
<path d="M98053 2962
L98841 2962
" />
<path d="M93366 2962
L93366 4497
" />
<path d="M94153 2962
L94153 4497
" />
<path d="M93366 2962
L94153 2962
" />
<path d="M88678 2937
L88678 4472
" />
<path d="M89466 2937
L89466 4472
" />
<path d="M88678 2937
L89466 2937
" />
<path d="M83991 2937
L83991 4472
" />
<path d="M84778 2937
L84778 4472
" />
<path d="M83991 2937
L84778 2937
" />
<path d="M79303 2937
L79303 4472
" />
<path d="M80091 2937
L80091 4472
" />
<path d="M79303 2937
L80091 2937
" />
<path d="M97116 1999
L97116 3535
" />
<path d="M97903 1999
L97903 3535
" />
<path d="M97116 1999
L97903 1999
" />
<path d="M92428 2024
L92428 3559
" />
<path d="M93216 2024
L93216 3559
" />
<path d="M92428 2024
L93216 2024
" />
<path d="M87741 2024
L87741 3559
" />
<path d="M88528 2024
L88528 3559
" />
<path d="M87741 2024
L88528 2024
" />
<path d="M83053 2037
L83053 3572
" />
<path d="M83841 2037
L83841 3572
" />
<path d="M83053 2037
L83841 2037
" />
<path d="M78366 2024
L78366 3559
" />
<path d="M79153 2024
L79153 3559
" />
<path d="M78366 2024
L79153 2024
" />
<path d="M63366 5749
L63366 7285
" />
<path d="M64153 5749
L64153 7285
" />
<path d="M63366 5749
L64153 5749
" />
<path d="M44616 5749
L44616 7285
" />
<path d="M45403 5749
L45403 7285
" />
<path d="M44616 5749
L45403 5749
" />
<path d="M39928 5725
L39928 7260
" />
<path d="M40716 5725
L40716 7260
" />
<path d="M39928 5725
L40716 5725
" />
<path d="M76491 4812
L76491 6347
" />
<path d="M77278 4812
L77278 6347
" />
<path d="M76491 4812
L77278 4812
" />
<path d="M71803 4837
L71803 6372
" />
<path d="M72591 4837
L72591 6372
" />
<path d="M71803 4837
L72591 4837
" />
<path d="M67116 4837
L67116 6372
" />
<path d="M67903 4837
L67903 6372
" />
<path d="M67116 4837
L67903 4837
" />
<path d="M62428 4812
L62428 6347
" />
<path d="M63216 4812
L63216 6347
" />
<path d="M62428 4812
L63216 4812
" />
<path d="M57741 4837
L57741 6372
" />
<path d="M58528 4837
L58528 6372
" />
<path d="M57741 4837
L58528 4837
" />
<path d="M53053 4837
L53053 6372
" />
<path d="M53841 4837
L53841 6372
" />
<path d="M53053 4837
L53841 4837
" />
<path d="M48366 4837
L48366 6372
" />
<path d="M49153 4837
L49153 6372
" />
<path d="M48366 4837
L49153 4837
" />
<path d="M43678 4837
L43678 6372
" />
<path d="M44466 4837
L44466 6372
" />
<path d="M43678 4837
L44466 4837
" />
<path d="M38991 4812
L38991 6347
" />
<path d="M39778 4812
L39778 6347
" />
<path d="M38991 4812
L39778 4812
" />
<path d="M34303 4837
L34303 6372
" />
<path d="M35091 4837
L35091 6372
" />
<path d="M34303 4837
L35091 4837
" />
<path d="M75553 3899
L75553 5434
" />
<path d="M76341 3899
L76341 5434
" />
<path d="M75553 3899
L76341 3899
" />
<path d="M70866 3899
L70866 5434
" />
<path d="M71653 3899
L71653 5434
" />
<path d="M70866 3899
L71653 3899
" />
<path d="M66178 3899
L66178 5434
" />
<path d="M66966 3899
L66966 5434
" />
<path d="M66178 3899
L66966 3899
" />
<path d="M61491 3874
L61491 5410
" />
<path d="M62278 3874
L62278 5410
" />
<path d="M61491 3874
L62278 3874
" />
<path d="M56803 3899
L56803 5434
" />
<path d="M57591 3899
L57591 5434
" />
<path d="M56803 3899
L57591 3899
" />
<path d="M52116 3899
L52116 5434
" />
<path d="M52903 3899
L52903 5434
" />
<path d="M52116 3899
L52903 3899
" />
<path d="M47428 3874
L47428 5410
" />
<path d="M48216 3874
L48216 5410
" />
<path d="M47428 3874
L48216 3874
" />
<path d="M42741 3899
L42741 5434
" />
<path d="M43528 3899
L43528 5434
" />
<path d="M42741 3899
L43528 3899
" />
<path d="M38053 3899
L38053 5434
" />
<path d="M38841 3899
L38841 5434
" />
<path d="M38053 3899
L38841 3899
" />
<path d="M33366 3899
L33366 5434
" />
<path d="M34153 3899
L34153 5434
" />
<path d="M33366 3899
L34153 3899
" />
<path d="M74616 2962
L74616 4497
" />
<path d="M75403 2962
L75403 4497
" />
<path d="M74616 2962
L75403 2962
" />
<path d="M69928 2962
L69928 4497
" />
<path d="M70716 2962
L70716 4497
" />
<path d="M69928 2962
L70716 2962
" />
<path d="M65241 2962
L65241 4497
" />
<path d="M66028 2962
L66028 4497
" />
<path d="M65241 2962
L66028 2962
" />
<path d="M60553 2937
L60553 4472
" />
<path d="M61341 2937
L61341 4472
" />
<path d="M60553 2937
L61341 2937
" />
<path d="M55866 2962
L55866 4497
" />
<path d="M56653 2962
L56653 4497
" />
<path d="M55866 2962
L56653 2962
" />
<path d="M51178 2962
L51178 4497
" />
<path d="M51966 2962
L51966 4497
" />
<path d="M51178 2962
L51966 2962
" />
<path d="M46491 2962
L46491 4497
" />
<path d="M47278 2962
L47278 4497
" />
<path d="M46491 2962
L47278 2962
" />
<path d="M41803 2962
L41803 4497
" />
<path d="M42591 2962
L42591 4497
" />
<path d="M41803 2962
L42591 2962
" />
<path d="M37116 2962
L37116 4497
" />
<path d="M37903 2962
L37903 4497
" />
<path d="M37116 2962
L37903 2962
" />
<path d="M32428 2962
L32428 4497
" />
<path d="M33216 2962
L33216 4497
" />
<path d="M32428 2962
L33216 2962
" />
<path d="M73678 2024
L73678 3559
" />
<path d="M74466 2024
L74466 3559
" />
<path d="M73678 2024
L74466 2024
" />
<path d="M68991 2024
L68991 3559
" />
<path d="M69778 2024
L69778 3559
" />
<path d="M68991 2024
L69778 2024
" />
<path d="M64303 2024
L64303 3559
" />
<path d="M65091 2024
L65091 3559
" />
<path d="M64303 2024
L65091 2024
" />
<path d="M59616 2024
L59616 3559
" />
<path d="M60403 2024
L60403 3559
" />
<path d="M59616 2024
L60403 2024
" />
<path d="M54928 2024
L54928 3559
" />
<path d="M55716 2024
L55716 3559
" />
<path d="M54928 2024
L55716 2024
" />
<path d="M50241 2024
L50241 3559
" />
<path d="M51028 2024
L51028 3559
" />
<path d="M50241 2024
L51028 2024
" />
<path d="M45553 2024
L45553 3559
" />
<path d="M46341 2024
L46341 3559
" />
<path d="M45553 2024
L46341 2024
" />
<path d="M40866 2024
L40866 3559
" />
<path d="M41653 2024
L41653 3559
" />
<path d="M40866 2024
L41653 2024
" />
<path d="M36178 2024
L36178 3559
" />
<path d="M36966 2024
L36966 3559
" />
<path d="M36178 2024
L36966 2024
" />
<path d="M31491 1999
L31491 3535
" />
<path d="M32278 1999
L32278 3535
" />
<path d="M31491 1999
L32278 1999
" />
<path d="M127603 29993
L127809 29993
" />
<path d="M127603 30552
L127809 30552
" />
<path d="M131516 30552
L131310 30552
" />
<path d="M131516 29993
L131310 29993
" />
<path d="M132930 25029
L132930 24823
" />
<path d="M133489 25029
L133489 24823
" />
<path d="M126080 23879
L126080 23673
" />
<path d="M126639 23879
L126639 23673
" />
<path d="M125566 26952
L125360 26952
" />
<path d="M125566 26393
L125360 26393
" />
<path d="M127839 21920
L127839 22126
" />
<path d="M127280 21920
L127280 22126
" />
<path d="M131130 22126
L131130 21920
" />
<path d="M131689 22126
L131689 21920
" />
</g>
<g style="fill:#840084; fill-opacity:0.0; 
stroke:#840084; stroke-width:59.0551; stroke-opacity:1; 
stroke-linecap:round; stroke-linejoin:round;">
<path d="M129676 20765
L129676 20953
" />
<path d="M129807 20559
L129676 20765
L129545 20559
" />
<path d="M129207 20953
L129432 20953
" />
<path d="M129320 20953
L129320 20559
L129357 20615
L129395 20653
L129432 20672
" />
<path d="M124444 2882
L124444 3201
L124425 3238
L124406 3257
L124369 3276
L124294 3276
L124256 3257
L124237 3238
L124219 3201
L124219 2882
" />
<path d="M124050 3257
L123994 3276
L123900 3276
L123862 3257
L123844 3238
L123825 3201
L123825 3163
L123844 3126
L123862 3107
L123900 3088
L123975 3070
L124012 3051
L124031 3032
L124050 2995
L124050 2957
L124031 2920
L124012 2901
L123975 2882
L123881 2882
L123825 2901
" />
<path d="M123525 3070
L123469 3088
L123450 3107
L123431 3145
L123431 3201
L123450 3238
L123469 3257
L123506 3276
L123656 3276
L123656 2882
L123525 2882
L123488 2901
L123469 2920
L123450 2957
L123450 2995
L123469 3032
L123488 3051
L123525 3070
L123656 3070
" />
<path d="M123056 3276
L123281 3276
" />
<path d="M123169 3276
L123169 2882
L123206 2938
L123244 2976
L123281 2995
" />
<path d="M129864 29446
L129864 29765
L129846 29802
L129827 29821
L129789 29840
L129714 29840
L129677 29821
L129658 29802
L129639 29765
L129639 29446
" />
<path d="M129246 29840
L129471 29840
" />
<path d="M129358 29840
L129358 29446
L129396 29502
L129433 29540
L129471 29559
" />
<path d="M130214 37304
L130158 37322
L130064 37322
L130026 37304
L130008 37285
L129989 37247
L129989 37210
L130008 37173
L130026 37154
L130064 37135
L130139 37116
L130176 37098
L130195 37079
L130214 37041
L130214 37004
L130195 36966
L130176 36948
L130139 36929
L130045 36929
L129989 36948
" />
<path d="M129858 36929
L129764 37322
L129689 37041
L129614 37322
L129520 36929
" />
<path d="M129164 37322
L129389 37322
" />
<path d="M129276 37322
L129276 36929
L129314 36985
L129351 37023
L129389 37041
" />
<path d="M133937 28707
L133750 28576
" />
<path d="M133937 28482
L133543 28482
L133543 28632
L133562 28670
L133581 28688
L133618 28707
L133675 28707
L133712 28688
L133731 28670
L133750 28632
L133750 28482
" />
<path d="M133675 29045
L133937 29045
" />
<path d="M133525 28951
L133806 28857
L133806 29101
" />
<path d="M123837 6507
L123650 6376
" />
<path d="M123837 6282
L123443 6282
L123443 6432
L123462 6470
L123481 6488
L123518 6507
L123575 6507
L123612 6488
L123631 6470
L123650 6432
L123650 6282
" />
<path d="M123443 6638
L123443 6882
L123593 6751
L123593 6807
L123612 6845
L123631 6863
L123668 6882
L123762 6882
L123800 6863
L123818 6845
L123837 6807
L123837 6695
L123818 6657
L123800 6638
" />
<path d="M125037 6511
L124850 6379
" />
<path d="M125037 6286
L124643 6286
L124643 6436
L124662 6473
L124681 6492
L124718 6511
L124775 6511
L124812 6492
L124831 6473
L124850 6436
L124850 6286
" />
<path d="M124681 6661
L124662 6679
L124643 6717
L124643 6811
L124662 6848
L124681 6867
L124718 6886
L124756 6886
L124812 6867
L125037 6642
L125037 6886
" />
<path d="M124488 23857
L124300 23726
" />
<path d="M124488 23632
L124094 23632
L124094 23782
L124113 23820
L124132 23838
L124169 23857
L124225 23857
L124263 23838
L124282 23820
L124300 23782
L124300 23632
" />
<path d="M124488 24232
L124488 24007
" />
<path d="M124488 24120
L124094 24120
L124150 24082
L124188 24045
L124207 24007
" />
<path d="M120202 6465
L120202 6333
" />
<path d="M120408 6333
L120015 6333
L120015 6521
" />
<path d="M120408 6877
L120408 6652
" />
<path d="M120408 6765
L120015 6765
L120071 6727
L120108 6690
L120127 6652
" />
<path d="M100650 5954
L100256 5954
L100256 6048
L100275 6104
L100313 6142
L100350 6161
L100425 6179
L100481 6179
L100556 6161
L100594 6142
L100631 6104
L100650 6048
L100650 5954
" />
<path d="M100388 6517
L100650 6517
" />
<path d="M100238 6423
L100519 6329
L100519 6573
" />
<path d="M100444 6723
L100444 6854
" />
<path d="M100650 6911
L100650 6723
L100256 6723
L100256 6911
" />
<path d="M100650 7286
L100650 7061
" />
<path d="M100650 7173
L100256 7173
L100313 7136
L100350 7098
L100369 7061
" />
<path d="M95963 5960
L95569 5960
L95569 6054
L95588 6110
L95625 6148
L95663 6167
L95738 6185
L95794 6185
L95869 6167
L95906 6148
L95944 6110
L95963 6054
L95963 5960
" />
<path d="M95700 6523
L95963 6523
" />
<path d="M95550 6429
L95831 6335
L95831 6579
" />
<path d="M95963 6729
L95569 6729
L95569 6823
L95588 6879
L95625 6916
L95663 6935
L95738 6954
L95794 6954
L95869 6935
L95906 6916
L95944 6879
L95963 6823
L95963 6729
" />
<path d="M95963 7329
L95963 7104
" />
<path d="M95963 7216
L95569 7216
L95625 7179
L95663 7141
L95681 7104
" />
<path d="M91275 5936
L90881 5936
L90881 6029
L90900 6086
L90938 6123
L90975 6142
L91050 6161
L91106 6161
L91181 6142
L91219 6123
L91256 6086
L91275 6029
L91275 5936
" />
<path d="M91013 6498
L91275 6498
" />
<path d="M90863 6404
L91144 6311
L91144 6554
" />
<path d="M91238 6929
L91256 6911
L91275 6854
L91275 6817
L91256 6761
L91219 6723
L91181 6704
L91106 6686
L91050 6686
L90975 6704
L90938 6723
L90900 6761
L90881 6817
L90881 6854
L90900 6911
L90919 6929
" />
<path d="M91275 7304
L91275 7079
" />
<path d="M91275 7192
L90881 7192
L90938 7154
L90975 7117
L90994 7079
" />
<path d="M86588 5936
L86194 5936
L86194 6029
L86213 6086
L86250 6123
L86288 6142
L86363 6161
L86419 6161
L86494 6142
L86531 6123
L86569 6086
L86588 6029
L86588 5936
" />
<path d="M86325 6498
L86588 6498
" />
<path d="M86175 6404
L86456 6311
L86456 6554
" />
<path d="M86381 6836
L86400 6892
L86419 6911
L86456 6929
L86513 6929
L86550 6911
L86569 6892
L86588 6854
L86588 6704
L86194 6704
L86194 6836
L86213 6873
L86231 6892
L86269 6911
L86306 6911
L86344 6892
L86363 6873
L86381 6836
L86381 6704
" />
<path d="M86588 7304
L86588 7079
" />
<path d="M86588 7192
L86194 7192
L86250 7154
L86288 7117
L86306 7079
" />
<path d="M81900 5964
L81506 5964
L81506 6058
L81525 6114
L81563 6151
L81600 6170
L81675 6189
L81731 6189
L81806 6170
L81844 6151
L81881 6114
L81900 6058
L81900 5964
" />
<path d="M81638 6526
L81900 6526
" />
<path d="M81488 6433
L81769 6339
L81769 6583
" />
<path d="M81788 6714
L81788 6901
" />
<path d="M81900 6676
L81506 6807
L81900 6939
" />
<path d="M81900 7276
L81900 7051
" />
<path d="M81900 7164
L81506 7164
L81563 7126
L81600 7089
L81619 7051
" />
<path d="M95025 5047
L94631 5047
L94631 5141
L94650 5197
L94688 5235
L94725 5254
L94800 5272
L94856 5272
L94931 5254
L94969 5235
L95006 5197
L95025 5141
L95025 5047
" />
<path d="M94631 5404
L94631 5647
L94781 5516
L94781 5572
L94800 5610
L94819 5629
L94856 5647
L94950 5647
L94988 5629
L95006 5610
L95025 5572
L95025 5460
L95006 5422
L94988 5404
" />
<path d="M95025 5816
L94631 5816
L94631 5910
L94650 5966
L94688 6004
L94725 6022
L94800 6041
L94856 6041
L94931 6022
L94969 6004
L95006 5966
L95025 5910
L95025 5816
" />
<path d="M95025 6416
L95025 6191
" />
<path d="M95025 6304
L94631 6304
L94688 6266
L94725 6229
L94744 6191
" />
<path d="M90338 5047
L89944 5047
L89944 5141
L89963 5197
L90000 5235
L90038 5254
L90113 5272
L90169 5272
L90244 5254
L90281 5235
L90319 5197
L90338 5141
L90338 5047
" />
<path d="M89944 5404
L89944 5647
L90094 5516
L90094 5572
L90113 5610
L90131 5629
L90169 5647
L90263 5647
L90300 5629
L90319 5610
L90338 5572
L90338 5460
L90319 5422
L90300 5404
" />
<path d="M90300 6041
L90319 6022
L90338 5966
L90338 5929
L90319 5872
L90281 5835
L90244 5816
L90169 5797
L90113 5797
L90038 5816
L90000 5835
L89963 5872
L89944 5929
L89944 5966
L89963 6022
L89981 6041
" />
<path d="M90338 6416
L90338 6191
" />
<path d="M90338 6304
L89944 6304
L90000 6266
L90038 6229
L90056 6191
" />
<path d="M85650 5023
L85256 5023
L85256 5117
L85275 5173
L85313 5210
L85350 5229
L85425 5248
L85481 5248
L85556 5229
L85594 5210
L85631 5173
L85650 5117
L85650 5023
" />
<path d="M85256 5379
L85256 5623
L85406 5492
L85406 5548
L85425 5585
L85444 5604
L85481 5623
L85575 5623
L85613 5604
L85631 5585
L85650 5548
L85650 5435
L85631 5398
L85613 5379
" />
<path d="M85444 5923
L85463 5979
L85481 5998
L85519 6016
L85575 6016
L85613 5998
L85631 5979
L85650 5941
L85650 5791
L85256 5791
L85256 5923
L85275 5960
L85294 5979
L85331 5998
L85369 5998
L85406 5979
L85425 5960
L85444 5923
L85444 5791
" />
<path d="M85650 6391
L85650 6166
" />
<path d="M85650 6279
L85256 6279
L85313 6241
L85350 6204
L85369 6166
" />
<path d="M80963 5076
L80569 5076
L80569 5169
L80588 5226
L80625 5263
L80663 5282
L80738 5301
L80794 5301
L80869 5282
L80906 5263
L80944 5226
L80963 5169
L80963 5076
" />
<path d="M80569 5432
L80569 5675
L80719 5544
L80719 5600
L80738 5638
L80756 5657
L80794 5675
L80888 5675
L80925 5657
L80944 5638
L80963 5600
L80963 5488
L80944 5450
L80925 5432
" />
<path d="M80850 5825
L80850 6013
" />
<path d="M80963 5788
L80569 5919
L80963 6050
" />
<path d="M80963 6388
L80963 6163
" />
<path d="M80963 6275
L80569 6275
L80625 6238
L80663 6200
L80681 6163
" />
<path d="M98775 4129
L98381 4129
L98381 4222
L98400 4279
L98438 4316
L98475 4335
L98550 4354
L98606 4354
L98681 4335
L98719 4316
L98756 4279
L98775 4222
L98775 4129
" />
<path d="M98419 4504
L98400 4522
L98381 4560
L98381 4654
L98400 4691
L98419 4710
L98456 4729
L98494 4729
L98550 4710
L98775 4485
L98775 4729
" />
<path d="M98569 4897
L98569 5029
" />
<path d="M98775 5085
L98775 4897
L98381 4897
L98381 5085
" />
<path d="M98775 5460
L98775 5235
" />
<path d="M98775 5347
L98381 5347
L98438 5310
L98475 5272
L98494 5235
" />
<path d="M94088 4110
L93694 4110
L93694 4204
L93713 4260
L93750 4297
L93788 4316
L93863 4335
L93919 4335
L93994 4316
L94031 4297
L94069 4260
L94088 4204
L94088 4110
" />
<path d="M93731 4485
L93713 4504
L93694 4541
L93694 4635
L93713 4672
L93731 4691
L93769 4710
L93806 4710
L93863 4691
L94088 4466
L94088 4710
" />
<path d="M94088 4879
L93694 4879
L93694 4972
L93713 5029
L93750 5066
L93788 5085
L93863 5104
L93919 5104
L93994 5085
L94031 5066
L94069 5029
L94088 4972
L94088 4879
" />
<path d="M94088 5478
L94088 5254
" />
<path d="M94088 5366
L93694 5366
L93750 5329
L93788 5291
L93806 5254
" />
<path d="M89400 4085
L89006 4085
L89006 4179
L89025 4235
L89063 4273
L89100 4292
L89175 4310
L89231 4310
L89306 4292
L89344 4273
L89381 4235
L89400 4179
L89400 4085
" />
<path d="M89044 4460
L89025 4479
L89006 4517
L89006 4610
L89025 4648
L89044 4666
L89081 4685
L89119 4685
L89175 4666
L89400 4442
L89400 4685
" />
<path d="M89363 5079
L89381 5060
L89400 5004
L89400 4966
L89381 4910
L89344 4873
L89306 4854
L89231 4835
L89175 4835
L89100 4854
L89063 4873
L89025 4910
L89006 4966
L89006 5004
L89025 5060
L89044 5079
" />
<path d="M89400 5454
L89400 5229
" />
<path d="M89400 5341
L89006 5341
L89063 5304
L89100 5266
L89119 5229
" />
<path d="M84713 4110
L84319 4110
L84319 4204
L84338 4260
L84375 4297
L84413 4316
L84488 4335
L84544 4335
L84619 4316
L84656 4297
L84694 4260
L84713 4204
L84713 4110
" />
<path d="M84356 4485
L84338 4504
L84319 4541
L84319 4635
L84338 4672
L84356 4691
L84394 4710
L84431 4710
L84488 4691
L84713 4466
L84713 4710
" />
<path d="M84506 5010
L84525 5066
L84544 5085
L84581 5104
L84638 5104
L84675 5085
L84694 5066
L84713 5029
L84713 4879
L84319 4879
L84319 5010
L84338 5047
L84356 5066
L84394 5085
L84431 5085
L84469 5066
L84488 5047
L84506 5010
L84506 4879
" />
<path d="M84713 5478
L84713 5254
" />
<path d="M84713 5366
L84319 5366
L84375 5329
L84413 5291
L84431 5254
" />
<path d="M80025 4138
L79631 4138
L79631 4232
L79650 4288
L79688 4326
L79725 4344
L79800 4363
L79856 4363
L79931 4344
L79969 4326
L80006 4288
L80025 4232
L80025 4138
" />
<path d="M79669 4513
L79650 4532
L79631 4569
L79631 4663
L79650 4700
L79669 4719
L79706 4738
L79744 4738
L79800 4719
L80025 4494
L80025 4738
" />
<path d="M79913 4888
L79913 5075
" />
<path d="M80025 4850
L79631 4982
L80025 5113
" />
<path d="M80025 5450
L80025 5225
" />
<path d="M80025 5338
L79631 5338
L79688 5300
L79725 5263
L79744 5225
" />
<path d="M97838 3191
L97444 3191
L97444 3285
L97463 3341
L97500 3379
L97538 3397
L97613 3416
L97669 3416
L97744 3397
L97781 3379
L97819 3341
L97838 3285
L97838 3191
" />
<path d="M97838 3791
L97838 3566
" />
<path d="M97838 3679
L97444 3679
L97500 3641
L97538 3604
L97556 3566
" />
<path d="M97631 3960
L97631 4091
" />
<path d="M97838 4147
L97838 3960
L97444 3960
L97444 4147
" />
<path d="M97838 4522
L97838 4297
" />
<path d="M97838 4410
L97444 4410
L97500 4372
L97538 4335
L97556 4297
" />
<path d="M93150 3172
L92756 3172
L92756 3266
L92775 3322
L92813 3360
L92850 3379
L92925 3397
L92981 3397
L93056 3379
L93094 3360
L93131 3322
L93150 3266
L93150 3172
" />
<path d="M93150 3772
L93150 3547
" />
<path d="M93150 3660
L92756 3660
L92813 3622
L92850 3585
L92869 3547
" />
<path d="M93150 3941
L92756 3941
L92756 4035
L92775 4091
L92813 4129
L92850 4147
L92925 4166
L92981 4166
L93056 4147
L93094 4129
L93131 4091
L93150 4035
L93150 3941
" />
<path d="M93150 4541
L93150 4316
" />
<path d="M93150 4429
L92756 4429
L92813 4391
L92850 4354
L92869 4316
" />
<path d="M88463 3148
L88069 3148
L88069 3242
L88088 3298
L88125 3335
L88163 3354
L88238 3373
L88294 3373
L88369 3354
L88406 3335
L88444 3298
L88463 3242
L88463 3148
" />
<path d="M88463 3748
L88463 3523
" />
<path d="M88463 3635
L88069 3635
L88125 3598
L88163 3560
L88181 3523
" />
<path d="M88425 4141
L88444 4123
L88463 4066
L88463 4029
L88444 3973
L88406 3935
L88369 3916
L88294 3898
L88238 3898
L88163 3916
L88125 3935
L88088 3973
L88069 4029
L88069 4066
L88088 4123
L88106 4141
" />
<path d="M88463 4516
L88463 4291
" />
<path d="M88463 4404
L88069 4404
L88125 4366
L88163 4329
L88181 4291
" />
<path d="M83775 3148
L83381 3148
L83381 3242
L83400 3298
L83438 3335
L83475 3354
L83550 3373
L83606 3373
L83681 3354
L83719 3335
L83756 3298
L83775 3242
L83775 3148
" />
<path d="M83775 3748
L83775 3523
" />
<path d="M83775 3635
L83381 3635
L83438 3598
L83475 3560
L83494 3523
" />
<path d="M83569 4048
L83588 4104
L83606 4123
L83644 4141
L83700 4141
L83738 4123
L83756 4104
L83775 4066
L83775 3916
L83381 3916
L83381 4048
L83400 4085
L83419 4104
L83456 4123
L83494 4123
L83531 4104
L83550 4085
L83569 4048
L83569 3916
" />
<path d="M83775 4516
L83775 4291
" />
<path d="M83775 4404
L83381 4404
L83438 4366
L83475 4329
L83494 4291
" />
<path d="M79088 3176
L78694 3176
L78694 3270
L78713 3326
L78750 3363
L78788 3382
L78863 3401
L78919 3401
L78994 3382
L79031 3363
L79069 3326
L79088 3270
L79088 3176
" />
<path d="M79088 3776
L79088 3551
" />
<path d="M79088 3663
L78694 3663
L78750 3626
L78788 3588
L78806 3551
" />
<path d="M78975 3926
L78975 4113
" />
<path d="M79088 3888
L78694 4020
L79088 4151
" />
<path d="M79088 4488
L79088 4263
" />
<path d="M79088 4376
L78694 4376
L78750 4338
L78788 4301
L78806 4263
" />
<path d="M96900 2229
L96506 2229
L96506 2323
L96525 2379
L96563 2417
L96600 2435
L96675 2454
L96731 2454
L96806 2435
L96844 2417
L96881 2379
L96900 2323
L96900 2229
" />
<path d="M96506 2698
L96506 2735
L96525 2773
L96544 2791
L96581 2810
L96656 2829
L96750 2829
L96825 2810
L96863 2791
L96881 2773
L96900 2735
L96900 2698
L96881 2660
L96863 2642
L96825 2623
L96750 2604
L96656 2604
L96581 2623
L96544 2642
L96525 2660
L96506 2698
" />
<path d="M96694 2998
L96694 3129
" />
<path d="M96900 3185
L96900 2998
L96506 2998
L96506 3185
" />
<path d="M96900 3560
L96900 3335
" />
<path d="M96900 3448
L96506 3448
L96563 3410
L96600 3373
L96619 3335
" />
<path d="M92213 2235
L91819 2235
L91819 2329
L91838 2385
L91875 2422
L91913 2441
L91988 2460
L92044 2460
L92119 2441
L92156 2422
L92194 2385
L92213 2329
L92213 2235
" />
<path d="M91819 2704
L91819 2741
L91838 2779
L91856 2797
L91894 2816
L91969 2835
L92063 2835
L92138 2816
L92175 2797
L92194 2779
L92213 2741
L92213 2704
L92194 2666
L92175 2647
L92138 2629
L92063 2610
L91969 2610
L91894 2629
L91856 2647
L91838 2666
L91819 2704
" />
<path d="M92213 3004
L91819 3004
L91819 3097
L91838 3154
L91875 3191
L91913 3210
L91988 3229
L92044 3229
L92119 3210
L92156 3191
L92194 3154
L92213 3097
L92213 3004
" />
<path d="M92213 3603
L92213 3379
" />
<path d="M92213 3491
L91819 3491
L91875 3454
L91913 3416
L91931 3379
" />
<path d="M87525 2235
L87131 2235
L87131 2329
L87150 2385
L87188 2422
L87225 2441
L87300 2460
L87356 2460
L87431 2441
L87469 2422
L87506 2385
L87525 2329
L87525 2235
" />
<path d="M87131 2704
L87131 2741
L87150 2779
L87169 2797
L87206 2816
L87281 2835
L87375 2835
L87450 2816
L87488 2797
L87506 2779
L87525 2741
L87525 2704
L87506 2666
L87488 2647
L87450 2629
L87375 2610
L87281 2610
L87206 2629
L87169 2647
L87150 2666
L87131 2704
" />
<path d="M87488 3229
L87506 3210
L87525 3154
L87525 3116
L87506 3060
L87469 3022
L87431 3004
L87356 2985
L87300 2985
L87225 3004
L87188 3022
L87150 3060
L87131 3116
L87131 3154
L87150 3210
L87169 3229
" />
<path d="M87525 3603
L87525 3379
" />
<path d="M87525 3491
L87131 3491
L87188 3454
L87225 3416
L87244 3379
" />
<path d="M82838 2247
L82444 2247
L82444 2341
L82463 2397
L82500 2435
L82538 2454
L82613 2472
L82669 2472
L82744 2454
L82781 2435
L82819 2397
L82838 2341
L82838 2247
" />
<path d="M82444 2716
L82444 2754
L82463 2791
L82481 2810
L82519 2829
L82594 2847
L82688 2847
L82763 2829
L82800 2810
L82819 2791
L82838 2754
L82838 2716
L82819 2679
L82800 2660
L82763 2641
L82688 2622
L82594 2622
L82519 2641
L82481 2660
L82463 2679
L82444 2716
" />
<path d="M82631 3147
L82650 3204
L82669 3222
L82706 3241
L82763 3241
L82800 3222
L82819 3204
L82838 3166
L82838 3016
L82444 3016
L82444 3147
L82463 3185
L82481 3204
L82519 3222
L82556 3222
L82594 3204
L82613 3185
L82631 3147
L82631 3016
" />
<path d="M82838 3616
L82838 3391
" />
<path d="M82838 3504
L82444 3504
L82500 3466
L82538 3429
L82556 3391
" />
<path d="M78150 2263
L77756 2263
L77756 2357
L77775 2413
L77813 2451
L77850 2469
L77925 2488
L77981 2488
L78056 2469
L78094 2451
L78131 2413
L78150 2357
L78150 2263
" />
<path d="M77756 2732
L77756 2769
L77775 2807
L77794 2825
L77831 2844
L77906 2863
L78000 2863
L78075 2844
L78113 2825
L78131 2807
L78150 2769
L78150 2732
L78131 2694
L78113 2675
L78075 2657
L78000 2638
L77906 2638
L77831 2657
L77794 2675
L77775 2694
L77756 2732
" />
<path d="M78038 3013
L78038 3200
" />
<path d="M78150 2975
L77756 3107
L78150 3238
" />
<path d="M78150 3575
L78150 3350
" />
<path d="M78150 3463
L77756 3463
L77813 3425
L77850 3388
L77869 3350
" />
<path d="M63150 6157
L62756 6157
L62756 6251
L62775 6307
L62813 6345
L62850 6363
L62925 6382
L62981 6382
L63056 6363
L63094 6345
L63131 6307
L63150 6251
L63150 6157
" />
<path d="M62888 6720
L63150 6720
" />
<path d="M62738 6626
L63019 6532
L63019 6776
" />
<path d="M62756 7095
L62756 7020
L62775 6982
L62794 6963
L62850 6926
L62925 6907
L63075 6907
L63113 6926
L63131 6945
L63150 6982
L63150 7057
L63131 7095
L63113 7113
L63075 7132
L62981 7132
L62944 7113
L62925 7095
L62906 7057
L62906 6982
L62925 6945
L62944 6926
L62981 6907
" />
<path d="M44400 6157
L44006 6157
L44006 6251
L44025 6307
L44063 6345
L44100 6363
L44175 6382
L44231 6382
L44306 6363
L44344 6345
L44381 6307
L44400 6251
L44400 6157
" />
<path d="M44138 6720
L44400 6720
" />
<path d="M43988 6626
L44269 6532
L44269 6776
" />
<path d="M44044 6907
L44025 6926
L44006 6963
L44006 7057
L44025 7095
L44044 7113
L44081 7132
L44119 7132
L44175 7113
L44400 6888
L44400 7132
" />
<path d="M39713 6133
L39319 6133
L39319 6226
L39338 6283
L39375 6320
L39413 6339
L39488 6358
L39544 6358
L39619 6339
L39656 6320
L39694 6283
L39713 6226
L39713 6133
" />
<path d="M39450 6695
L39713 6695
" />
<path d="M39300 6601
L39581 6508
L39581 6751
" />
<path d="M39713 7107
L39713 6882
" />
<path d="M39713 6995
L39319 6995
L39375 6957
L39413 6920
L39431 6882
" />
<path d="M76275 5220
L75881 5220
L75881 5313
L75900 5370
L75938 5407
L75975 5426
L76050 5445
L76106 5445
L76181 5426
L76219 5407
L76256 5370
L76275 5313
L76275 5220
" />
<path d="M75881 5576
L75881 5820
L76031 5688
L76031 5745
L76050 5782
L76069 5801
L76106 5820
L76200 5820
L76238 5801
L76256 5782
L76275 5745
L76275 5632
L76256 5595
L76238 5576
" />
<path d="M76275 6007
L76275 6082
L76256 6120
L76238 6138
L76181 6176
L76106 6195
L75956 6195
L75919 6176
L75900 6157
L75881 6120
L75881 6045
L75900 6007
L75919 5988
L75956 5970
L76050 5970
L76088 5988
L76106 6007
L76125 6045
L76125 6120
L76106 6157
L76088 6176
L76050 6195
" />
<path d="M71588 5244
L71194 5244
L71194 5338
L71213 5394
L71250 5432
L71288 5450
L71363 5469
L71419 5469
L71494 5450
L71531 5432
L71569 5394
L71588 5338
L71588 5244
" />
<path d="M71194 5600
L71194 5844
L71344 5713
L71344 5769
L71363 5807
L71381 5825
L71419 5844
L71513 5844
L71550 5825
L71569 5807
L71588 5769
L71588 5657
L71569 5619
L71550 5600
" />
<path d="M71363 6069
L71344 6032
L71325 6013
L71288 5994
L71269 5994
L71231 6013
L71213 6032
L71194 6069
L71194 6144
L71213 6182
L71231 6200
L71269 6219
L71288 6219
L71325 6200
L71344 6182
L71363 6144
L71363 6069
L71381 6032
L71400 6013
L71438 5994
L71513 5994
L71550 6013
L71569 6032
L71588 6069
L71588 6144
L71569 6182
L71550 6200
L71513 6219
L71438 6219
L71400 6200
L71381 6182
L71363 6144
" />
<path d="M66900 5244
L66506 5244
L66506 5338
L66525 5394
L66563 5432
L66600 5450
L66675 5469
L66731 5469
L66806 5450
L66844 5432
L66881 5394
L66900 5338
L66900 5244
" />
<path d="M66506 5600
L66506 5844
L66656 5713
L66656 5769
L66675 5807
L66694 5825
L66731 5844
L66825 5844
L66863 5825
L66881 5807
L66900 5769
L66900 5657
L66881 5619
L66863 5600
" />
<path d="M66506 5975
L66506 6238
L66900 6069
" />
<path d="M62213 5220
L61819 5220
L61819 5313
L61838 5370
L61875 5407
L61913 5426
L61988 5445
L62044 5445
L62119 5426
L62156 5407
L62194 5370
L62213 5313
L62213 5220
" />
<path d="M61819 5576
L61819 5820
L61969 5688
L61969 5745
L61988 5782
L62006 5801
L62044 5820
L62138 5820
L62175 5801
L62194 5782
L62213 5745
L62213 5632
L62194 5595
L62175 5576
" />
<path d="M61819 6157
L61819 6082
L61838 6045
L61856 6026
L61913 5988
L61988 5970
L62138 5970
L62175 5988
L62194 6007
L62213 6045
L62213 6120
L62194 6157
L62175 6176
L62138 6195
L62044 6195
L62006 6176
L61988 6157
L61969 6120
L61969 6045
L61988 6007
L62006 5988
L62044 5970
" />
<path d="M57525 5244
L57131 5244
L57131 5338
L57150 5394
L57188 5432
L57225 5450
L57300 5469
L57356 5469
L57431 5450
L57469 5432
L57506 5394
L57525 5338
L57525 5244
" />
<path d="M57131 5600
L57131 5844
L57281 5713
L57281 5769
L57300 5807
L57319 5825
L57356 5844
L57450 5844
L57488 5825
L57506 5807
L57525 5769
L57525 5657
L57506 5619
L57488 5600
" />
<path d="M57131 6200
L57131 6013
L57319 5994
L57300 6013
L57281 6050
L57281 6144
L57300 6182
L57319 6200
L57356 6219
L57450 6219
L57488 6200
L57506 6182
L57525 6144
L57525 6050
L57506 6013
L57488 5994
" />
<path d="M52838 5244
L52444 5244
L52444 5338
L52463 5394
L52500 5432
L52538 5450
L52613 5469
L52669 5469
L52744 5450
L52781 5432
L52819 5394
L52838 5338
L52838 5244
" />
<path d="M52444 5600
L52444 5844
L52594 5713
L52594 5769
L52613 5807
L52631 5825
L52669 5844
L52763 5844
L52800 5825
L52819 5807
L52838 5769
L52838 5657
L52819 5619
L52800 5600
" />
<path d="M52575 6182
L52838 6182
" />
<path d="M52425 6088
L52706 5994
L52706 6238
" />
<path d="M48150 5244
L47756 5244
L47756 5338
L47775 5394
L47813 5432
L47850 5450
L47925 5469
L47981 5469
L48056 5450
L48094 5432
L48131 5394
L48150 5338
L48150 5244
" />
<path d="M47756 5600
L47756 5844
L47906 5713
L47906 5769
L47925 5807
L47944 5825
L47981 5844
L48075 5844
L48113 5825
L48131 5807
L48150 5769
L48150 5657
L48131 5619
L48113 5600
" />
<path d="M47756 5975
L47756 6219
L47906 6088
L47906 6144
L47925 6182
L47944 6200
L47981 6219
L48075 6219
L48113 6200
L48131 6182
L48150 6144
L48150 6032
L48131 5994
L48113 5975
" />
<path d="M43463 5244
L43069 5244
L43069 5338
L43088 5394
L43125 5432
L43163 5450
L43238 5469
L43294 5469
L43369 5450
L43406 5432
L43444 5394
L43463 5338
L43463 5244
" />
<path d="M43069 5600
L43069 5844
L43219 5713
L43219 5769
L43238 5807
L43256 5825
L43294 5844
L43388 5844
L43425 5825
L43444 5807
L43463 5769
L43463 5657
L43444 5619
L43425 5600
" />
<path d="M43106 5994
L43088 6013
L43069 6050
L43069 6144
L43088 6182
L43106 6200
L43144 6219
L43181 6219
L43238 6200
L43463 5975
L43463 6219
" />
<path d="M38775 5220
L38381 5220
L38381 5313
L38400 5370
L38438 5407
L38475 5426
L38550 5445
L38606 5445
L38681 5426
L38719 5407
L38756 5370
L38775 5313
L38775 5220
" />
<path d="M38381 5576
L38381 5820
L38531 5688
L38531 5745
L38550 5782
L38569 5801
L38606 5820
L38700 5820
L38738 5801
L38756 5782
L38775 5745
L38775 5632
L38756 5595
L38738 5576
" />
<path d="M38775 6195
L38775 5970
" />
<path d="M38775 6082
L38381 6082
L38438 6045
L38475 6007
L38494 5970
" />
<path d="M34088 5244
L33694 5244
L33694 5338
L33713 5394
L33750 5432
L33788 5450
L33863 5469
L33919 5469
L33994 5450
L34031 5432
L34069 5394
L34088 5338
L34088 5244
" />
<path d="M33694 5600
L33694 5844
L33844 5713
L33844 5769
L33863 5807
L33881 5825
L33919 5844
L34013 5844
L34050 5825
L34069 5807
L34088 5769
L34088 5657
L34069 5619
L34050 5600
" />
<path d="M33694 6088
L33694 6125
L33713 6163
L33731 6182
L33769 6200
L33844 6219
L33938 6219
L34013 6200
L34050 6182
L34069 6163
L34088 6125
L34088 6088
L34069 6050
L34050 6032
L34013 6013
L33938 5994
L33844 5994
L33769 6013
L33731 6032
L33713 6050
L33694 6088
" />
<path d="M75338 4307
L74944 4307
L74944 4401
L74963 4457
L75000 4494
L75038 4513
L75113 4532
L75169 4532
L75244 4513
L75281 4494
L75319 4457
L75338 4401
L75338 4307
" />
<path d="M74981 4682
L74963 4700
L74944 4738
L74944 4832
L74963 4869
L74981 4888
L75019 4907
L75056 4907
L75113 4888
L75338 4663
L75338 4907
" />
<path d="M75338 5094
L75338 5169
L75319 5207
L75300 5225
L75244 5263
L75169 5282
L75019 5282
L74981 5263
L74963 5244
L74944 5207
L74944 5132
L74963 5094
L74981 5075
L75019 5057
L75113 5057
L75150 5075
L75169 5094
L75188 5132
L75188 5207
L75169 5244
L75150 5263
L75113 5282
" />
<path d="M70650 4307
L70256 4307
L70256 4401
L70275 4457
L70313 4494
L70350 4513
L70425 4532
L70481 4532
L70556 4513
L70594 4494
L70631 4457
L70650 4401
L70650 4307
" />
<path d="M70294 4682
L70275 4700
L70256 4738
L70256 4832
L70275 4869
L70294 4888
L70331 4907
L70369 4907
L70425 4888
L70650 4663
L70650 4907
" />
<path d="M70425 5132
L70406 5094
L70388 5075
L70350 5057
L70331 5057
L70294 5075
L70275 5094
L70256 5132
L70256 5207
L70275 5244
L70294 5263
L70331 5282
L70350 5282
L70388 5263
L70406 5244
L70425 5207
L70425 5132
L70444 5094
L70463 5075
L70500 5057
L70575 5057
L70613 5075
L70631 5094
L70650 5132
L70650 5207
L70631 5244
L70613 5263
L70575 5282
L70500 5282
L70463 5263
L70444 5244
L70425 5207
" />
<path d="M65963 4307
L65569 4307
L65569 4401
L65588 4457
L65625 4494
L65663 4513
L65738 4532
L65794 4532
L65869 4513
L65906 4494
L65944 4457
L65963 4401
L65963 4307
" />
<path d="M65606 4682
L65588 4700
L65569 4738
L65569 4832
L65588 4869
L65606 4888
L65644 4907
L65681 4907
L65738 4888
L65963 4663
L65963 4907
" />
<path d="M65569 5038
L65569 5300
L65963 5132
" />
<path d="M61275 4282
L60881 4282
L60881 4376
L60900 4432
L60938 4470
L60975 4488
L61050 4507
L61106 4507
L61181 4488
L61219 4470
L61256 4432
L61275 4376
L61275 4282
" />
<path d="M60919 4657
L60900 4676
L60881 4713
L60881 4807
L60900 4845
L60919 4863
L60956 4882
L60994 4882
L61050 4863
L61275 4638
L61275 4882
" />
<path d="M60881 5220
L60881 5145
L60900 5107
L60919 5088
L60975 5051
L61050 5032
L61200 5032
L61238 5051
L61256 5070
L61275 5107
L61275 5182
L61256 5220
L61238 5238
L61200 5257
L61106 5257
L61069 5238
L61050 5220
L61031 5182
L61031 5107
L61050 5070
L61069 5051
L61106 5032
" />
<path d="M56588 4307
L56194 4307
L56194 4401
L56213 4457
L56250 4494
L56288 4513
L56363 4532
L56419 4532
L56494 4513
L56531 4494
L56569 4457
L56588 4401
L56588 4307
" />
<path d="M56231 4682
L56213 4700
L56194 4738
L56194 4832
L56213 4869
L56231 4888
L56269 4907
L56306 4907
L56363 4888
L56588 4663
L56588 4907
" />
<path d="M56194 5263
L56194 5075
L56381 5057
L56363 5075
L56344 5113
L56344 5207
L56363 5244
L56381 5263
L56419 5282
L56513 5282
L56550 5263
L56569 5244
L56588 5207
L56588 5113
L56569 5075
L56550 5057
" />
<path d="M51900 4307
L51506 4307
L51506 4401
L51525 4457
L51563 4494
L51600 4513
L51675 4532
L51731 4532
L51806 4513
L51844 4494
L51881 4457
L51900 4401
L51900 4307
" />
<path d="M51544 4682
L51525 4700
L51506 4738
L51506 4832
L51525 4869
L51544 4888
L51581 4907
L51619 4907
L51675 4888
L51900 4663
L51900 4907
" />
<path d="M51638 5244
L51900 5244
" />
<path d="M51488 5150
L51769 5057
L51769 5300
" />
<path d="M47213 4282
L46819 4282
L46819 4376
L46838 4432
L46875 4470
L46913 4488
L46988 4507
L47044 4507
L47119 4488
L47156 4470
L47194 4432
L47213 4376
L47213 4282
" />
<path d="M46856 4657
L46838 4676
L46819 4713
L46819 4807
L46838 4845
L46856 4863
L46894 4882
L46931 4882
L46988 4863
L47213 4638
L47213 4882
" />
<path d="M46819 5013
L46819 5257
L46969 5126
L46969 5182
L46988 5220
L47006 5238
L47044 5257
L47138 5257
L47175 5238
L47194 5220
L47213 5182
L47213 5070
L47194 5032
L47175 5013
" />
<path d="M42525 4307
L42131 4307
L42131 4401
L42150 4457
L42188 4494
L42225 4513
L42300 4532
L42356 4532
L42431 4513
L42469 4494
L42506 4457
L42525 4401
L42525 4307
" />
<path d="M42169 4682
L42150 4700
L42131 4738
L42131 4832
L42150 4869
L42169 4888
L42206 4907
L42244 4907
L42300 4888
L42525 4663
L42525 4907
" />
<path d="M42169 5057
L42150 5075
L42131 5113
L42131 5207
L42150 5244
L42169 5263
L42206 5282
L42244 5282
L42300 5263
L42525 5038
L42525 5282
" />
<path d="M37838 4307
L37444 4307
L37444 4401
L37463 4457
L37500 4494
L37538 4513
L37613 4532
L37669 4532
L37744 4513
L37781 4494
L37819 4457
L37838 4401
L37838 4307
" />
<path d="M37481 4682
L37463 4700
L37444 4738
L37444 4832
L37463 4869
L37481 4888
L37519 4907
L37556 4907
L37613 4888
L37838 4663
L37838 4907
" />
<path d="M37838 5282
L37838 5057
" />
<path d="M37838 5169
L37444 5169
L37500 5132
L37538 5094
L37556 5057
" />
<path d="M33150 4307
L32756 4307
L32756 4401
L32775 4457
L32813 4494
L32850 4513
L32925 4532
L32981 4532
L33056 4513
L33094 4494
L33131 4457
L33150 4401
L33150 4307
" />
<path d="M32794 4682
L32775 4700
L32756 4738
L32756 4832
L32775 4869
L32794 4888
L32831 4907
L32869 4907
L32925 4888
L33150 4663
L33150 4907
" />
<path d="M32756 5150
L32756 5188
L32775 5225
L32794 5244
L32831 5263
L32906 5282
L33000 5282
L33075 5263
L33113 5244
L33131 5225
L33150 5188
L33150 5150
L33131 5113
L33113 5094
L33075 5075
L33000 5057
L32906 5057
L32831 5075
L32794 5094
L32775 5113
L32756 5150
" />
<path d="M74400 3369
L74006 3369
L74006 3463
L74025 3519
L74063 3557
L74100 3575
L74175 3594
L74231 3594
L74306 3575
L74344 3557
L74381 3519
L74400 3463
L74400 3369
" />
<path d="M74400 3969
L74400 3744
" />
<path d="M74400 3857
L74006 3857
L74063 3819
L74100 3782
L74119 3744
" />
<path d="M74400 4157
L74400 4232
L74381 4269
L74363 4288
L74306 4325
L74231 4344
L74081 4344
L74044 4325
L74025 4307
L74006 4269
L74006 4194
L74025 4157
L74044 4138
L74081 4119
L74175 4119
L74213 4138
L74231 4157
L74250 4194
L74250 4269
L74231 4307
L74213 4325
L74175 4344
" />
<path d="M69713 3369
L69319 3369
L69319 3463
L69338 3519
L69375 3557
L69413 3575
L69488 3594
L69544 3594
L69619 3575
L69656 3557
L69694 3519
L69713 3463
L69713 3369
" />
<path d="M69713 3969
L69713 3744
" />
<path d="M69713 3857
L69319 3857
L69375 3819
L69413 3782
L69431 3744
" />
<path d="M69488 4194
L69469 4157
L69450 4138
L69413 4119
L69394 4119
L69356 4138
L69338 4157
L69319 4194
L69319 4269
L69338 4307
L69356 4325
L69394 4344
L69413 4344
L69450 4325
L69469 4307
L69488 4269
L69488 4194
L69506 4157
L69525 4138
L69563 4119
L69638 4119
L69675 4138
L69694 4157
L69713 4194
L69713 4269
L69694 4307
L69675 4325
L69638 4344
L69563 4344
L69525 4325
L69506 4307
L69488 4269
" />
<path d="M65025 3369
L64631 3369
L64631 3463
L64650 3519
L64688 3557
L64725 3575
L64800 3594
L64856 3594
L64931 3575
L64969 3557
L65006 3519
L65025 3463
L65025 3369
" />
<path d="M65025 3969
L65025 3744
" />
<path d="M65025 3857
L64631 3857
L64688 3819
L64725 3782
L64744 3744
" />
<path d="M64631 4100
L64631 4363
L65025 4194
" />
<path d="M60338 3345
L59944 3345
L59944 3438
L59963 3495
L60000 3532
L60038 3551
L60113 3570
L60169 3570
L60244 3551
L60281 3532
L60319 3495
L60338 3438
L60338 3345
" />
<path d="M60338 3945
L60338 3720
" />
<path d="M60338 3832
L59944 3832
L60000 3795
L60038 3757
L60056 3720
" />
<path d="M59944 4282
L59944 4207
L59963 4170
L59981 4151
L60038 4113
L60113 4095
L60263 4095
L60300 4113
L60319 4132
L60338 4170
L60338 4245
L60319 4282
L60300 4301
L60263 4320
L60169 4320
L60131 4301
L60113 4282
L60094 4245
L60094 4170
L60113 4132
L60131 4113
L60169 4095
" />
<path d="M55650 3369
L55256 3369
L55256 3463
L55275 3519
L55313 3557
L55350 3575
L55425 3594
L55481 3594
L55556 3575
L55594 3557
L55631 3519
L55650 3463
L55650 3369
" />
<path d="M55650 3969
L55650 3744
" />
<path d="M55650 3857
L55256 3857
L55313 3819
L55350 3782
L55369 3744
" />
<path d="M55256 4325
L55256 4138
L55444 4119
L55425 4138
L55406 4175
L55406 4269
L55425 4307
L55444 4325
L55481 4344
L55575 4344
L55613 4325
L55631 4307
L55650 4269
L55650 4175
L55631 4138
L55613 4119
" />
<path d="M50963 3369
L50569 3369
L50569 3463
L50588 3519
L50625 3557
L50663 3575
L50738 3594
L50794 3594
L50869 3575
L50906 3557
L50944 3519
L50963 3463
L50963 3369
" />
<path d="M50963 3969
L50963 3744
" />
<path d="M50963 3857
L50569 3857
L50625 3819
L50663 3782
L50681 3744
" />
<path d="M50700 4307
L50963 4307
" />
<path d="M50550 4213
L50831 4119
L50831 4363
" />
<path d="M46275 3369
L45881 3369
L45881 3463
L45900 3519
L45938 3557
L45975 3575
L46050 3594
L46106 3594
L46181 3575
L46219 3557
L46256 3519
L46275 3463
L46275 3369
" />
<path d="M46275 3969
L46275 3744
" />
<path d="M46275 3857
L45881 3857
L45938 3819
L45975 3782
L45994 3744
" />
<path d="M45881 4100
L45881 4344
L46031 4213
L46031 4269
L46050 4307
L46069 4325
L46106 4344
L46200 4344
L46238 4325
L46256 4307
L46275 4269
L46275 4157
L46256 4119
L46238 4100
" />
<path d="M41588 3369
L41194 3369
L41194 3463
L41213 3519
L41250 3557
L41288 3575
L41363 3594
L41419 3594
L41494 3575
L41531 3557
L41569 3519
L41588 3463
L41588 3369
" />
<path d="M41588 3969
L41588 3744
" />
<path d="M41588 3857
L41194 3857
L41250 3819
L41288 3782
L41306 3744
" />
<path d="M41231 4119
L41213 4138
L41194 4175
L41194 4269
L41213 4307
L41231 4325
L41269 4344
L41306 4344
L41363 4325
L41588 4100
L41588 4344
" />
<path d="M36900 3369
L36506 3369
L36506 3463
L36525 3519
L36563 3557
L36600 3575
L36675 3594
L36731 3594
L36806 3575
L36844 3557
L36881 3519
L36900 3463
L36900 3369
" />
<path d="M36900 3969
L36900 3744
" />
<path d="M36900 3857
L36506 3857
L36563 3819
L36600 3782
L36619 3744
" />
<path d="M36900 4344
L36900 4119
" />
<path d="M36900 4232
L36506 4232
L36563 4194
L36600 4157
L36619 4119
" />
<path d="M32213 3369
L31819 3369
L31819 3463
L31838 3519
L31875 3557
L31913 3575
L31988 3594
L32044 3594
L32119 3575
L32156 3557
L32194 3519
L32213 3463
L32213 3369
" />
<path d="M32213 3969
L32213 3744
" />
<path d="M32213 3857
L31819 3857
L31875 3819
L31913 3782
L31931 3744
" />
<path d="M31819 4213
L31819 4250
L31838 4288
L31856 4307
L31894 4325
L31969 4344
L32063 4344
L32138 4325
L32175 4307
L32194 4288
L32213 4250
L32213 4213
L32194 4175
L32175 4157
L32138 4138
L32063 4119
L31969 4119
L31894 4138
L31856 4157
L31838 4175
L31819 4213
" />
<path d="M73463 2619
L73069 2619
L73069 2713
L73088 2769
L73125 2807
L73163 2825
L73238 2844
L73294 2844
L73369 2825
L73406 2807
L73444 2769
L73463 2713
L73463 2619
" />
<path d="M73463 3032
L73463 3107
L73444 3144
L73425 3163
L73369 3200
L73294 3219
L73144 3219
L73106 3200
L73088 3182
L73069 3144
L73069 3069
L73088 3032
L73106 3013
L73144 2994
L73238 2994
L73275 3013
L73294 3032
L73313 3069
L73313 3144
L73294 3182
L73275 3200
L73238 3219
" />
<path d="M68775 2619
L68381 2619
L68381 2713
L68400 2769
L68438 2807
L68475 2825
L68550 2844
L68606 2844
L68681 2825
L68719 2807
L68756 2769
L68775 2713
L68775 2619
" />
<path d="M68550 3069
L68531 3032
L68513 3013
L68475 2994
L68456 2994
L68419 3013
L68400 3032
L68381 3069
L68381 3144
L68400 3182
L68419 3200
L68456 3219
L68475 3219
L68513 3200
L68531 3182
L68550 3144
L68550 3069
L68569 3032
L68588 3013
L68625 2994
L68700 2994
L68738 3013
L68756 3032
L68775 3069
L68775 3144
L68756 3182
L68738 3200
L68700 3219
L68625 3219
L68588 3200
L68569 3182
L68550 3144
" />
<path d="M64088 2619
L63694 2619
L63694 2713
L63713 2769
L63750 2807
L63788 2825
L63863 2844
L63919 2844
L63994 2825
L64031 2807
L64069 2769
L64088 2713
L64088 2619
" />
<path d="M63694 2975
L63694 3238
L64088 3069
" />
<path d="M59400 2619
L59006 2619
L59006 2713
L59025 2769
L59063 2807
L59100 2825
L59175 2844
L59231 2844
L59306 2825
L59344 2807
L59381 2769
L59400 2713
L59400 2619
" />
<path d="M59006 3182
L59006 3107
L59025 3069
L59044 3050
L59100 3013
L59175 2994
L59325 2994
L59363 3013
L59381 3032
L59400 3069
L59400 3144
L59381 3182
L59363 3200
L59325 3219
L59231 3219
L59194 3200
L59175 3182
L59156 3144
L59156 3069
L59175 3032
L59194 3013
L59231 2994
" />
<path d="M54713 2619
L54319 2619
L54319 2713
L54338 2769
L54375 2807
L54413 2825
L54488 2844
L54544 2844
L54619 2825
L54656 2807
L54694 2769
L54713 2713
L54713 2619
" />
<path d="M54319 3200
L54319 3013
L54506 2994
L54488 3013
L54469 3050
L54469 3144
L54488 3182
L54506 3200
L54544 3219
L54638 3219
L54675 3200
L54694 3182
L54713 3144
L54713 3050
L54694 3013
L54675 2994
" />
<path d="M50025 2619
L49631 2619
L49631 2713
L49650 2769
L49688 2807
L49725 2825
L49800 2844
L49856 2844
L49931 2825
L49969 2807
L50006 2769
L50025 2713
L50025 2619
" />
<path d="M49763 3182
L50025 3182
" />
<path d="M49613 3088
L49894 2994
L49894 3238
" />
<path d="M45338 2619
L44944 2619
L44944 2713
L44963 2769
L45000 2807
L45038 2825
L45113 2844
L45169 2844
L45244 2825
L45281 2807
L45319 2769
L45338 2713
L45338 2619
" />
<path d="M44944 2975
L44944 3219
L45094 3088
L45094 3144
L45113 3182
L45131 3200
L45169 3219
L45263 3219
L45300 3200
L45319 3182
L45338 3144
L45338 3032
L45319 2994
L45300 2975
" />
<path d="M40650 2619
L40256 2619
L40256 2713
L40275 2769
L40313 2807
L40350 2825
L40425 2844
L40481 2844
L40556 2825
L40594 2807
L40631 2769
L40650 2713
L40650 2619
" />
<path d="M40294 2994
L40275 3013
L40256 3050
L40256 3144
L40275 3182
L40294 3200
L40331 3219
L40369 3219
L40425 3200
L40650 2975
L40650 3219
" />
<path d="M35963 2619
L35569 2619
L35569 2713
L35588 2769
L35625 2807
L35663 2825
L35738 2844
L35794 2844
L35869 2825
L35906 2807
L35944 2769
L35963 2713
L35963 2619
" />
<path d="M35963 3219
L35963 2994
" />
<path d="M35963 3107
L35569 3107
L35625 3069
L35663 3032
L35681 2994
" />
<path d="M31275 2595
L30881 2595
L30881 2688
L30900 2745
L30938 2782
L30975 2801
L31050 2820
L31106 2820
L31181 2801
L31219 2782
L31256 2745
L31275 2688
L31275 2595
" />
<path d="M30881 3063
L30881 3101
L30900 3138
L30919 3157
L30956 3176
L31031 3195
L31125 3195
L31200 3176
L31238 3157
L31256 3138
L31275 3101
L31275 3063
L31256 3026
L31238 3007
L31200 2988
L31125 2970
L31031 2970
L30956 2988
L30919 3007
L30900 3026
L30881 3063
" />
<path d="M127771 31063
L127790 31082
L127846 31100
L127884 31100
L127940 31082
L127978 31044
L127996 31007
L128015 30932
L128015 30875
L127996 30800
L127978 30763
L127940 30725
L127884 30707
L127846 30707
L127790 30725
L127771 30744
" />
<path d="M127640 30707
L127378 30707
L127546 31100
" />
<path d="M131479 29764
L131497 29782
L131553 29801
L131591 29801
L131647 29782
L131685 29745
L131703 29707
L131722 29632
L131722 29576
L131703 29501
L131685 29464
L131647 29426
L131591 29408
L131553 29408
L131497 29426
L131479 29445
" />
<path d="M131141 29408
L131216 29408
L131254 29426
L131272 29445
L131310 29501
L131329 29576
L131329 29726
L131310 29764
L131291 29782
L131254 29801
L131179 29801
L131141 29782
L131122 29764
L131104 29726
L131104 29632
L131122 29595
L131141 29576
L131179 29558
L131254 29558
L131291 29576
L131310 29595
L131329 29632
" />
<path d="M134000 24861
L134018 24842
L134037 24786
L134037 24748
L134018 24692
L133981 24654
L133943 24636
L133868 24617
L133812 24617
L133737 24636
L133700 24654
L133662 24692
L133643 24748
L133643 24786
L133662 24842
L133681 24861
" />
<path d="M133643 25217
L133643 25029
L133831 25011
L133812 25029
L133793 25067
L133793 25161
L133812 25198
L133831 25217
L133868 25236
L133962 25236
L134000 25217
L134018 25198
L134037 25161
L134037 25067
L134018 25029
L134000 25011
" />
<path d="M127150 23711
L127168 23692
L127187 23636
L127187 23598
L127168 23542
L127131 23504
L127093 23486
L127018 23467
L126962 23467
L126887 23486
L126850 23504
L126812 23542
L126793 23598
L126793 23636
L126812 23692
L126831 23711
" />
<path d="M126925 24048
L127187 24048
" />
<path d="M126775 23954
L127056 23861
L127056 24104
" />
<path d="M125529 26164
L125547 26182
L125603 26201
L125641 26201
L125697 26182
L125735 26145
L125753 26107
L125772 26032
L125772 25976
L125753 25901
L125735 25864
L125697 25826
L125641 25808
L125603 25808
L125547 25826
L125529 25845
" />
<path d="M125397 25808
L125154 25808
L125285 25958
L125229 25958
L125191 25976
L125172 25995
L125154 26032
L125154 26126
L125172 26164
L125191 26182
L125229 26201
L125341 26201
L125379 26182
L125397 26164
" />
<path d="M127050 21957
L127069 21938
L127088 21882
L127088 21845
L127069 21788
L127032 21751
L126994 21732
L126919 21713
L126863 21713
L126788 21732
L126750 21751
L126713 21788
L126694 21845
L126694 21882
L126713 21938
L126732 21957
" />
<path d="M126732 22107
L126713 22126
L126694 22163
L126694 22257
L126713 22295
L126732 22313
L126769 22332
L126807 22332
L126863 22313
L127088 22088
L127088 22332
" />
<path d="M132200 21957
L132218 21938
L132237 21882
L132237 21845
L132218 21788
L132181 21751
L132143 21732
L132068 21713
L132012 21713
L131937 21732
L131900 21751
L131862 21788
L131843 21845
L131843 21882
L131862 21938
L131881 21957
" />
<path d="M132237 22332
L132237 22107
" />
<path d="M132237 22220
L131843 22220
L131900 22182
L131937 22145
L131956 22107
" />
<g >
</g>
</g>
<g style="fill:#000000; fill-opacity:0.0; 
stroke:#000000; stroke-width:59.0551; stroke-opacity:1; 
stroke-linecap:round; stroke-linejoin:round;">
</g>
<g style="fill:#C2C200; fill-opacity:0.0; 
stroke:#C2C200; stroke-width:59.0551; stroke-opacity:1; 
stroke-linecap:round; stroke-linejoin:round;">
</g>
<g style="fill:#C2C200; fill-opacity:0.0; 
stroke:#C2C200; stroke-width:19.685; stroke-opacity:1; 
stroke-linecap:round; stroke-linejoin:round;">
<path d="M134384 1635
L134697 1635
" />
<path d="M134384 51323
L134697 51323
" />
<path d="M135634 50385
L135634 49135
" />
<path d="M947 51323
L134384 51323
" />
<path d="M9 49135
L9 50385
" />
<path d="M9 2573
L9 49135
" />
<path d="M134384 1635
L947 1635
" />
<path d="M135634 49135
L135634 2573
" />
<path d="M9.84291 50385.7 A937.5 937.5 0.0 0 0 947.343 51323.2 " />
<path d="M947.343 1635.73 A937.5 937.5 0.0 0 0 9.84291 2573.23 " />
<path d="M134697 51323.2 A937.5 937.5 0.0 0 0 135635 50385.7 " />
<path d="M135635 2573.23 A937.5 937.5 0.0 0 0 134697 1635.73 " />
<g >
</g>
<g >
</g>
<g >
</g>
<g >
</g>
<g >
</g>
<g >
</g>
<g >
</g>
<g >
</g>
<g >
</g>
<g >
</g>
<g >
</g>
<g >
</g>
<g >
</g>
<g >
</g>
<g >
</g>
<g >
</g>
<g >
</g>
<g >
</g>
<g >
</g>
<g >
</g>
<g >
</g>
<g >
</g>
<g >
</g>
<g >
</g>
<g >
</g>
<g >
</g>
<g >
</g>
<g >
</g>
<g >
</g>
<g >
</g>
<g >
</g>
<g >
</g>
<g >
</g>
<g >
</g>
<g >
</g>
<g >
</g>
<g >
</g>
<g >
</g>
<g >
</g>
<g >
</g>
<g >
</g>
<g >
</g>
<g >
</g>
<g >
</g>
<g >
</g>
<g >
</g>
<g >
</g>
<g >
</g>
<g >
</g>
<g >
</g>
<g >
</g>
<g >
</g>
<g >
</g>
<g >
</g>
<g >
</g>
<g >
</g>
<g >
</g>
<g >
</g>
<g >
</g>
<g >
</g>
<g >
</g>
<g >
</g>
<g >
</g>
<g >
</g>
<g >
</g>
<g >
</g>
<g >
</g>
<g >
</g>
<g >
</g>
<g >
</g>
<g >
</g>
<g >
</g>
<g >
</g>
<g >
</g>
<g >
</g>
<g >
</g>
<g >
</g>
<g >
</g>
<g >
</g>
<g >
</g>
<g >
</g>
<g >
</g>
<g >
</g>
<g >
</g>
<g >
</g>
<g >
</g>
<g >
</g>
<g >
</g>
<g >
</g>
<g >
</g>
<g >
</g>
<g >
</g>
<g >
</g>
<g >
</g>
<g >
</g>
<g >
</g>
<g >
</g>
<g >
</g>
<g >
</g>
<g >
</g>
<g >
</g>
<g >
</g>
<g >
</g>
<g >
</g>
<g >
</g>
<g >
</g>
<g >
</g>
<g >
</g>
<g >
</g>
<g >
</g>
<g >
</g>
<g >
</g>
<g >
</g>
<g >
</g>
<g >
</g>
<g >
</g>
<g >
</g>
<g >
</g>
<g >
</g>
<g >
</g>
<g >
</g>
<g >
</g>
<g >
</g>
<g >
</g>
<g >
</g>
<g >
</g>
<g >
</g>
<g >
</g>
<g >
</g>
<g >
</g>
<g >
</g>
<g >
</g>
<g >
</g>
<g >
</g>
<g >
</g>
<g >
</g>
<g >
</g>
<g >
</g>
<g >
</g>
<g >
</g>
<g >
</g>
<g >
</g>
<g >
</g>
<g >
</g>
<g >
</g>
<g >
</g>
<g >
</g>
<g >
</g>
<g >
</g>
<g >
</g>
<g >
</g>
<g >
</g>
<g >
</g>
<g >
</g>
<g >
</g>
<g >
</g>
<g >
</g>
<g >
</g>
<g >
</g>
<g >
</g>
<g >
</g>
<g >
</g>
<g >
</g>
<g >
</g>
<g >
</g>
<g >
</g>
<g >
</g>
<g >
</g>
</g> 
</svg>
