G04 #@! TF.GenerationSoftware,KiCad,Pcbnew,(5.1.4)-1*
G04 #@! TF.CreationDate,2019-11-10T23:30:46-05:00*
G04 #@! TF.ProjectId,END67vOutFirst,454e4436-3776-44f7-9574-46697273742e,rev?*
G04 #@! TF.SameCoordinates,Original*
G04 #@! TF.FileFunction,Legend,Top*
G04 #@! TF.FilePolarity,Positive*
%FSLAX46Y46*%
G04 Gerber Fmt 4.6, Leading zero omitted, Abs format (unit mm)*
G04 Created by KiCad (PCBNEW (5.1.4)-1) date 2019-11-10 23:30:46*
%MOMM*%
%LPD*%
G04 APERTURE LIST*
%ADD10C,0.010000*%
%ADD11C,3.602000*%
%ADD12C,1.852000*%
%ADD13C,4.089800*%
%ADD14O,1.802000X2.802000*%
%ADD15C,3.150000*%
G04 APERTURE END LIST*
D10*
G36*
X73089526Y-192918291D02*
G01*
X73090553Y-193833750D01*
X71210985Y-200199386D01*
X69331416Y-206565023D01*
X68244330Y-206565261D01*
X67157244Y-206565500D01*
X67171622Y-206507291D01*
X67178764Y-206482552D01*
X67197546Y-206418815D01*
X67227502Y-206317649D01*
X67268165Y-206180621D01*
X67319068Y-206009299D01*
X67379743Y-205805251D01*
X67449724Y-205570044D01*
X67528544Y-205305247D01*
X67615735Y-205012426D01*
X67710831Y-204693151D01*
X67813365Y-204348988D01*
X67922869Y-203981505D01*
X68038876Y-203592270D01*
X68160920Y-203182851D01*
X68288534Y-202754815D01*
X68421250Y-202309730D01*
X68558601Y-201849164D01*
X68700120Y-201374685D01*
X68845341Y-200887861D01*
X68993797Y-200390258D01*
X69047167Y-200211385D01*
X69196488Y-199710896D01*
X69342657Y-199220901D01*
X69485210Y-198742952D01*
X69623685Y-198278601D01*
X69757621Y-197829402D01*
X69886554Y-197396905D01*
X70010023Y-196982664D01*
X70127565Y-196588231D01*
X70238718Y-196215158D01*
X70343019Y-195864997D01*
X70440007Y-195539301D01*
X70529218Y-195239621D01*
X70610192Y-194967511D01*
X70682464Y-194724523D01*
X70745574Y-194512208D01*
X70799059Y-194332119D01*
X70842456Y-194185809D01*
X70875304Y-194074829D01*
X70897139Y-194000732D01*
X70907500Y-193965071D01*
X70908333Y-193961927D01*
X70887673Y-193960169D01*
X70827717Y-193958492D01*
X70731505Y-193956913D01*
X70602074Y-193955452D01*
X70442462Y-193954129D01*
X70255707Y-193952963D01*
X70044849Y-193951974D01*
X69812924Y-193951181D01*
X69562971Y-193950602D01*
X69298029Y-193950259D01*
X69066833Y-193950166D01*
X67225333Y-193950166D01*
X67225333Y-196045666D01*
X65172166Y-196045666D01*
X65172166Y-192002833D01*
X73088500Y-192002833D01*
X73089526Y-192918291D01*
X73089526Y-192918291D01*
G37*
X73089526Y-192918291D02*
X73090553Y-193833750D01*
X71210985Y-200199386D01*
X69331416Y-206565023D01*
X68244330Y-206565261D01*
X67157244Y-206565500D01*
X67171622Y-206507291D01*
X67178764Y-206482552D01*
X67197546Y-206418815D01*
X67227502Y-206317649D01*
X67268165Y-206180621D01*
X67319068Y-206009299D01*
X67379743Y-205805251D01*
X67449724Y-205570044D01*
X67528544Y-205305247D01*
X67615735Y-205012426D01*
X67710831Y-204693151D01*
X67813365Y-204348988D01*
X67922869Y-203981505D01*
X68038876Y-203592270D01*
X68160920Y-203182851D01*
X68288534Y-202754815D01*
X68421250Y-202309730D01*
X68558601Y-201849164D01*
X68700120Y-201374685D01*
X68845341Y-200887861D01*
X68993797Y-200390258D01*
X69047167Y-200211385D01*
X69196488Y-199710896D01*
X69342657Y-199220901D01*
X69485210Y-198742952D01*
X69623685Y-198278601D01*
X69757621Y-197829402D01*
X69886554Y-197396905D01*
X70010023Y-196982664D01*
X70127565Y-196588231D01*
X70238718Y-196215158D01*
X70343019Y-195864997D01*
X70440007Y-195539301D01*
X70529218Y-195239621D01*
X70610192Y-194967511D01*
X70682464Y-194724523D01*
X70745574Y-194512208D01*
X70799059Y-194332119D01*
X70842456Y-194185809D01*
X70875304Y-194074829D01*
X70897139Y-194000732D01*
X70907500Y-193965071D01*
X70908333Y-193961927D01*
X70887673Y-193960169D01*
X70827717Y-193958492D01*
X70731505Y-193956913D01*
X70602074Y-193955452D01*
X70442462Y-193954129D01*
X70255707Y-193952963D01*
X70044849Y-193951974D01*
X69812924Y-193951181D01*
X69562971Y-193950602D01*
X69298029Y-193950259D01*
X69066833Y-193950166D01*
X67225333Y-193950166D01*
X67225333Y-196045666D01*
X65172166Y-196045666D01*
X65172166Y-192002833D01*
X73088500Y-192002833D01*
X73089526Y-192918291D01*
G36*
X52086489Y-192081428D02*
G01*
X52507044Y-192162352D01*
X52901460Y-192271011D01*
X53277933Y-192410566D01*
X53644654Y-192584179D01*
X54009820Y-192795013D01*
X54121276Y-192866641D01*
X54401925Y-193066645D01*
X54682813Y-193298479D01*
X54968889Y-193566278D01*
X55022750Y-193620066D01*
X55371683Y-194001372D01*
X55694029Y-194414184D01*
X55988636Y-194856168D01*
X56254351Y-195324992D01*
X56490023Y-195818321D01*
X56694500Y-196333822D01*
X56866631Y-196869161D01*
X57005262Y-197422004D01*
X57074686Y-197777113D01*
X57109186Y-197981931D01*
X57137028Y-198166246D01*
X57158875Y-198338614D01*
X57175392Y-198507591D01*
X57187243Y-198681733D01*
X57195092Y-198869596D01*
X57199605Y-199079734D01*
X57201445Y-199320704D01*
X57201580Y-199411166D01*
X57200750Y-199657154D01*
X57197676Y-199869426D01*
X57191720Y-200056571D01*
X57182245Y-200227176D01*
X57168610Y-200389829D01*
X57150180Y-200553118D01*
X57126315Y-200725630D01*
X57096377Y-200915954D01*
X57084393Y-200988083D01*
X56967101Y-201568477D01*
X56813252Y-202132310D01*
X56623676Y-202677671D01*
X56399205Y-203202649D01*
X56140671Y-203705332D01*
X55848905Y-204183807D01*
X55524738Y-204636164D01*
X55464009Y-204713416D01*
X55351633Y-204847506D01*
X55217510Y-204996445D01*
X55070013Y-205151763D01*
X54917516Y-205304985D01*
X54768393Y-205447639D01*
X54631017Y-205571252D01*
X54546500Y-205641778D01*
X54193606Y-205901903D01*
X53824007Y-206132770D01*
X53443561Y-206331353D01*
X53058127Y-206494624D01*
X52673563Y-206619557D01*
X52632643Y-206630546D01*
X52398083Y-206692230D01*
X51292125Y-206692365D01*
X50186166Y-206692500D01*
X50186166Y-199370259D01*
X51731333Y-199370259D01*
X51731342Y-199964770D01*
X51731374Y-200518397D01*
X51731438Y-201032588D01*
X51731545Y-201508792D01*
X51731701Y-201948458D01*
X51731918Y-202353035D01*
X51732203Y-202723972D01*
X51732566Y-203062716D01*
X51733015Y-203370718D01*
X51733560Y-203649426D01*
X51734210Y-203900289D01*
X51734974Y-204124755D01*
X51735861Y-204324274D01*
X51736879Y-204500294D01*
X51738039Y-204654265D01*
X51739348Y-204787634D01*
X51740816Y-204901850D01*
X51742453Y-204998364D01*
X51744267Y-205078622D01*
X51746266Y-205144075D01*
X51748461Y-205196171D01*
X51750860Y-205236359D01*
X51753472Y-205266087D01*
X51756307Y-205286805D01*
X51759373Y-205299961D01*
X51762679Y-205307004D01*
X51766234Y-205309382D01*
X51768375Y-205309207D01*
X51803984Y-205299129D01*
X51869359Y-205280487D01*
X51953577Y-205256399D01*
X52006500Y-205241234D01*
X52404599Y-205105595D01*
X52795104Y-204929896D01*
X53174605Y-204716202D01*
X53539694Y-204466579D01*
X53886961Y-204183092D01*
X54126479Y-203956728D01*
X54460883Y-203590972D01*
X54762792Y-203198507D01*
X55031787Y-202780251D01*
X55267447Y-202337120D01*
X55469355Y-201870033D01*
X55637091Y-201379907D01*
X55770236Y-200867660D01*
X55868370Y-200334209D01*
X55903322Y-200067333D01*
X55915117Y-199927764D01*
X55923111Y-199755997D01*
X55927381Y-199561987D01*
X55928002Y-199355691D01*
X55925051Y-199147066D01*
X55918604Y-198946068D01*
X55908736Y-198762654D01*
X55895524Y-198606781D01*
X55891925Y-198575083D01*
X55810538Y-198055762D01*
X55694093Y-197552659D01*
X55543668Y-197067634D01*
X55360339Y-196602547D01*
X55145183Y-196159259D01*
X54899277Y-195739629D01*
X54623698Y-195345518D01*
X54319524Y-194978787D01*
X53987830Y-194641295D01*
X53629694Y-194334904D01*
X53299087Y-194096181D01*
X53002699Y-193915705D01*
X52685325Y-193752676D01*
X52359630Y-193612885D01*
X52038275Y-193502122D01*
X51937123Y-193473404D01*
X51852695Y-193450918D01*
X51785468Y-193433266D01*
X51744617Y-193422842D01*
X51736625Y-193421053D01*
X51736181Y-193441933D01*
X51735747Y-193503457D01*
X51735324Y-193603933D01*
X51734915Y-193741672D01*
X51734519Y-193914983D01*
X51734140Y-194122175D01*
X51733778Y-194361560D01*
X51733435Y-194631445D01*
X51733112Y-194930142D01*
X51732811Y-195255960D01*
X51732534Y-195607208D01*
X51732281Y-195982196D01*
X51732055Y-196379234D01*
X51731857Y-196796631D01*
X51731688Y-197232698D01*
X51731550Y-197685744D01*
X51731445Y-198154079D01*
X51731373Y-198636012D01*
X51731337Y-199129853D01*
X51731333Y-199370259D01*
X50186166Y-199370259D01*
X50186166Y-198940519D01*
X51076719Y-195614551D01*
X51175104Y-195247155D01*
X51270818Y-194889815D01*
X51363260Y-194544771D01*
X51451830Y-194214264D01*
X51535926Y-193900532D01*
X51614947Y-193605818D01*
X51688292Y-193332361D01*
X51755360Y-193082401D01*
X51815550Y-192858180D01*
X51868261Y-192661937D01*
X51912892Y-192495912D01*
X51948841Y-192362346D01*
X51975508Y-192263480D01*
X51992291Y-192201553D01*
X51998084Y-192180511D01*
X52017867Y-192117873D01*
X52036184Y-192087107D01*
X52061348Y-192078899D01*
X52086489Y-192081428D01*
X52086489Y-192081428D01*
G37*
X52086489Y-192081428D02*
X52507044Y-192162352D01*
X52901460Y-192271011D01*
X53277933Y-192410566D01*
X53644654Y-192584179D01*
X54009820Y-192795013D01*
X54121276Y-192866641D01*
X54401925Y-193066645D01*
X54682813Y-193298479D01*
X54968889Y-193566278D01*
X55022750Y-193620066D01*
X55371683Y-194001372D01*
X55694029Y-194414184D01*
X55988636Y-194856168D01*
X56254351Y-195324992D01*
X56490023Y-195818321D01*
X56694500Y-196333822D01*
X56866631Y-196869161D01*
X57005262Y-197422004D01*
X57074686Y-197777113D01*
X57109186Y-197981931D01*
X57137028Y-198166246D01*
X57158875Y-198338614D01*
X57175392Y-198507591D01*
X57187243Y-198681733D01*
X57195092Y-198869596D01*
X57199605Y-199079734D01*
X57201445Y-199320704D01*
X57201580Y-199411166D01*
X57200750Y-199657154D01*
X57197676Y-199869426D01*
X57191720Y-200056571D01*
X57182245Y-200227176D01*
X57168610Y-200389829D01*
X57150180Y-200553118D01*
X57126315Y-200725630D01*
X57096377Y-200915954D01*
X57084393Y-200988083D01*
X56967101Y-201568477D01*
X56813252Y-202132310D01*
X56623676Y-202677671D01*
X56399205Y-203202649D01*
X56140671Y-203705332D01*
X55848905Y-204183807D01*
X55524738Y-204636164D01*
X55464009Y-204713416D01*
X55351633Y-204847506D01*
X55217510Y-204996445D01*
X55070013Y-205151763D01*
X54917516Y-205304985D01*
X54768393Y-205447639D01*
X54631017Y-205571252D01*
X54546500Y-205641778D01*
X54193606Y-205901903D01*
X53824007Y-206132770D01*
X53443561Y-206331353D01*
X53058127Y-206494624D01*
X52673563Y-206619557D01*
X52632643Y-206630546D01*
X52398083Y-206692230D01*
X51292125Y-206692365D01*
X50186166Y-206692500D01*
X50186166Y-199370259D01*
X51731333Y-199370259D01*
X51731342Y-199964770D01*
X51731374Y-200518397D01*
X51731438Y-201032588D01*
X51731545Y-201508792D01*
X51731701Y-201948458D01*
X51731918Y-202353035D01*
X51732203Y-202723972D01*
X51732566Y-203062716D01*
X51733015Y-203370718D01*
X51733560Y-203649426D01*
X51734210Y-203900289D01*
X51734974Y-204124755D01*
X51735861Y-204324274D01*
X51736879Y-204500294D01*
X51738039Y-204654265D01*
X51739348Y-204787634D01*
X51740816Y-204901850D01*
X51742453Y-204998364D01*
X51744267Y-205078622D01*
X51746266Y-205144075D01*
X51748461Y-205196171D01*
X51750860Y-205236359D01*
X51753472Y-205266087D01*
X51756307Y-205286805D01*
X51759373Y-205299961D01*
X51762679Y-205307004D01*
X51766234Y-205309382D01*
X51768375Y-205309207D01*
X51803984Y-205299129D01*
X51869359Y-205280487D01*
X51953577Y-205256399D01*
X52006500Y-205241234D01*
X52404599Y-205105595D01*
X52795104Y-204929896D01*
X53174605Y-204716202D01*
X53539694Y-204466579D01*
X53886961Y-204183092D01*
X54126479Y-203956728D01*
X54460883Y-203590972D01*
X54762792Y-203198507D01*
X55031787Y-202780251D01*
X55267447Y-202337120D01*
X55469355Y-201870033D01*
X55637091Y-201379907D01*
X55770236Y-200867660D01*
X55868370Y-200334209D01*
X55903322Y-200067333D01*
X55915117Y-199927764D01*
X55923111Y-199755997D01*
X55927381Y-199561987D01*
X55928002Y-199355691D01*
X55925051Y-199147066D01*
X55918604Y-198946068D01*
X55908736Y-198762654D01*
X55895524Y-198606781D01*
X55891925Y-198575083D01*
X55810538Y-198055762D01*
X55694093Y-197552659D01*
X55543668Y-197067634D01*
X55360339Y-196602547D01*
X55145183Y-196159259D01*
X54899277Y-195739629D01*
X54623698Y-195345518D01*
X54319524Y-194978787D01*
X53987830Y-194641295D01*
X53629694Y-194334904D01*
X53299087Y-194096181D01*
X53002699Y-193915705D01*
X52685325Y-193752676D01*
X52359630Y-193612885D01*
X52038275Y-193502122D01*
X51937123Y-193473404D01*
X51852695Y-193450918D01*
X51785468Y-193433266D01*
X51744617Y-193422842D01*
X51736625Y-193421053D01*
X51736181Y-193441933D01*
X51735747Y-193503457D01*
X51735324Y-193603933D01*
X51734915Y-193741672D01*
X51734519Y-193914983D01*
X51734140Y-194122175D01*
X51733778Y-194361560D01*
X51733435Y-194631445D01*
X51733112Y-194930142D01*
X51732811Y-195255960D01*
X51732534Y-195607208D01*
X51732281Y-195982196D01*
X51732055Y-196379234D01*
X51731857Y-196796631D01*
X51731688Y-197232698D01*
X51731550Y-197685744D01*
X51731445Y-198154079D01*
X51731373Y-198636012D01*
X51731337Y-199129853D01*
X51731333Y-199370259D01*
X50186166Y-199370259D01*
X50186166Y-198940519D01*
X51076719Y-195614551D01*
X51175104Y-195247155D01*
X51270818Y-194889815D01*
X51363260Y-194544771D01*
X51451830Y-194214264D01*
X51535926Y-193900532D01*
X51614947Y-193605818D01*
X51688292Y-193332361D01*
X51755360Y-193082401D01*
X51815550Y-192858180D01*
X51868261Y-192661937D01*
X51912892Y-192495912D01*
X51948841Y-192362346D01*
X51975508Y-192263480D01*
X51992291Y-192201553D01*
X51998084Y-192180511D01*
X52017867Y-192117873D01*
X52036184Y-192087107D01*
X52061348Y-192078899D01*
X52086489Y-192081428D01*
G36*
X51114036Y-192066761D02*
G01*
X51299253Y-192068084D01*
X51446085Y-192070359D01*
X51556501Y-192073643D01*
X51632472Y-192077995D01*
X51675966Y-192083472D01*
X51689000Y-192089724D01*
X51683604Y-192113777D01*
X51667932Y-192175817D01*
X51642757Y-192272965D01*
X51608852Y-192402343D01*
X51566989Y-192561071D01*
X51517942Y-192746269D01*
X51462483Y-192955061D01*
X51401386Y-193184565D01*
X51335424Y-193431904D01*
X51265368Y-193694199D01*
X51191993Y-193968569D01*
X51116071Y-194252138D01*
X51038375Y-194542025D01*
X50959678Y-194835352D01*
X50880753Y-195129239D01*
X50802373Y-195420808D01*
X50725311Y-195707180D01*
X50650339Y-195985476D01*
X50578231Y-196252817D01*
X50509760Y-196506324D01*
X50445698Y-196743118D01*
X50386818Y-196960319D01*
X50333894Y-197155050D01*
X50287699Y-197324431D01*
X50249004Y-197465584D01*
X50218584Y-197575628D01*
X50197210Y-197651686D01*
X50185657Y-197690878D01*
X50183962Y-197695582D01*
X50177295Y-197717964D01*
X50160302Y-197778975D01*
X50133592Y-197876350D01*
X50097770Y-198007828D01*
X50053444Y-198171145D01*
X50001220Y-198364039D01*
X49941707Y-198584248D01*
X49875511Y-198829508D01*
X49803238Y-199097556D01*
X49725497Y-199386131D01*
X49642894Y-199692969D01*
X49556035Y-200015807D01*
X49465529Y-200352383D01*
X49371982Y-200700435D01*
X49276002Y-201057699D01*
X49178194Y-201421912D01*
X49079167Y-201790813D01*
X48979527Y-202162138D01*
X48879882Y-202533624D01*
X48780838Y-202903009D01*
X48683002Y-203268030D01*
X48586982Y-203626425D01*
X48493385Y-203975930D01*
X48402817Y-204314283D01*
X48315885Y-204639221D01*
X48233198Y-204948482D01*
X48155361Y-205239802D01*
X48082981Y-205510920D01*
X48016667Y-205759572D01*
X47957024Y-205983495D01*
X47904660Y-206180427D01*
X47860182Y-206348106D01*
X47824197Y-206484268D01*
X47797312Y-206586650D01*
X47780134Y-206652991D01*
X47773270Y-206681026D01*
X47773166Y-206681759D01*
X47752743Y-206684091D01*
X47694447Y-206686249D01*
X47602738Y-206688176D01*
X47482076Y-206689817D01*
X47336921Y-206691116D01*
X47171734Y-206692016D01*
X46990975Y-206692461D01*
X46918705Y-206692500D01*
X46064245Y-206692500D01*
X46030582Y-206570791D01*
X46022277Y-206540140D01*
X46003472Y-206470305D01*
X45974624Y-206362990D01*
X45936191Y-206219903D01*
X45888629Y-206042749D01*
X45832397Y-205833233D01*
X45767952Y-205593061D01*
X45695751Y-205323940D01*
X45616252Y-205027575D01*
X45529913Y-204705671D01*
X45437191Y-204359936D01*
X45338543Y-203992074D01*
X45234428Y-203603791D01*
X45125302Y-203196793D01*
X45011623Y-202772786D01*
X44893849Y-202333476D01*
X44772437Y-201880569D01*
X44647845Y-201415770D01*
X44520530Y-200940785D01*
X44502004Y-200871666D01*
X44374736Y-200396881D01*
X44250319Y-199932812D01*
X44129198Y-199481118D01*
X44011819Y-199043459D01*
X43898628Y-198621494D01*
X43790069Y-198216880D01*
X43686589Y-197831278D01*
X43588633Y-197466347D01*
X43496647Y-197123744D01*
X43411076Y-196805130D01*
X43332366Y-196512164D01*
X43260962Y-196246503D01*
X43197310Y-196009808D01*
X43141856Y-195803737D01*
X43095045Y-195629949D01*
X43057322Y-195490104D01*
X43029134Y-195385860D01*
X43010926Y-195318876D01*
X43003143Y-195290811D01*
X43002880Y-195290016D01*
X42996955Y-195309325D01*
X42981013Y-195366549D01*
X42955855Y-195458674D01*
X42922285Y-195582688D01*
X42881106Y-195735578D01*
X42833120Y-195914331D01*
X42779129Y-196115935D01*
X42719937Y-196337376D01*
X42656346Y-196575643D01*
X42589159Y-196827721D01*
X42519179Y-197090599D01*
X42447208Y-197361264D01*
X42374049Y-197636703D01*
X42300504Y-197913902D01*
X42227377Y-198189850D01*
X42155470Y-198461534D01*
X42085586Y-198725940D01*
X42018528Y-198980057D01*
X41955097Y-199220870D01*
X41918975Y-199358250D01*
X41872455Y-199534402D01*
X41828700Y-199698365D01*
X41788992Y-199845460D01*
X41754613Y-199971008D01*
X41726846Y-200070331D01*
X41706975Y-200138750D01*
X41696282Y-200171586D01*
X41695542Y-200173166D01*
X41688210Y-200196848D01*
X41670727Y-200258895D01*
X41643776Y-200356747D01*
X41608042Y-200487845D01*
X41564206Y-200649631D01*
X41512952Y-200839545D01*
X41454964Y-201055028D01*
X41390924Y-201293522D01*
X41321516Y-201552467D01*
X41247423Y-201829303D01*
X41169328Y-202121473D01*
X41087915Y-202426417D01*
X41003867Y-202741576D01*
X40917866Y-203064391D01*
X40830597Y-203392302D01*
X40742742Y-203722752D01*
X40654985Y-204053180D01*
X40568008Y-204381028D01*
X40482496Y-204703737D01*
X40399131Y-205018747D01*
X40318597Y-205323500D01*
X40241576Y-205615436D01*
X40172544Y-205877583D01*
X40127427Y-206049068D01*
X40085454Y-206208558D01*
X40047907Y-206351189D01*
X40016065Y-206472098D01*
X39991212Y-206566418D01*
X39974626Y-206629288D01*
X39967694Y-206655458D01*
X39962759Y-206664960D01*
X39950922Y-206672690D01*
X39928196Y-206678829D01*
X39890597Y-206683559D01*
X39834141Y-206687060D01*
X39754841Y-206689515D01*
X39648715Y-206691105D01*
X39511776Y-206692011D01*
X39340040Y-206692415D01*
X39154438Y-206692500D01*
X38948748Y-206692403D01*
X38781508Y-206691991D01*
X38648837Y-206691084D01*
X38546851Y-206689499D01*
X38471669Y-206687055D01*
X38419407Y-206683570D01*
X38386184Y-206678864D01*
X38368116Y-206672754D01*
X38361322Y-206665059D01*
X38361919Y-206655598D01*
X38361959Y-206655458D01*
X38369736Y-206627140D01*
X38387152Y-206562703D01*
X38412924Y-206466927D01*
X38445769Y-206344593D01*
X38484403Y-206200480D01*
X38527543Y-206039370D01*
X38573905Y-205866043D01*
X38576478Y-205856416D01*
X38613343Y-205718575D01*
X38659937Y-205544457D01*
X38715024Y-205338676D01*
X38777368Y-205105843D01*
X38845735Y-204850571D01*
X38918888Y-204577473D01*
X38995592Y-204291161D01*
X39074611Y-203996248D01*
X39154711Y-203697346D01*
X39234655Y-203399068D01*
X39285179Y-203210583D01*
X39369932Y-202894384D01*
X39459663Y-202559542D01*
X39552640Y-202212528D01*
X39647129Y-201859812D01*
X39741397Y-201507865D01*
X39833713Y-201163157D01*
X39922342Y-200832159D01*
X40005552Y-200521340D01*
X40081609Y-200237171D01*
X40148782Y-199986123D01*
X40161031Y-199940333D01*
X40223956Y-199705155D01*
X40296250Y-199435074D01*
X40376309Y-199136073D01*
X40462530Y-198814135D01*
X40553309Y-198475244D01*
X40647045Y-198125384D01*
X40742134Y-197770538D01*
X40836973Y-197416690D01*
X40929959Y-197069823D01*
X41019488Y-196735920D01*
X41071204Y-196543083D01*
X41155557Y-196228500D01*
X41242669Y-195903493D01*
X41331137Y-195573307D01*
X41419557Y-195243185D01*
X41506525Y-194918369D01*
X41590638Y-194604104D01*
X41670493Y-194305632D01*
X41744686Y-194028198D01*
X41811813Y-193777044D01*
X41870472Y-193557415D01*
X41909696Y-193410416D01*
X41966875Y-193196169D01*
X42021639Y-192991275D01*
X42072859Y-192799937D01*
X42119407Y-192626357D01*
X42160155Y-192474737D01*
X42193973Y-192349278D01*
X42219733Y-192254184D01*
X42236306Y-192193654D01*
X42240854Y-192177458D01*
X42272837Y-192066333D01*
X43006876Y-192066516D01*
X43740916Y-192066699D01*
X45295779Y-197871474D01*
X45425933Y-198357341D01*
X45553428Y-198833220D01*
X45677819Y-199297443D01*
X45798657Y-199748342D01*
X45915496Y-200184250D01*
X46027888Y-200603500D01*
X46135385Y-201004425D01*
X46237540Y-201385357D01*
X46333906Y-201744628D01*
X46424035Y-202080571D01*
X46507481Y-202391520D01*
X46583795Y-202675806D01*
X46652531Y-202931762D01*
X46713240Y-203157720D01*
X46765476Y-203352014D01*
X46808792Y-203512976D01*
X46842739Y-203638939D01*
X46866870Y-203728234D01*
X46880739Y-203779196D01*
X46883788Y-203790136D01*
X46916934Y-203904023D01*
X48502430Y-197985178D01*
X50087927Y-192066333D01*
X50888463Y-192066333D01*
X51114036Y-192066761D01*
X51114036Y-192066761D01*
G37*
X51114036Y-192066761D02*
X51299253Y-192068084D01*
X51446085Y-192070359D01*
X51556501Y-192073643D01*
X51632472Y-192077995D01*
X51675966Y-192083472D01*
X51689000Y-192089724D01*
X51683604Y-192113777D01*
X51667932Y-192175817D01*
X51642757Y-192272965D01*
X51608852Y-192402343D01*
X51566989Y-192561071D01*
X51517942Y-192746269D01*
X51462483Y-192955061D01*
X51401386Y-193184565D01*
X51335424Y-193431904D01*
X51265368Y-193694199D01*
X51191993Y-193968569D01*
X51116071Y-194252138D01*
X51038375Y-194542025D01*
X50959678Y-194835352D01*
X50880753Y-195129239D01*
X50802373Y-195420808D01*
X50725311Y-195707180D01*
X50650339Y-195985476D01*
X50578231Y-196252817D01*
X50509760Y-196506324D01*
X50445698Y-196743118D01*
X50386818Y-196960319D01*
X50333894Y-197155050D01*
X50287699Y-197324431D01*
X50249004Y-197465584D01*
X50218584Y-197575628D01*
X50197210Y-197651686D01*
X50185657Y-197690878D01*
X50183962Y-197695582D01*
X50177295Y-197717964D01*
X50160302Y-197778975D01*
X50133592Y-197876350D01*
X50097770Y-198007828D01*
X50053444Y-198171145D01*
X50001220Y-198364039D01*
X49941707Y-198584248D01*
X49875511Y-198829508D01*
X49803238Y-199097556D01*
X49725497Y-199386131D01*
X49642894Y-199692969D01*
X49556035Y-200015807D01*
X49465529Y-200352383D01*
X49371982Y-200700435D01*
X49276002Y-201057699D01*
X49178194Y-201421912D01*
X49079167Y-201790813D01*
X48979527Y-202162138D01*
X48879882Y-202533624D01*
X48780838Y-202903009D01*
X48683002Y-203268030D01*
X48586982Y-203626425D01*
X48493385Y-203975930D01*
X48402817Y-204314283D01*
X48315885Y-204639221D01*
X48233198Y-204948482D01*
X48155361Y-205239802D01*
X48082981Y-205510920D01*
X48016667Y-205759572D01*
X47957024Y-205983495D01*
X47904660Y-206180427D01*
X47860182Y-206348106D01*
X47824197Y-206484268D01*
X47797312Y-206586650D01*
X47780134Y-206652991D01*
X47773270Y-206681026D01*
X47773166Y-206681759D01*
X47752743Y-206684091D01*
X47694447Y-206686249D01*
X47602738Y-206688176D01*
X47482076Y-206689817D01*
X47336921Y-206691116D01*
X47171734Y-206692016D01*
X46990975Y-206692461D01*
X46918705Y-206692500D01*
X46064245Y-206692500D01*
X46030582Y-206570791D01*
X46022277Y-206540140D01*
X46003472Y-206470305D01*
X45974624Y-206362990D01*
X45936191Y-206219903D01*
X45888629Y-206042749D01*
X45832397Y-205833233D01*
X45767952Y-205593061D01*
X45695751Y-205323940D01*
X45616252Y-205027575D01*
X45529913Y-204705671D01*
X45437191Y-204359936D01*
X45338543Y-203992074D01*
X45234428Y-203603791D01*
X45125302Y-203196793D01*
X45011623Y-202772786D01*
X44893849Y-202333476D01*
X44772437Y-201880569D01*
X44647845Y-201415770D01*
X44520530Y-200940785D01*
X44502004Y-200871666D01*
X44374736Y-200396881D01*
X44250319Y-199932812D01*
X44129198Y-199481118D01*
X44011819Y-199043459D01*
X43898628Y-198621494D01*
X43790069Y-198216880D01*
X43686589Y-197831278D01*
X43588633Y-197466347D01*
X43496647Y-197123744D01*
X43411076Y-196805130D01*
X43332366Y-196512164D01*
X43260962Y-196246503D01*
X43197310Y-196009808D01*
X43141856Y-195803737D01*
X43095045Y-195629949D01*
X43057322Y-195490104D01*
X43029134Y-195385860D01*
X43010926Y-195318876D01*
X43003143Y-195290811D01*
X43002880Y-195290016D01*
X42996955Y-195309325D01*
X42981013Y-195366549D01*
X42955855Y-195458674D01*
X42922285Y-195582688D01*
X42881106Y-195735578D01*
X42833120Y-195914331D01*
X42779129Y-196115935D01*
X42719937Y-196337376D01*
X42656346Y-196575643D01*
X42589159Y-196827721D01*
X42519179Y-197090599D01*
X42447208Y-197361264D01*
X42374049Y-197636703D01*
X42300504Y-197913902D01*
X42227377Y-198189850D01*
X42155470Y-198461534D01*
X42085586Y-198725940D01*
X42018528Y-198980057D01*
X41955097Y-199220870D01*
X41918975Y-199358250D01*
X41872455Y-199534402D01*
X41828700Y-199698365D01*
X41788992Y-199845460D01*
X41754613Y-199971008D01*
X41726846Y-200070331D01*
X41706975Y-200138750D01*
X41696282Y-200171586D01*
X41695542Y-200173166D01*
X41688210Y-200196848D01*
X41670727Y-200258895D01*
X41643776Y-200356747D01*
X41608042Y-200487845D01*
X41564206Y-200649631D01*
X41512952Y-200839545D01*
X41454964Y-201055028D01*
X41390924Y-201293522D01*
X41321516Y-201552467D01*
X41247423Y-201829303D01*
X41169328Y-202121473D01*
X41087915Y-202426417D01*
X41003867Y-202741576D01*
X40917866Y-203064391D01*
X40830597Y-203392302D01*
X40742742Y-203722752D01*
X40654985Y-204053180D01*
X40568008Y-204381028D01*
X40482496Y-204703737D01*
X40399131Y-205018747D01*
X40318597Y-205323500D01*
X40241576Y-205615436D01*
X40172544Y-205877583D01*
X40127427Y-206049068D01*
X40085454Y-206208558D01*
X40047907Y-206351189D01*
X40016065Y-206472098D01*
X39991212Y-206566418D01*
X39974626Y-206629288D01*
X39967694Y-206655458D01*
X39962759Y-206664960D01*
X39950922Y-206672690D01*
X39928196Y-206678829D01*
X39890597Y-206683559D01*
X39834141Y-206687060D01*
X39754841Y-206689515D01*
X39648715Y-206691105D01*
X39511776Y-206692011D01*
X39340040Y-206692415D01*
X39154438Y-206692500D01*
X38948748Y-206692403D01*
X38781508Y-206691991D01*
X38648837Y-206691084D01*
X38546851Y-206689499D01*
X38471669Y-206687055D01*
X38419407Y-206683570D01*
X38386184Y-206678864D01*
X38368116Y-206672754D01*
X38361322Y-206665059D01*
X38361919Y-206655598D01*
X38361959Y-206655458D01*
X38369736Y-206627140D01*
X38387152Y-206562703D01*
X38412924Y-206466927D01*
X38445769Y-206344593D01*
X38484403Y-206200480D01*
X38527543Y-206039370D01*
X38573905Y-205866043D01*
X38576478Y-205856416D01*
X38613343Y-205718575D01*
X38659937Y-205544457D01*
X38715024Y-205338676D01*
X38777368Y-205105843D01*
X38845735Y-204850571D01*
X38918888Y-204577473D01*
X38995592Y-204291161D01*
X39074611Y-203996248D01*
X39154711Y-203697346D01*
X39234655Y-203399068D01*
X39285179Y-203210583D01*
X39369932Y-202894384D01*
X39459663Y-202559542D01*
X39552640Y-202212528D01*
X39647129Y-201859812D01*
X39741397Y-201507865D01*
X39833713Y-201163157D01*
X39922342Y-200832159D01*
X40005552Y-200521340D01*
X40081609Y-200237171D01*
X40148782Y-199986123D01*
X40161031Y-199940333D01*
X40223956Y-199705155D01*
X40296250Y-199435074D01*
X40376309Y-199136073D01*
X40462530Y-198814135D01*
X40553309Y-198475244D01*
X40647045Y-198125384D01*
X40742134Y-197770538D01*
X40836973Y-197416690D01*
X40929959Y-197069823D01*
X41019488Y-196735920D01*
X41071204Y-196543083D01*
X41155557Y-196228500D01*
X41242669Y-195903493D01*
X41331137Y-195573307D01*
X41419557Y-195243185D01*
X41506525Y-194918369D01*
X41590638Y-194604104D01*
X41670493Y-194305632D01*
X41744686Y-194028198D01*
X41811813Y-193777044D01*
X41870472Y-193557415D01*
X41909696Y-193410416D01*
X41966875Y-193196169D01*
X42021639Y-192991275D01*
X42072859Y-192799937D01*
X42119407Y-192626357D01*
X42160155Y-192474737D01*
X42193973Y-192349278D01*
X42219733Y-192254184D01*
X42236306Y-192193654D01*
X42240854Y-192177458D01*
X42272837Y-192066333D01*
X43006876Y-192066516D01*
X43740916Y-192066699D01*
X45295779Y-197871474D01*
X45425933Y-198357341D01*
X45553428Y-198833220D01*
X45677819Y-199297443D01*
X45798657Y-199748342D01*
X45915496Y-200184250D01*
X46027888Y-200603500D01*
X46135385Y-201004425D01*
X46237540Y-201385357D01*
X46333906Y-201744628D01*
X46424035Y-202080571D01*
X46507481Y-202391520D01*
X46583795Y-202675806D01*
X46652531Y-202931762D01*
X46713240Y-203157720D01*
X46765476Y-203352014D01*
X46808792Y-203512976D01*
X46842739Y-203638939D01*
X46866870Y-203728234D01*
X46880739Y-203779196D01*
X46883788Y-203790136D01*
X46916934Y-203904023D01*
X48502430Y-197985178D01*
X50087927Y-192066333D01*
X50888463Y-192066333D01*
X51114036Y-192066761D01*
G36*
X39068752Y-192066431D02*
G01*
X39509326Y-192066730D01*
X39909539Y-192067236D01*
X40270380Y-192067957D01*
X40592834Y-192068899D01*
X40877888Y-192070068D01*
X41126529Y-192071473D01*
X41339743Y-192073118D01*
X41518517Y-192075012D01*
X41663838Y-192077161D01*
X41776692Y-192079571D01*
X41858065Y-192082250D01*
X41908945Y-192085204D01*
X41930317Y-192088440D01*
X41931166Y-192089275D01*
X41925906Y-192113647D01*
X41911133Y-192173189D01*
X41888356Y-192262200D01*
X41859084Y-192374976D01*
X41824827Y-192505815D01*
X41787094Y-192649015D01*
X41747395Y-192798874D01*
X41707240Y-192949689D01*
X41668137Y-193095757D01*
X41631596Y-193231376D01*
X41599126Y-193350843D01*
X41572238Y-193448457D01*
X41557646Y-193500375D01*
X41525996Y-193611500D01*
X36787666Y-193611500D01*
X36787666Y-198606582D01*
X40188160Y-198617416D01*
X39984127Y-199379416D01*
X39780095Y-200141416D01*
X38283880Y-200146850D01*
X36787666Y-200152283D01*
X36787666Y-205147333D01*
X37615431Y-205147333D01*
X37832202Y-205147596D01*
X38009850Y-205148453D01*
X38151581Y-205150010D01*
X38260602Y-205152368D01*
X38340121Y-205155633D01*
X38393344Y-205159907D01*
X38423478Y-205165295D01*
X38433730Y-205171900D01*
X38433549Y-205173791D01*
X38426045Y-205199701D01*
X38408944Y-205261771D01*
X38383530Y-205355248D01*
X38351086Y-205475382D01*
X38312894Y-205617421D01*
X38270239Y-205776613D01*
X38224909Y-205946308D01*
X38025916Y-206692367D01*
X36634208Y-206692433D01*
X35242500Y-206692500D01*
X35242500Y-192066333D01*
X38586833Y-192066333D01*
X39068752Y-192066431D01*
X39068752Y-192066431D01*
G37*
X39068752Y-192066431D02*
X39509326Y-192066730D01*
X39909539Y-192067236D01*
X40270380Y-192067957D01*
X40592834Y-192068899D01*
X40877888Y-192070068D01*
X41126529Y-192071473D01*
X41339743Y-192073118D01*
X41518517Y-192075012D01*
X41663838Y-192077161D01*
X41776692Y-192079571D01*
X41858065Y-192082250D01*
X41908945Y-192085204D01*
X41930317Y-192088440D01*
X41931166Y-192089275D01*
X41925906Y-192113647D01*
X41911133Y-192173189D01*
X41888356Y-192262200D01*
X41859084Y-192374976D01*
X41824827Y-192505815D01*
X41787094Y-192649015D01*
X41747395Y-192798874D01*
X41707240Y-192949689D01*
X41668137Y-193095757D01*
X41631596Y-193231376D01*
X41599126Y-193350843D01*
X41572238Y-193448457D01*
X41557646Y-193500375D01*
X41525996Y-193611500D01*
X36787666Y-193611500D01*
X36787666Y-198606582D01*
X40188160Y-198617416D01*
X39984127Y-199379416D01*
X39780095Y-200141416D01*
X38283880Y-200146850D01*
X36787666Y-200152283D01*
X36787666Y-205147333D01*
X37615431Y-205147333D01*
X37832202Y-205147596D01*
X38009850Y-205148453D01*
X38151581Y-205150010D01*
X38260602Y-205152368D01*
X38340121Y-205155633D01*
X38393344Y-205159907D01*
X38423478Y-205165295D01*
X38433730Y-205171900D01*
X38433549Y-205173791D01*
X38426045Y-205199701D01*
X38408944Y-205261771D01*
X38383530Y-205355248D01*
X38351086Y-205475382D01*
X38312894Y-205617421D01*
X38270239Y-205776613D01*
X38224909Y-205946308D01*
X38025916Y-206692367D01*
X36634208Y-206692433D01*
X35242500Y-206692500D01*
X35242500Y-192066333D01*
X38586833Y-192066333D01*
X39068752Y-192066431D01*
G36*
X63334189Y-192024260D02*
G01*
X63531825Y-192025007D01*
X63712180Y-192026192D01*
X63871315Y-192027763D01*
X64005293Y-192029672D01*
X64110177Y-192031869D01*
X64182031Y-192034303D01*
X64216916Y-192036924D01*
X64219666Y-192037911D01*
X64210182Y-192057954D01*
X64182397Y-192113706D01*
X64137315Y-192203199D01*
X64075937Y-192324467D01*
X63999267Y-192475542D01*
X63908306Y-192654457D01*
X63804057Y-192859243D01*
X63687524Y-193087934D01*
X63559707Y-193338563D01*
X63421610Y-193609162D01*
X63274236Y-193897763D01*
X63118586Y-194202399D01*
X62955663Y-194521103D01*
X62786471Y-194851908D01*
X62616291Y-195184482D01*
X62441872Y-195525282D01*
X62272670Y-195855936D01*
X62109690Y-196174474D01*
X61953941Y-196478923D01*
X61806430Y-196767314D01*
X61668164Y-197037675D01*
X61540151Y-197288038D01*
X61423398Y-197516429D01*
X61318913Y-197720880D01*
X61227702Y-197899419D01*
X61150774Y-198050076D01*
X61089136Y-198170880D01*
X61043795Y-198259861D01*
X61015758Y-198315047D01*
X61006046Y-198334431D01*
X61018587Y-198332123D01*
X61058017Y-198310283D01*
X61116370Y-198273404D01*
X61128606Y-198265290D01*
X61361994Y-198134648D01*
X61622689Y-198036038D01*
X61910225Y-197969537D01*
X62224138Y-197935226D01*
X62563962Y-197933184D01*
X62907463Y-197960861D01*
X63198666Y-198004131D01*
X63461316Y-198062943D01*
X63707477Y-198140907D01*
X63949214Y-198241635D01*
X64108368Y-198320338D01*
X64336622Y-198450562D01*
X64540091Y-198592005D01*
X64732616Y-198755073D01*
X64882834Y-198902669D01*
X65114503Y-199170585D01*
X65317826Y-199465173D01*
X65493115Y-199787334D01*
X65640680Y-200137973D01*
X65760833Y-200517993D01*
X65853884Y-200928296D01*
X65920144Y-201369785D01*
X65959924Y-201843364D01*
X65968963Y-202057000D01*
X65968612Y-202555159D01*
X65936609Y-203030951D01*
X65873242Y-203483182D01*
X65778798Y-203910660D01*
X65653564Y-204312191D01*
X65497827Y-204686580D01*
X65311875Y-205032635D01*
X65217679Y-205179887D01*
X64990602Y-205479813D01*
X64735501Y-205748121D01*
X64452736Y-205984602D01*
X64142666Y-206189048D01*
X63805651Y-206361250D01*
X63442050Y-206500997D01*
X63052223Y-206608083D01*
X62636529Y-206682297D01*
X62632166Y-206682882D01*
X62492048Y-206697788D01*
X62323034Y-206709719D01*
X62136938Y-206718366D01*
X61945576Y-206723417D01*
X61760763Y-206724560D01*
X61594312Y-206721484D01*
X61458039Y-206713879D01*
X61457416Y-206713826D01*
X61022850Y-206659244D01*
X60615031Y-206572102D01*
X60234095Y-206452490D01*
X59880181Y-206300494D01*
X59553426Y-206116205D01*
X59253968Y-205899709D01*
X58981943Y-205651096D01*
X58737489Y-205370454D01*
X58520744Y-205057871D01*
X58331845Y-204713436D01*
X58325081Y-204699435D01*
X58171335Y-204333672D01*
X58048172Y-203941553D01*
X57955459Y-203525850D01*
X57893060Y-203089338D01*
X57860841Y-202634788D01*
X57859954Y-202443012D01*
X59901666Y-202443012D01*
X59915462Y-202801395D01*
X59957054Y-203128525D01*
X60026747Y-203425343D01*
X60124846Y-203692787D01*
X60251657Y-203931800D01*
X60407484Y-204143319D01*
X60479160Y-204221625D01*
X60679615Y-204398451D01*
X60903283Y-204540571D01*
X61151023Y-204648403D01*
X61423694Y-204722362D01*
X61557951Y-204745155D01*
X61666379Y-204754642D01*
X61803760Y-204758214D01*
X61957199Y-204756328D01*
X62113797Y-204749443D01*
X62260659Y-204738019D01*
X62384887Y-204722513D01*
X62431083Y-204714095D01*
X62700407Y-204637487D01*
X62946336Y-204526041D01*
X63167548Y-204381042D01*
X63362722Y-204203774D01*
X63530538Y-203995522D01*
X63669675Y-203757570D01*
X63778811Y-203491203D01*
X63816562Y-203366878D01*
X63859539Y-203173616D01*
X63892400Y-202950389D01*
X63914490Y-202708496D01*
X63925151Y-202459237D01*
X63923725Y-202213910D01*
X63909557Y-201983815D01*
X63901381Y-201908278D01*
X63842511Y-201564670D01*
X63753662Y-201250832D01*
X63634856Y-200966813D01*
X63486114Y-200712663D01*
X63307459Y-200488433D01*
X63257491Y-200436422D01*
X63057868Y-200262127D01*
X62840924Y-200123069D01*
X62604442Y-200018468D01*
X62346204Y-199947546D01*
X62063994Y-199909523D01*
X61755595Y-199903618D01*
X61743166Y-199904023D01*
X61499696Y-199921935D01*
X61286701Y-199959583D01*
X61095857Y-200019769D01*
X60918840Y-200105297D01*
X60747325Y-200218968D01*
X60700712Y-200254981D01*
X60510764Y-200432785D01*
X60345734Y-200643953D01*
X60206048Y-200887325D01*
X60092128Y-201161737D01*
X60004401Y-201466028D01*
X59943290Y-201799035D01*
X59909220Y-202159595D01*
X59901666Y-202443012D01*
X57859954Y-202443012D01*
X57858668Y-202164974D01*
X57886405Y-201682668D01*
X57943918Y-201190644D01*
X58031072Y-200691675D01*
X58147734Y-200188533D01*
X58293767Y-199683991D01*
X58469038Y-199180823D01*
X58610121Y-198828375D01*
X58629149Y-198786996D01*
X58666246Y-198709922D01*
X58720373Y-198599234D01*
X58790489Y-198457013D01*
X58875556Y-198285340D01*
X58974532Y-198086296D01*
X59086378Y-197861960D01*
X59210055Y-197614414D01*
X59344523Y-197345739D01*
X59488741Y-197058015D01*
X59641671Y-196753323D01*
X59802272Y-196433743D01*
X59969504Y-196101357D01*
X60142329Y-195758245D01*
X60319705Y-195406488D01*
X60362990Y-195320708D01*
X62026750Y-192024000D01*
X63123208Y-192024000D01*
X63334189Y-192024260D01*
X63334189Y-192024260D01*
G37*
X63334189Y-192024260D02*
X63531825Y-192025007D01*
X63712180Y-192026192D01*
X63871315Y-192027763D01*
X64005293Y-192029672D01*
X64110177Y-192031869D01*
X64182031Y-192034303D01*
X64216916Y-192036924D01*
X64219666Y-192037911D01*
X64210182Y-192057954D01*
X64182397Y-192113706D01*
X64137315Y-192203199D01*
X64075937Y-192324467D01*
X63999267Y-192475542D01*
X63908306Y-192654457D01*
X63804057Y-192859243D01*
X63687524Y-193087934D01*
X63559707Y-193338563D01*
X63421610Y-193609162D01*
X63274236Y-193897763D01*
X63118586Y-194202399D01*
X62955663Y-194521103D01*
X62786471Y-194851908D01*
X62616291Y-195184482D01*
X62441872Y-195525282D01*
X62272670Y-195855936D01*
X62109690Y-196174474D01*
X61953941Y-196478923D01*
X61806430Y-196767314D01*
X61668164Y-197037675D01*
X61540151Y-197288038D01*
X61423398Y-197516429D01*
X61318913Y-197720880D01*
X61227702Y-197899419D01*
X61150774Y-198050076D01*
X61089136Y-198170880D01*
X61043795Y-198259861D01*
X61015758Y-198315047D01*
X61006046Y-198334431D01*
X61018587Y-198332123D01*
X61058017Y-198310283D01*
X61116370Y-198273404D01*
X61128606Y-198265290D01*
X61361994Y-198134648D01*
X61622689Y-198036038D01*
X61910225Y-197969537D01*
X62224138Y-197935226D01*
X62563962Y-197933184D01*
X62907463Y-197960861D01*
X63198666Y-198004131D01*
X63461316Y-198062943D01*
X63707477Y-198140907D01*
X63949214Y-198241635D01*
X64108368Y-198320338D01*
X64336622Y-198450562D01*
X64540091Y-198592005D01*
X64732616Y-198755073D01*
X64882834Y-198902669D01*
X65114503Y-199170585D01*
X65317826Y-199465173D01*
X65493115Y-199787334D01*
X65640680Y-200137973D01*
X65760833Y-200517993D01*
X65853884Y-200928296D01*
X65920144Y-201369785D01*
X65959924Y-201843364D01*
X65968963Y-202057000D01*
X65968612Y-202555159D01*
X65936609Y-203030951D01*
X65873242Y-203483182D01*
X65778798Y-203910660D01*
X65653564Y-204312191D01*
X65497827Y-204686580D01*
X65311875Y-205032635D01*
X65217679Y-205179887D01*
X64990602Y-205479813D01*
X64735501Y-205748121D01*
X64452736Y-205984602D01*
X64142666Y-206189048D01*
X63805651Y-206361250D01*
X63442050Y-206500997D01*
X63052223Y-206608083D01*
X62636529Y-206682297D01*
X62632166Y-206682882D01*
X62492048Y-206697788D01*
X62323034Y-206709719D01*
X62136938Y-206718366D01*
X61945576Y-206723417D01*
X61760763Y-206724560D01*
X61594312Y-206721484D01*
X61458039Y-206713879D01*
X61457416Y-206713826D01*
X61022850Y-206659244D01*
X60615031Y-206572102D01*
X60234095Y-206452490D01*
X59880181Y-206300494D01*
X59553426Y-206116205D01*
X59253968Y-205899709D01*
X58981943Y-205651096D01*
X58737489Y-205370454D01*
X58520744Y-205057871D01*
X58331845Y-204713436D01*
X58325081Y-204699435D01*
X58171335Y-204333672D01*
X58048172Y-203941553D01*
X57955459Y-203525850D01*
X57893060Y-203089338D01*
X57860841Y-202634788D01*
X57859954Y-202443012D01*
X59901666Y-202443012D01*
X59915462Y-202801395D01*
X59957054Y-203128525D01*
X60026747Y-203425343D01*
X60124846Y-203692787D01*
X60251657Y-203931800D01*
X60407484Y-204143319D01*
X60479160Y-204221625D01*
X60679615Y-204398451D01*
X60903283Y-204540571D01*
X61151023Y-204648403D01*
X61423694Y-204722362D01*
X61557951Y-204745155D01*
X61666379Y-204754642D01*
X61803760Y-204758214D01*
X61957199Y-204756328D01*
X62113797Y-204749443D01*
X62260659Y-204738019D01*
X62384887Y-204722513D01*
X62431083Y-204714095D01*
X62700407Y-204637487D01*
X62946336Y-204526041D01*
X63167548Y-204381042D01*
X63362722Y-204203774D01*
X63530538Y-203995522D01*
X63669675Y-203757570D01*
X63778811Y-203491203D01*
X63816562Y-203366878D01*
X63859539Y-203173616D01*
X63892400Y-202950389D01*
X63914490Y-202708496D01*
X63925151Y-202459237D01*
X63923725Y-202213910D01*
X63909557Y-201983815D01*
X63901381Y-201908278D01*
X63842511Y-201564670D01*
X63753662Y-201250832D01*
X63634856Y-200966813D01*
X63486114Y-200712663D01*
X63307459Y-200488433D01*
X63257491Y-200436422D01*
X63057868Y-200262127D01*
X62840924Y-200123069D01*
X62604442Y-200018468D01*
X62346204Y-199947546D01*
X62063994Y-199909523D01*
X61755595Y-199903618D01*
X61743166Y-199904023D01*
X61499696Y-199921935D01*
X61286701Y-199959583D01*
X61095857Y-200019769D01*
X60918840Y-200105297D01*
X60747325Y-200218968D01*
X60700712Y-200254981D01*
X60510764Y-200432785D01*
X60345734Y-200643953D01*
X60206048Y-200887325D01*
X60092128Y-201161737D01*
X60004401Y-201466028D01*
X59943290Y-201799035D01*
X59909220Y-202159595D01*
X59901666Y-202443012D01*
X57859954Y-202443012D01*
X57858668Y-202164974D01*
X57886405Y-201682668D01*
X57943918Y-201190644D01*
X58031072Y-200691675D01*
X58147734Y-200188533D01*
X58293767Y-199683991D01*
X58469038Y-199180823D01*
X58610121Y-198828375D01*
X58629149Y-198786996D01*
X58666246Y-198709922D01*
X58720373Y-198599234D01*
X58790489Y-198457013D01*
X58875556Y-198285340D01*
X58974532Y-198086296D01*
X59086378Y-197861960D01*
X59210055Y-197614414D01*
X59344523Y-197345739D01*
X59488741Y-197058015D01*
X59641671Y-196753323D01*
X59802272Y-196433743D01*
X59969504Y-196101357D01*
X60142329Y-195758245D01*
X60319705Y-195406488D01*
X60362990Y-195320708D01*
X62026750Y-192024000D01*
X63123208Y-192024000D01*
X63334189Y-192024260D01*
%LPC*%
D11*
X148971000Y-159575500D03*
X281178000Y-159543750D03*
X216693750Y-188118750D03*
X216693750Y-100806250D03*
X284162500Y-121443750D03*
X307181250Y-145256250D03*
X91281250Y-140493750D03*
X153193750Y-121443750D03*
X216693750Y-140493750D03*
X353218750Y-174625000D03*
X364331250Y-92075000D03*
X103187500Y-188912500D03*
X57943750Y-174625000D03*
X304800000Y-188912500D03*
X43656250Y-92075000D03*
D12*
X170180000Y-111918750D03*
X160020000Y-111918750D03*
D13*
X165100000Y-111918750D03*
D14*
X342425000Y-85026500D03*
X349725000Y-85026500D03*
X349725000Y-89526500D03*
X342425000Y-89526500D03*
D12*
X365442500Y-192881250D03*
X355282500Y-192881250D03*
D13*
X360362500Y-192881250D03*
D12*
X346392500Y-192881250D03*
X336232500Y-192881250D03*
D13*
X341312500Y-192881250D03*
D12*
X327342500Y-192881250D03*
X317182500Y-192881250D03*
D13*
X322262500Y-192881250D03*
D12*
X291623750Y-188118750D03*
X281463750Y-188118750D03*
D13*
X286543750Y-188118750D03*
D12*
X267811250Y-188118750D03*
X257651250Y-188118750D03*
D13*
X262731250Y-188118750D03*
D12*
X346392500Y-173831250D03*
X336232500Y-173831250D03*
D13*
X341312500Y-173831250D03*
D12*
X315436250Y-169068750D03*
X305276250Y-169068750D03*
D13*
X310356250Y-169068750D03*
D12*
X289242500Y-169068750D03*
X279082500Y-169068750D03*
D13*
X284162500Y-169068750D03*
D12*
X270192500Y-169068750D03*
X260032500Y-169068750D03*
D13*
X265112500Y-169068750D03*
D12*
X365442500Y-111918750D03*
X355282500Y-111918750D03*
D13*
X360362500Y-111918750D03*
X336581750Y-158273750D03*
X312705750Y-158273750D03*
D15*
X336581750Y-143033750D03*
X312705750Y-143033750D03*
D12*
X329723750Y-150018750D03*
X319563750Y-150018750D03*
D13*
X324643750Y-150018750D03*
D12*
X298767500Y-150018750D03*
X288607500Y-150018750D03*
D13*
X293687500Y-150018750D03*
D12*
X279717500Y-150018750D03*
X269557500Y-150018750D03*
D13*
X274637500Y-150018750D03*
D12*
X260667500Y-150018750D03*
X250507500Y-150018750D03*
D13*
X255587500Y-150018750D03*
D12*
X336867500Y-130968750D03*
X326707500Y-130968750D03*
D13*
X331787500Y-130968750D03*
D12*
X313055000Y-130968750D03*
X302895000Y-130968750D03*
D13*
X307975000Y-130968750D03*
D12*
X294005000Y-130968750D03*
X283845000Y-130968750D03*
D13*
X288925000Y-130968750D03*
D12*
X274955000Y-130968750D03*
X264795000Y-130968750D03*
D13*
X269875000Y-130968750D03*
D12*
X255905000Y-130968750D03*
X245745000Y-130968750D03*
D13*
X250825000Y-130968750D03*
X338963000Y-120173750D03*
X315087000Y-120173750D03*
D15*
X338963000Y-104933750D03*
X315087000Y-104933750D03*
D12*
X332105000Y-111918750D03*
X321945000Y-111918750D03*
D13*
X327025000Y-111918750D03*
D12*
X303530000Y-111918750D03*
X293370000Y-111918750D03*
D13*
X298450000Y-111918750D03*
D12*
X284480000Y-111918750D03*
X274320000Y-111918750D03*
D13*
X279400000Y-111918750D03*
D12*
X265430000Y-111918750D03*
X255270000Y-111918750D03*
D13*
X260350000Y-111918750D03*
D12*
X246380000Y-111918750D03*
X236220000Y-111918750D03*
D13*
X241300000Y-111918750D03*
X241293650Y-196373750D03*
X141293850Y-196373750D03*
D15*
X241293650Y-181133750D03*
X141293850Y-181133750D03*
D12*
X196373750Y-188118750D03*
X186213750Y-188118750D03*
D13*
X191293750Y-188118750D03*
D12*
X124936250Y-188118750D03*
X114776250Y-188118750D03*
D13*
X119856250Y-188118750D03*
D12*
X77311250Y-188118750D03*
X67151250Y-188118750D03*
D13*
X72231250Y-188118750D03*
D12*
X251142500Y-169068750D03*
X240982500Y-169068750D03*
D13*
X246062500Y-169068750D03*
D12*
X232092500Y-169068750D03*
X221932500Y-169068750D03*
D13*
X227012500Y-169068750D03*
D12*
X213042500Y-169068750D03*
X202882500Y-169068750D03*
D13*
X207962500Y-169068750D03*
D12*
X193878750Y-169082500D03*
X183718750Y-169082500D03*
D13*
X188798750Y-169082500D03*
D12*
X174942500Y-169068750D03*
X164782500Y-169068750D03*
D13*
X169862500Y-169068750D03*
D12*
X155892500Y-169068750D03*
X145732500Y-169068750D03*
D13*
X150812500Y-169068750D03*
D12*
X136842500Y-169068750D03*
X126682500Y-169068750D03*
D13*
X131762500Y-169068750D03*
D12*
X117792500Y-169068750D03*
X107632500Y-169068750D03*
D13*
X112712500Y-169068750D03*
X93694250Y-177323750D03*
X69818250Y-177323750D03*
D15*
X93694250Y-162083750D03*
X69818250Y-162083750D03*
D12*
X86836250Y-169068750D03*
X76676250Y-169068750D03*
D13*
X81756250Y-169068750D03*
D12*
X51117500Y-169068750D03*
X40957500Y-169068750D03*
D13*
X46037500Y-169068750D03*
D12*
X241617500Y-150018750D03*
X231457500Y-150018750D03*
D13*
X236537500Y-150018750D03*
D12*
X222567500Y-150018750D03*
X212407500Y-150018750D03*
D13*
X217487500Y-150018750D03*
D12*
X203517500Y-150018750D03*
X193357500Y-150018750D03*
D13*
X198437500Y-150018750D03*
D12*
X184467500Y-150018750D03*
X174307500Y-150018750D03*
D13*
X179387500Y-150018750D03*
D12*
X165417500Y-150018750D03*
X155257500Y-150018750D03*
D13*
X160337500Y-150018750D03*
D12*
X146367500Y-150018750D03*
X136207500Y-150018750D03*
D13*
X141287500Y-150018750D03*
D12*
X127317500Y-150018750D03*
X117157500Y-150018750D03*
D13*
X122237500Y-150018750D03*
D12*
X108267500Y-150018750D03*
X98107500Y-150018750D03*
D13*
X103187500Y-150018750D03*
D12*
X82073750Y-150018750D03*
X71913750Y-150018750D03*
D13*
X76993750Y-150018750D03*
D12*
X51117500Y-150018750D03*
X40957500Y-150018750D03*
D13*
X46037500Y-150018750D03*
D12*
X236855000Y-130968750D03*
X226695000Y-130968750D03*
D13*
X231775000Y-130968750D03*
D12*
X217805000Y-130968750D03*
X207645000Y-130968750D03*
D13*
X212725000Y-130968750D03*
D12*
X198755000Y-130968750D03*
X188595000Y-130968750D03*
D13*
X193675000Y-130968750D03*
D12*
X179705000Y-130968750D03*
X169545000Y-130968750D03*
D13*
X174625000Y-130968750D03*
D12*
X160655000Y-130968750D03*
X150495000Y-130968750D03*
D13*
X155575000Y-130968750D03*
D12*
X141605000Y-130968750D03*
X131445000Y-130968750D03*
D13*
X136525000Y-130968750D03*
D12*
X122555000Y-130968750D03*
X112395000Y-130968750D03*
D13*
X117475000Y-130968750D03*
D12*
X103505000Y-130968750D03*
X93345000Y-130968750D03*
D13*
X98425000Y-130968750D03*
D12*
X79692500Y-130968750D03*
X69532500Y-130968750D03*
D13*
X74612500Y-130968750D03*
D12*
X51117500Y-130968750D03*
X40957500Y-130968750D03*
D13*
X46037500Y-130968750D03*
D12*
X227330000Y-111918750D03*
X217170000Y-111918750D03*
D13*
X222250000Y-111918750D03*
D12*
X208280000Y-111918750D03*
X198120000Y-111918750D03*
D13*
X203200000Y-111918750D03*
D12*
X189230000Y-111918750D03*
X179070000Y-111918750D03*
D13*
X184150000Y-111918750D03*
D12*
X151130000Y-111918750D03*
X140970000Y-111918750D03*
D13*
X146050000Y-111918750D03*
D12*
X132080000Y-111918750D03*
X121920000Y-111918750D03*
D13*
X127000000Y-111918750D03*
D12*
X113030000Y-111918750D03*
X102870000Y-111918750D03*
D13*
X107950000Y-111918750D03*
D12*
X93980000Y-111918750D03*
X83820000Y-111918750D03*
D13*
X88900000Y-111918750D03*
D12*
X74930000Y-111918750D03*
X64770000Y-111918750D03*
D13*
X69850000Y-111918750D03*
D12*
X51117500Y-111918750D03*
X40957500Y-111918750D03*
D13*
X46037500Y-111918750D03*
M02*
