M48
; DRILL file {KiCad (5.1.4)-1} date 11/10/2019 11:30:49 PM
; FORMAT={-:-/ absolute / inch / decimal}
; #@! TF.CreationDate,2019-11-10T23:30:49-05:00
; #@! TF.GenerationSoftware,Kicad,Pcbnew,(5.1.4)-1
; #@! TF.FileFunction,NonPlated,1,2,NPTH
FMAT,2
INCH
T1C0.0689
T2C0.1200
T3C0.1570
%
G90
G05
T1
X12.675Y-4.4062
X13.075Y-4.4062
X6.675Y-5.1562
X7.075Y-5.1562
X2.8312Y-5.9062
X3.2312Y-5.9062
X10.05Y-4.4062
X10.45Y-4.4062
X3.675Y-5.1562
X4.075Y-5.1562
X11.0812Y-7.4062
X11.4812Y-7.4062
X1.6125Y-4.4062
X2.0125Y-4.4062
X13.9875Y-4.4062
X14.3875Y-4.4062
X7.3312Y-7.4062
X7.7313Y-7.4062
X4.5187Y-7.4062
X4.9188Y-7.4062
X4.8Y-4.4062
X5.2Y-4.4062
X10.425Y-5.1562
X10.825Y-5.1562
X10.2375Y-6.6562
X10.6375Y-6.6562
X7.425Y-5.1562
X7.825Y-5.1562
X10.6125Y-5.9062
X11.0125Y-5.9062
X9.1125Y-5.9062
X9.5125Y-5.9062
X4.9875Y-6.6562
X5.3875Y-6.6562
X9.8625Y-5.9062
X10.2625Y-5.9062
X7.9875Y-6.6562
X8.3875Y-6.6562
X6.1125Y-5.9062
X6.5125Y-5.9062
X8.55Y-4.4062
X8.95Y-4.4062
X13.2375Y-7.5938
X13.6375Y-7.5938
X2.55Y-4.4062
X2.95Y-4.4062
X5.7375Y-6.6562
X6.1375Y-6.6562
X5.55Y-4.4062
X5.95Y-4.4062
X12.0187Y-6.6562
X12.4187Y-6.6562
X9.3Y-4.4062
X9.7Y-4.4062
X10.1437Y-7.4062
X10.5437Y-7.4062
X3.0187Y-6.6562
X3.4187Y-6.6562
X11.925Y-5.1562
X12.325Y-5.1562
X2.6437Y-7.4062
X3.0437Y-7.4062
X6.3Y-4.4062
X6.7Y-4.4062
X6.4875Y-6.6562
X6.8875Y-6.6562
X12.5812Y-5.9062
X12.9812Y-5.9062
X7.05Y-4.4062
X7.45Y-4.4062
X8.3625Y-5.9062
X8.7625Y-5.9062
X8.7375Y-6.6562
X9.1375Y-6.6562
X4.2375Y-6.6562
X4.6375Y-6.6562
X4.05Y-4.4062
X4.45Y-4.4062
X5.3625Y-5.9062
X5.7625Y-5.9062
X5.925Y-5.1562
X6.325Y-5.1562
X4.6125Y-5.9062
X5.0125Y-5.9062
X11.175Y-5.1562
X11.575Y-5.1562
X2.7375Y-5.1562
X3.1375Y-5.1562
X4.425Y-5.1562
X4.825Y-5.1562
X11.55Y-4.4062
X11.95Y-4.4062
X9.675Y-5.1562
X10.075Y-5.1562
X12.4875Y-7.5938
X12.8875Y-7.5938
X3.8625Y-5.9062
X4.2625Y-5.9062
X10.8Y-4.4062
X11.2Y-4.4062
X13.2375Y-6.8438
X13.6375Y-6.8438
X8.175Y-5.1562
X8.575Y-5.1562
X9.4875Y-6.6562
X9.8875Y-6.6562
X10.9875Y-6.6562
X11.3875Y-6.6562
X1.6125Y-5.1562
X2.0125Y-5.1562
X7.233Y-6.6568
X7.633Y-6.6568
X11.3625Y-5.9062
X11.7625Y-5.9062
X7.6125Y-5.9062
X8.0125Y-5.9062
X1.6125Y-5.9062
X2.0125Y-5.9062
X12.8625Y-5.1562
X13.2625Y-5.1562
X7.8Y-4.4062
X8.2Y-4.4062
X1.6125Y-6.6562
X2.0125Y-6.6562
X6.8625Y-5.9062
X7.2625Y-5.9062
X13.9875Y-7.5938
X14.3875Y-7.5938
X8.925Y-5.1562
X9.325Y-5.1562
X3.3Y-4.4062
X3.7Y-4.4062
X5.175Y-5.1562
X5.575Y-5.1562
T2
X12.3112Y-5.6312
X13.2512Y-5.6312
X12.405Y-4.1312
X13.345Y-4.1312
X5.5628Y-7.1312
X9.4998Y-7.1312
X2.7487Y-6.3812
X3.6887Y-6.3812
T3
X2.8438Y-7.4062
X6.5Y-4.4062
X6.6875Y-6.6562
X12.3112Y-6.2313
X12.7812Y-5.9062
X13.2512Y-6.2313
X7.25Y-4.4062
X8.5625Y-5.9062
X8.9375Y-6.6562
X4.4375Y-6.6562
X4.25Y-4.4062
X5.5625Y-5.9062
X6.125Y-5.1562
X4.8125Y-5.9062
X11.375Y-5.1562
X2.9375Y-5.1562
X4.625Y-5.1562
X11.75Y-4.4062
X9.875Y-5.1562
X12.6875Y-7.5938
X4.0625Y-5.9062
X11.0Y-4.4062
X13.4375Y-6.8438
X8.375Y-5.1562
X9.6875Y-6.6562
X11.1875Y-6.6562
X1.8125Y-5.1562
X7.433Y-6.6568
X11.5625Y-5.9062
X7.8125Y-5.9062
X1.8125Y-5.9062
X13.0625Y-5.1562
X8.0Y-4.4062
X1.8125Y-6.6562
X7.0625Y-5.9062
X14.1875Y-7.5938
X9.125Y-5.1562
X3.5Y-4.4062
X5.375Y-5.1562
X12.405Y-4.7313
X12.875Y-4.4062
X13.345Y-4.7313
X6.875Y-5.1562
X3.0312Y-5.9062
X10.25Y-4.4062
X3.875Y-5.1562
X11.2812Y-7.4062
X1.8125Y-4.4062
X14.1875Y-4.4062
X5.5628Y-7.7313
X7.5312Y-7.4062
X9.4998Y-7.7313
X4.7188Y-7.4062
X5.0Y-4.4062
X10.625Y-5.1562
X10.4375Y-6.6562
X7.625Y-5.1562
X10.8125Y-5.9062
X9.3125Y-5.9062
X5.1875Y-6.6562
X10.0625Y-5.9062
X8.1875Y-6.6562
X6.3125Y-5.9062
X8.75Y-4.4062
X13.4375Y-7.5938
X2.75Y-4.4062
X5.9375Y-6.6562
X5.75Y-4.4062
X12.2188Y-6.6562
X9.5Y-4.4062
X10.3438Y-7.4062
X2.7487Y-6.9813
X3.2188Y-6.6562
X3.6887Y-6.9813
X12.125Y-5.1562
T0
M30
