M48
; DRILL file {KiCad (5.1.4)-1} date 11/10/2019 11:30:49 PM
; FORMAT={-:-/ absolute / inch / decimal}
; #@! TF.CreationDate,2019-11-10T23:30:49-05:00
; #@! TF.GenerationSoftware,Kicad,Pcbnew,(5.1.4)-1
; #@! TF.FileFunction,Plated,1,2,PTH
FMAT,2
INCH
T1C0.0157
T2C0.0276
T3C0.0579
T4C0.0866
%
G90
G05
T1
X4.845Y-3.625
X4.8776Y-3.53
X4.94Y-3.53
X5.0286Y-3.625
X5.34Y-3.53
X5.3464Y-3.62
X5.3464Y-3.71
X5.4036Y-3.53
X5.4974Y-3.62
X5.5911Y-3.715
X5.8151Y-3.53
X5.8151Y-3.62
X5.8151Y-3.715
X5.8724Y-3.53
X5.9661Y-3.62
X6.2767Y-3.6217
X6.28Y-3.53
X6.3411Y-3.53
X6.4349Y-3.62
X6.7436Y-3.6236
X6.75Y-3.53
X6.8099Y-3.53
X6.905Y-3.625
X7.2092Y-3.6242
X7.215Y-3.53
X7.2786Y-3.53
X7.3724Y-3.62
X7.4661Y-3.71
X7.69Y-3.53
X7.69Y-3.715
X7.6901Y-3.62
X7.7474Y-3.53
X7.8411Y-3.62
X8.1589Y-3.53
X8.1589Y-3.62
X8.2161Y-3.53
X8.3099Y-3.62
X8.625Y-3.53
X8.6276Y-3.62
X8.6849Y-3.53
X8.7786Y-3.62
X9.0964Y-3.53
X9.0964Y-3.62
X9.1536Y-3.53
X9.2474Y-3.62
X9.3411Y-3.715
X9.5651Y-3.53
X9.5651Y-3.6232
X9.5914Y-3.71
X9.6224Y-3.53
X9.7161Y-3.62
X9.8099Y-3.71
X10.0339Y-3.53
X10.0339Y-3.62
X10.0339Y-3.71
X10.0911Y-3.53
X10.1849Y-3.62
X10.2786Y-3.7093
X10.5026Y-3.525
X10.5026Y-3.62
X10.5026Y-3.71
X10.5599Y-3.525
X10.6536Y-3.62
X10.7474Y-3.71
X10.9714Y-3.53
X10.9714Y-3.625
X11.0071Y-3.7129
X11.0286Y-3.53
X11.1224Y-3.625
X11.18Y-5.425
X11.22Y-3.715
X11.27Y-5.425
X11.305Y-3.88
X11.45Y-3.88
X11.925Y-5.385
X11.925Y-5.425
X12.03Y-5.385
X12.03Y-5.425
X12.18Y-6.915
X12.5076Y-7.2463
X12.925Y-3.715
X12.925Y-3.76
X12.925Y-3.8
X12.925Y-3.845
X12.925Y-3.885
X13.015Y-6.33
X13.24Y-5.06
X13.2875Y-6.4725
X13.295Y-5.2525
X13.34Y-5.2525
X13.385Y-5.2525
X13.43Y-5.2525
X13.4528Y-5.06
X13.475Y-5.2525
X13.49Y-3.905
X13.51Y-5.06
X13.52Y-5.345
X13.52Y-5.385
X13.52Y-5.425
X13.525Y-5.77
X13.525Y-5.815
X13.525Y-5.86
X13.525Y-5.905
X13.56Y-5.99
X13.5761Y-3.9291
X13.585Y-6.03
X13.635Y-6.03
X13.645Y-3.93
X13.65Y-5.55
X13.69Y-5.06
X13.695Y-5.555
X13.695Y-5.79
X13.705Y-5.605
X13.74Y-3.9
X13.825Y-5.485
X13.9136Y-5.9171
X14.42Y-6.575
X14.5Y-5.6961
X14.56Y-6.255
X14.57Y-7.15
X14.615Y-5.21
X14.6232Y-6.2757
X14.625Y-5.65
X14.6414Y-6.24
X14.6561Y-5.805
X14.665Y-5.68
X14.665Y-5.765
X14.6673Y-5.7227
X14.745Y-7.15
T3
X10.1937Y-7.3062
X10.2453Y-7.2488
X10.4422Y-7.2291
X10.4437Y-7.2062
X3.0688Y-6.5562
X3.1203Y-6.4988
X3.3172Y-6.4791
X3.3188Y-6.4562
X11.975Y-5.0562
X12.0266Y-4.9988
X12.2234Y-4.9791
X12.225Y-4.9562
X2.6938Y-7.3062
X2.7453Y-7.2488
X2.9422Y-7.2291
X2.9438Y-7.2062
X6.35Y-4.3062
X6.4016Y-4.2488
X6.5984Y-4.2291
X6.6Y-4.2062
X6.5375Y-6.5562
X6.5891Y-6.4988
X6.7859Y-6.4791
X6.7875Y-6.4562
X12.6312Y-5.8062
X12.6828Y-5.7488
X12.8797Y-5.7291
X12.8812Y-5.7062
X7.1Y-4.3062
X7.1516Y-4.2488
X7.3484Y-4.2291
X7.35Y-4.2062
X8.4125Y-5.8062
X8.4641Y-5.7488
X8.6609Y-5.7291
X8.6625Y-5.7062
X8.7875Y-6.5562
X8.8391Y-6.4988
X9.0359Y-6.4791
X9.0375Y-6.4562
X4.2875Y-6.5562
X4.3391Y-6.4988
X4.5359Y-6.4791
X4.5375Y-6.4562
X4.1Y-4.3062
X4.1516Y-4.2488
X4.3484Y-4.2291
X4.35Y-4.2062
X5.4125Y-5.8062
X5.4641Y-5.7488
X5.6609Y-5.7291
X5.6625Y-5.7062
X5.975Y-5.0562
X6.0266Y-4.9988
X6.2234Y-4.9791
X6.225Y-4.9562
X4.6625Y-5.8062
X4.7141Y-5.7488
X4.9109Y-5.7291
X4.9125Y-5.7062
X11.225Y-5.0562
X11.2766Y-4.9988
X11.4734Y-4.9791
X11.475Y-4.9562
X2.7875Y-5.0562
X2.8391Y-4.9988
X3.0359Y-4.9791
X3.0375Y-4.9562
X4.475Y-5.0562
X4.5266Y-4.9988
X4.7234Y-4.9791
X4.725Y-4.9562
X11.6Y-4.3062
X11.6516Y-4.2488
X11.8484Y-4.2291
X11.85Y-4.2062
X9.725Y-5.0562
X9.7766Y-4.9988
X9.9734Y-4.9791
X9.975Y-4.9562
X12.5375Y-7.4937
X12.5891Y-7.4363
X12.7859Y-7.4166
X12.7875Y-7.3937
X3.9125Y-5.8062
X3.9641Y-5.7488
X4.1609Y-5.7291
X4.1625Y-5.7062
X10.85Y-4.3062
X10.9016Y-4.2488
X11.0984Y-4.2291
X11.1Y-4.2062
X13.2875Y-6.7437
X13.3391Y-6.6863
X13.5359Y-6.6666
X13.5375Y-6.6437
X8.225Y-5.0562
X8.2766Y-4.9988
X8.4734Y-4.9791
X8.475Y-4.9562
X9.5375Y-6.5562
X9.5891Y-6.4988
X9.7859Y-6.4791
X9.7875Y-6.4562
X11.0375Y-6.5562
X11.0891Y-6.4988
X11.2859Y-6.4791
X11.2875Y-6.4562
X1.6625Y-5.0562
X1.7141Y-4.9988
X1.9109Y-4.9791
X1.9125Y-4.9562
X7.283Y-6.5568
X7.3346Y-6.4993
X7.5314Y-6.4796
X7.533Y-6.4568
X11.4125Y-5.8062
X11.4641Y-5.7488
X11.6609Y-5.7291
X11.6625Y-5.7062
X7.6625Y-5.8062
X7.7141Y-5.7488
X7.9109Y-5.7291
X7.9125Y-5.7062
X1.6625Y-5.8062
X1.7141Y-5.7488
X1.9109Y-5.7291
X1.9125Y-5.7062
X12.9125Y-5.0562
X12.9641Y-4.9988
X13.1609Y-4.9791
X13.1625Y-4.9562
X7.85Y-4.3062
X7.9016Y-4.2488
X8.0984Y-4.2291
X8.1Y-4.2062
X1.6625Y-6.5562
X1.7141Y-6.4988
X1.9109Y-6.4791
X1.9125Y-6.4562
X6.9125Y-5.8062
X6.9641Y-5.7488
X7.1609Y-5.7291
X7.1625Y-5.7062
X14.0375Y-7.4937
X14.0891Y-7.4363
X14.2859Y-7.4166
X14.2875Y-7.3937
X8.975Y-5.0562
X9.0266Y-4.9988
X9.2234Y-4.9791
X9.225Y-4.9562
X3.35Y-4.3062
X3.4016Y-4.2488
X3.5984Y-4.2291
X3.6Y-4.2062
X5.225Y-5.0562
X5.2766Y-4.9988
X5.4734Y-4.9791
X5.475Y-4.9562
X12.725Y-4.3062
X12.7766Y-4.2488
X12.9734Y-4.2291
X12.975Y-4.2062
X6.725Y-5.0562
X6.7766Y-4.9988
X6.9734Y-4.9791
X6.975Y-4.9562
X2.8813Y-5.8062
X2.9328Y-5.7488
X3.1297Y-5.7291
X3.1313Y-5.7062
X10.1Y-4.3062
X10.1516Y-4.2488
X10.3484Y-4.2291
X10.35Y-4.2062
X3.725Y-5.0562
X3.7766Y-4.9988
X3.9734Y-4.9791
X3.975Y-4.9562
X11.1312Y-7.3062
X11.1828Y-7.2488
X11.3797Y-7.2291
X11.3812Y-7.2062
X1.6625Y-4.3062
X1.7141Y-4.2488
X1.9109Y-4.2291
X1.9125Y-4.2062
X14.0375Y-4.3062
X14.0891Y-4.2488
X14.2859Y-4.2291
X14.2875Y-4.2062
X7.3812Y-7.3062
X7.4328Y-7.2488
X7.6297Y-7.2291
X7.6312Y-7.2062
X4.5687Y-7.3062
X4.6203Y-7.2488
X4.8172Y-7.2291
X4.8187Y-7.2062
X4.85Y-4.3062
X4.9016Y-4.2488
X5.0984Y-4.2291
X5.1Y-4.2062
X10.475Y-5.0562
X10.5266Y-4.9988
X10.7234Y-4.9791
X10.725Y-4.9562
X10.2875Y-6.5562
X10.3391Y-6.4988
X10.5359Y-6.4791
X10.5375Y-6.4562
X7.475Y-5.0562
X7.5266Y-4.9988
X7.7234Y-4.9791
X7.725Y-4.9562
X10.6625Y-5.8062
X10.7141Y-5.7488
X10.9109Y-5.7291
X10.9125Y-5.7062
X9.1625Y-5.8062
X9.2141Y-5.7488
X9.4109Y-5.7291
X9.4125Y-5.7062
X5.0375Y-6.5562
X5.0891Y-6.4988
X5.2859Y-6.4791
X5.2875Y-6.4562
X9.9125Y-5.8062
X9.9641Y-5.7488
X10.1609Y-5.7291
X10.1625Y-5.7062
X8.0375Y-6.5562
X8.0891Y-6.4988
X8.2859Y-6.4791
X8.2875Y-6.4562
X6.1625Y-5.8062
X6.2141Y-5.7488
X6.4109Y-5.7291
X6.4125Y-5.7062
X8.6Y-4.3062
X8.6516Y-4.2488
X8.8484Y-4.2291
X8.85Y-4.2062
X13.2875Y-7.4937
X13.3391Y-7.4363
X13.5359Y-7.4166
X13.5375Y-7.3937
X2.6Y-4.3062
X2.6516Y-4.2488
X2.8484Y-4.2291
X2.85Y-4.2062
X5.7875Y-6.5562
X5.8391Y-6.4988
X6.0359Y-6.4791
X6.0375Y-6.4562
X5.6Y-4.3062
X5.6516Y-4.2488
X5.8484Y-4.2291
X5.85Y-4.2062
X12.0687Y-6.5562
X12.1203Y-6.4988
X12.3172Y-6.4791
X12.3187Y-6.4562
X9.35Y-4.3062
X9.4016Y-4.2488
X9.5984Y-4.2291
X9.6Y-4.2062
T4
X8.5312Y-7.4062
X11.07Y-6.2812
X2.2812Y-6.875
X8.5312Y-5.5312
X14.3438Y-3.625
X12.0Y-7.4375
X8.5312Y-3.9688
X11.1875Y-4.7812
X12.0938Y-5.7188
X1.7188Y-3.625
X3.5938Y-5.5312
X5.865Y-6.2825
X6.0312Y-4.7812
X13.9062Y-6.875
X4.0625Y-7.4375
T2
G00X13.4813Y-3.3239
M15
G01X13.4813Y-3.3711
M16
G05
G00X13.4813Y-3.501
M15
G01X13.4813Y-3.5483
M16
G05
G00X13.7687Y-3.3239
M15
G01X13.7687Y-3.3711
M16
G05
G00X13.7687Y-3.501
M15
G01X13.7687Y-3.5483
M16
G05
T0
M30
